<?xml version="1.0" encoding="utf-8"?>
<!-- Generator: Adobe Illustrator 19.0.0, SVG Export Plug-In . SVG Version: 6.00 Build 0)  -->
<svg version="1.1" id="Layer_1" xmlns="http://www.w3.org/2000/svg" xmlns:xlink="http://www.w3.org/1999/xlink" x="0px" y="0px"
	 viewBox="0 0 285 123" style="enable-background:new 0 0 285 123;" xml:space="preserve">
<style type="text/css">
	.st0{fill:#676767;}
</style>
<g>
	<g>
		<circle class="st0" cx="103.4" cy="67.1" r="2.8"/>
		<path class="st0" d="M89.4,52.7c0-1.6-1.3-2.8-2.8-2.8c-1.6,0-2.8,1.3-2.8,2.8c0,1.6,1.3,2.8,2.8,2.8
			C88.1,55.6,89.4,54.3,89.4,52.7z"/>
		<path class="st0" d="M63,4.4C31.4,4.4,5.7,30,5.7,61.6c0,31.6,25.6,57.2,57.2,57.2c31.6,0,57.3-25.6,57.3-57.2
			C120.2,30,94.6,4.4,63,4.4z M74.5,106.2H52.2V37L43.9,37l0.1-11.2l10.8-9.6h19.8V106.2z M80.1,52.7c0-3.6,2.9-6.4,6.4-6.4
			c3.6,0,6.4,2.9,6.4,6.4c0,3.5-2.9,6.4-6.4,6.4C83,59.2,80.1,56.3,80.1,52.7z M82.7,73.6l20-27.4h4.7l-20,27.4H82.7z M103.4,73.6
			c-3.6,0-6.4-2.9-6.4-6.4c0-3.6,2.9-6.4,6.4-6.4c3.5,0,6.4,2.9,6.4,6.4C109.8,70.7,106.9,73.6,103.4,73.6z"/>
	</g>
	<g>
		<polygon class="st0" points="131.6,37.2 150.4,37.2 150.4,42.9 138.1,42.9 138.1,46.9 149.2,46.9 149.2,52.3 138.1,52.3 
			138.1,60.7 131.6,60.7 		"/>
		<path class="st0" d="M152.7,49L152.7,49c0-6.8,5.4-12.3,12.7-12.3c7.2,0,12.6,5.4,12.6,12.1v0.1c0,6.7-5.4,12.2-12.7,12.2
			C158,61.1,152.7,55.7,152.7,49z M171.3,49L171.3,49c0-3.5-2.4-6.4-6-6.4c-3.6,0-5.9,2.9-5.9,6.3v0.1c0,3.4,2.4,6.3,6,6.3
			C168.9,55.3,171.3,52.4,171.3,49z"/>
		<path class="st0" d="M181.5,37.2h11.1c3.6,0,6.1,0.9,7.6,2.5c1.4,1.3,2.1,3.2,2.1,5.5v0.1c0,3.6-1.9,6-4.8,7.2l5.6,8.2h-7.5
			l-4.7-7.1h-0.1H188v7.1h-6.5V37.2z M192.3,48.5c2.2,0,3.5-1.1,3.5-2.8v-0.1c0-1.8-1.3-2.8-3.5-2.8H188v5.6H192.3z"/>
		<polygon class="st0" points="217.8,42.9 210.8,42.9 210.8,37.2 231.3,37.2 231.3,42.9 224.3,42.9 224.3,60.7 217.8,60.7 		"/>
		<polygon class="st0" points="234.4,37.2 240.9,37.2 240.9,46 249.2,46 249.2,37.2 255.7,37.2 255.7,60.7 249.2,60.7 249.2,51.8 
			240.9,51.8 240.9,60.7 234.4,60.7 		"/>
		<polygon class="st0" points="260.1,37.2 278.9,37.2 278.9,42.7 266.5,42.7 266.5,46.3 277.8,46.3 277.8,51.4 266.5,51.4 
			266.5,55.1 279.1,55.1 279.1,60.7 260.1,60.7 		"/>
		<path class="st0" d="M131.4,65.4h10.8c6.4,0,10.5,3.3,10.5,8.9v0.1c0,6-4.6,9.1-10.9,9.1h-3.5v7.2h-7V65.4z M141.7,77.9
			c2.5,0,4-1.3,4-3.3v-0.1c0-2.2-1.5-3.3-4-3.3h-3.3v6.7H141.7z"/>
		<polygon class="st0" points="155.7,65.4 162.7,65.4 162.7,84.5 174.9,84.5 174.9,90.6 155.7,90.6 		"/>
		<path class="st0" d="M186.7,65.2h6.8l10.8,25.5h-7.5l-1.8-4.5h-9.7l-1.8,4.5h-7.4L186.7,65.2z M192.8,80.7l-2.8-7.2l-2.9,7.2
			H192.8z"/>
		<polygon class="st0" points="206.6,65.4 213.2,65.4 223.6,78.7 223.6,65.4 230.5,65.4 230.5,90.6 224.4,90.6 213.6,76.8 
			213.6,90.6 206.6,90.6 		"/>
		<polygon class="st0" points="235,65.4 255.3,65.4 255.3,71.3 241.9,71.3 241.9,75.2 254,75.2 254,80.7 241.9,80.7 241.9,84.7 
			255.5,84.7 255.5,90.6 235,90.6 		"/>
		<polygon class="st0" points="265.2,71.5 257.7,71.5 257.7,65.4 279.8,65.4 279.8,71.5 272.2,71.5 272.2,90.6 265.2,90.6 		"/>
		<path class="st0" d="M273.2,90l0.5-0.6c0.3,0.2,0.7,0.4,1,0.4c0.2,0,0.4-0.1,0.4-0.2v0c0-0.1-0.1-0.2-0.5-0.3
			c-0.7-0.2-1.2-0.3-1.2-1v0c0-0.6,0.5-1,1.2-1c0.5,0,1,0.1,1.3,0.4l-0.4,0.6c-0.3-0.2-0.6-0.3-0.9-0.3c-0.2,0-0.3,0.1-0.3,0.2v0
			c0,0.1,0.1,0.2,0.5,0.3c0.7,0.2,1.2,0.4,1.2,1v0c0,0.6-0.5,1-1.3,1C274.1,90.6,273.5,90.4,273.2,90z"/>
		<polygon class="st0" points="276.3,87.4 277.3,87.4 278,88.6 278.8,87.4 279.7,87.4 279.7,90.5 278.8,90.5 278.8,88.7 278,89.9 
			278,89.9 277.2,88.7 277.2,90.5 276.3,90.5 		"/>
	</g>
</g>
</svg>
