<?xml version="1.0" encoding="utf-8"?>
<!-- Generator: Adobe Illustrator 15.1.0, SVG Export Plug-In  -->
<!DOCTYPE svg PUBLIC "-//W3C//DTD SVG 1.1//EN" "http://www.w3.org/Graphics/SVG/1.1/DTD/svg11.dtd" [
	<!ENTITY ns_flows "http://ns.adobe.com/Flows/1.0/">
]>
<svg version="1.1"
	 xmlns="http://www.w3.org/2000/svg" xmlns:xlink="http://www.w3.org/1999/xlink" xmlns:a="http://ns.adobe.com/AdobeSVGViewerExtensions/3.0/"
	 x="0px" y="0px" width="38px" height="38px" viewBox="-0.766 -0.681 38 38"
	 overflow="visible" enable-background="new -0.766 -0.681 38 38" xml:space="preserve">
<defs>
</defs>
<path fill="#231F20" d="M18.438,9.316L7.615,18.221l10.886,8.938l1.266-1.547l-7.799-6.392h17.85v-2H11.949l7.758-6.357
	L18.438,9.316z M0,18.256c0,10.067,8.234,18.256,18.359,18.256c10.124,0,18.36-8.189,18.36-18.256C36.719,8.19,28.482,0,18.359,0
	C8.234,0,0,8.19,0,18.256z M2,18.256C2,9.292,9.338,2,18.359,2c9.022,0,16.36,7.292,16.36,16.256c0,8.963-7.338,16.256-16.36,16.256
	C9.338,34.512,2,27.219,2,18.256z"/>
</svg>
