<?xml version="1.0" encoding="utf-8"?>
<!-- Generator: Adobe Illustrator 15.1.0, SVG Export Plug-In  -->
<!DOCTYPE svg PUBLIC "-//W3C//DTD SVG 1.1//EN" "http://www.w3.org/Graphics/SVG/1.1/DTD/svg11.dtd" [
	<!ENTITY ns_flows "http://ns.adobe.com/Flows/1.0/">
]>
<svg version="1.1"
	 xmlns="http://www.w3.org/2000/svg" xmlns:xlink="http://www.w3.org/1999/xlink" xmlns:a="http://ns.adobe.com/AdobeSVGViewerExtensions/3.0/"
	 x="0px" y="0px" width="38px" height="38px" viewBox="-0.765 -0.681 38 38"
	 overflow="visible" enable-background="new -0.765 -0.681 38 38" xml:space="preserve">
<defs>
</defs>
<path fill="#231F20" d="M17.013,10.863l7.757,6.357H6.901v2H24.75l-7.799,6.392l1.267,1.547l10.886-8.938L18.281,9.316
	L17.013,10.863z M18.36,0C8.236,0,0,8.19,0,18.256c0,10.067,8.236,18.256,18.36,18.256c10.125,0,18.359-8.189,18.359-18.256
	C36.719,8.19,28.485,0,18.36,0z M18.36,34.512C9.339,34.512,2,27.219,2,18.256C2,9.292,9.339,2,18.36,2
	c9.021,0,16.359,7.292,16.359,16.256C34.719,27.219,27.381,34.512,18.36,34.512z"/>
</svg>
