<?xml version="1.0" encoding="utf-8"?>
<!-- Generator: Adobe Illustrator 15.1.0, SVG Export Plug-In  -->
<!DOCTYPE svg PUBLIC "-//W3C//DTD SVG 1.1//EN" "http://www.w3.org/Graphics/SVG/1.1/DTD/svg11.dtd" [
	<!ENTITY ns_flows "http://ns.adobe.com/Flows/1.0/">
]>
<svg version="1.1"
	 xmlns="http://www.w3.org/2000/svg" xmlns:xlink="http://www.w3.org/1999/xlink" xmlns:a="http://ns.adobe.com/AdobeSVGViewerExtensions/3.0/"
	 x="0px" y="0px" width="23px" height="22px" viewBox="-1.453 -0.28 23 22"
	 overflow="visible" enable-background="new -1.453 -0.28 23 22" xml:space="preserve">
<defs>
</defs>
<path fill="#FFFFFF" d="M16.169,16.816c-1.156,0-2.094,0.937-2.094,2.094c0,1.156,0.938,2.094,2.094,2.094
	c1.157,0,2.094-0.938,2.094-2.094C18.263,17.753,17.326,16.816,16.169,16.816z M8.38,16.809c-1.156,0-2.094,0.938-2.094,2.095
	c0,1.155,0.938,2.093,2.094,2.093s2.093-0.938,2.093-2.093C10.473,17.746,9.536,16.809,8.38,16.809z M5.471,4.317L4.92,1.712
	c0,0,0-0.001,0-0.001L4.917,1.697C4.916,1.689,4.913,1.682,4.912,1.675C4.907,1.657,4.902,1.64,4.897,1.622
	C4.894,1.609,4.889,1.598,4.884,1.585S4.875,1.559,4.87,1.546C4.864,1.531,4.856,1.518,4.851,1.503
	C4.845,1.492,4.84,1.482,4.834,1.473C4.827,1.458,4.819,1.443,4.81,1.43C4.804,1.421,4.798,1.411,4.792,1.401
	C4.784,1.389,4.774,1.376,4.765,1.363c-0.007-0.01-0.014-0.02-0.022-0.028C4.734,1.323,4.725,1.313,4.715,1.303
	c-0.009-0.011-0.019-0.021-0.028-0.03C4.677,1.264,4.669,1.255,4.66,1.247C4.648,1.236,4.636,1.227,4.624,1.216
	c-0.009-0.007-0.017-0.014-0.026-0.02c-0.013-0.011-0.026-0.021-0.04-0.029C4.548,1.161,4.539,1.154,4.529,1.148
	C4.516,1.141,4.502,1.132,4.488,1.125C4.476,1.118,4.463,1.113,4.451,1.106C4.438,1.101,4.427,1.095,4.415,1.09
	C4.398,1.083,4.381,1.076,4.364,1.07C4.356,1.068,4.35,1.065,4.342,1.062L4.329,1.059c0,0-0.001,0-0.002-0.001L1.105,0.04
	C0.658-0.102,0.181,0.146,0.04,0.594C-0.102,1.041,0.146,1.519,0.593,1.66l2.764,0.873l2.646,12.535
	c0.001,0.001,0.001,0.004,0.001,0.006v0.001c0.005,0.024,0.012,0.049,0.02,0.073c0.003,0.011,0.007,0.021,0.011,0.032
	c0.005,0.015,0.01,0.029,0.016,0.043c0.004,0.01,0.009,0.019,0.013,0.028c0.007,0.015,0.014,0.029,0.021,0.044
	C6.09,15.304,6.095,15.312,6.1,15.32c0.009,0.016,0.017,0.029,0.027,0.044c0.005,0.008,0.01,0.015,0.015,0.022
	c0.01,0.015,0.021,0.028,0.032,0.042c0.006,0.007,0.011,0.014,0.017,0.02c0.011,0.014,0.023,0.026,0.036,0.04
	c0.005,0.006,0.011,0.012,0.018,0.018c0.013,0.013,0.026,0.024,0.04,0.037c0.006,0.005,0.012,0.01,0.018,0.016
	c0.016,0.013,0.033,0.025,0.05,0.037c0.008,0.005,0.016,0.011,0.023,0.016c0.017,0.011,0.035,0.021,0.052,0.032
	c0.01,0.005,0.021,0.01,0.031,0.016c0.013,0.006,0.025,0.012,0.038,0.018c0.011,0.005,0.022,0.01,0.033,0.014
	c0.014,0.005,0.027,0.01,0.04,0.015c0.011,0.003,0.022,0.007,0.033,0.01c0.016,0.005,0.031,0.009,0.046,0.013
	c0.01,0.002,0.019,0.004,0.029,0.006c0.02,0.004,0.04,0.007,0.06,0.009c0.006,0.001,0.011,0.002,0.018,0.003
	c0.027,0.002,0.054,0.005,0.082,0.005c0.002,0,0.004-0.001,0.006-0.001h11.392c0.469,0,0.849-0.38,0.849-0.85
	c0-0.469-0.38-0.85-0.849-0.85H7.526l-0.328-1.551h11.51c0.571,0,0.616-0.614,0.616-0.614l1.187-5.938L5.471,4.317z"/>
</svg>
