<?xml version="1.0" encoding="utf-8"?>
<!-- Generator: Adobe Illustrator 16.0.4, SVG Export Plug-In . SVG Version: 6.00 Build 0)  -->
<!DOCTYPE svg PUBLIC "-//W3C//DTD SVG 1.1//EN" "http://www.w3.org/Graphics/SVG/1.1/DTD/svg11.dtd" [
  <!ENTITY ns_flows "http://ns.adobe.com/Flows/1.0/">
  <!ENTITY ns_extend "http://ns.adobe.com/Extensibility/1.0/">
  <!ENTITY ns_ai "http://ns.adobe.com/AdobeIllustrator/10.0/">
  <!ENTITY ns_graphs "http://ns.adobe.com/Graphs/1.0/">
]>
<svg version="1.1" id="Layer_1" xmlns:x="&ns_extend;" xmlns:i="&ns_ai;" xmlns:graph="&ns_graphs;"
   xmlns="http://www.w3.org/2000/svg" xmlns:xlink="http://www.w3.org/1999/xlink" xmlns:a="http://ns.adobe.com/AdobeSVGViewerExtensions/3.0/"
   x="0px" y="0px" width="55.8px" height="13px" viewBox="0 0 55.8 13" enable-background="new 0 0 55.8 13" xml:space="preserve">
<path fill="#B3B3B3" d="M55.8,11c0,1.1-0.9,2-2,2H2c-1.1,0-2-0.9-2-2V2c0-1.1,0.9-2,2-2h51.8c1.1,0,2,0.9,2,2V11z"/>
<g>
  <path fill="#FFFFFF" d="M6,7v0.4c0,0.9,0.1,2,1.1,2c0.9,0,1-1.1,1-1.4h1.2c0,1.4-0.9,2.3-2.3,2.3C6,10.3,4.7,10,4.7,7
    c0-1.7,0.4-3.5,2.4-3.5c1.8,0,2.3,1.1,2.3,2.9V7H6z M8.1,6.2V5.8c0-0.8-0.3-1.4-1-1.4C6.2,4.4,6,5.2,6,6v0.1H8.1z"/>
  <path fill="#FFFFFF" d="M12.1,6.8l-1.7-3.1h1.4l1,2.1l1.1-2.1h1.4l-1.7,3.1l1.8,3.3H14l-1.1-2.4l-1.1,2.4h-1.4L12.1,6.8z"/>
  <path fill="#FFFFFF" d="M21,7.8c-0.1,1.5-0.6,2.5-2.2,2.5c-1.9,0-2.4-1.4-2.4-3.4c0-2,0.5-3.4,2.4-3.4C20.7,3.5,21,5,21,5.8h-1.3
    c0-0.6-0.2-1.4-0.9-1.4c-0.9,0-1.1,1-1.1,2.4c0,1.4,0.2,2.4,1.1,2.4c0.7,0,1-0.6,1-1.6H21z"/>
  <path fill="#FFFFFF" d="M22.6,1.5h1.3v8.6h-1.3V1.5z"/>
  <path fill="#FFFFFF" d="M29.2,9.3L29.2,9.3c-0.4,0.6-1,0.9-1.7,0.9c-1,0-1.6-0.4-1.6-2.1V3.6h1.3v4.6c0,0.7,0.3,1,0.9,1
    s1.1-0.4,1.1-1.1V3.6h1.3v6.5h-1.2V9.3z"/>
  <path fill="#FFFFFF" d="M35,5.5V5.4c0-0.5-0.2-1-0.9-1c-0.5,0-0.9,0.2-0.9,0.8c0,0.5,0.2,0.7,0.9,0.9L35,6.4c1,0.3,1.4,0.8,1.4,1.9
    c0,1.4-1,2-2.3,2c-1.6,0-2.1-0.8-2.1-2V8h1.2v0.2c0,0.7,0.3,1.2,1,1.2c0.7,0,1.1-0.4,1.1-0.9c0-0.5-0.3-0.8-0.7-0.9l-1.1-0.4
    c-1-0.3-1.4-0.8-1.4-1.9c0-1.2,0.9-1.8,2.2-1.8c1.6,0,2,1,2,1.8v0.3H35z"/>
  <path fill="#FFFFFF" d="M38,1.4h1.3v1.3H38V1.4z M38,3.6h1.3v6.5H38V3.6z"/>
  <path fill="#FFFFFF" d="M40.7,3.6h1.4l1.1,5.1h0l1-5.1h1.4l-1.7,6.5h-1.5L40.7,3.6z"/>
  <path fill="#FFFFFF" d="M48,7v0.4c0,0.9,0.1,2,1.1,2c0.9,0,1-1.1,1-1.4h1.2c0,1.4-0.9,2.3-2.3,2.3c-1.1,0-2.4-0.3-2.4-3.3
    c0-1.7,0.4-3.5,2.4-3.5c1.8,0,2.3,1.1,2.3,2.9V7H48z M50.1,6.2V5.8c0-0.8-0.3-1.4-1-1.4C48.3,4.4,48,5.2,48,6v0.1H50.1z"/>
</g>
</svg>
