<?xml version="1.0" encoding="utf-8"?>
<!-- Generator: Adobe Illustrator 15.1.0, SVG Export Plug-In  -->
<!DOCTYPE svg PUBLIC "-//W3C//DTD SVG 1.1//EN" "http://www.w3.org/Graphics/SVG/1.1/DTD/svg11.dtd" [
	<!ENTITY ns_flows "http://ns.adobe.com/Flows/1.0/">
]>
<svg version="1.1"
	 xmlns="http://www.w3.org/2000/svg" xmlns:xlink="http://www.w3.org/1999/xlink" xmlns:a="http://ns.adobe.com/AdobeSVGViewerExtensions/3.0/"
	 x="0px" y="0px" width="100px" height="67px" viewBox="0 -20.955 100 67"
	 overflow="visible" enable-background="new 0 -20.955 100 67" xml:space="preserve">
<defs>
</defs>
<path fill="#231F20" d="M45.359,6.791c0.387-0.176,0.715-0.42,0.975-0.729c0.261-0.309,0.455-0.675,0.586-1.101
	c0.127-0.425,0.189-0.888,0.189-1.389c0-0.574-0.078-1.073-0.233-1.498c-0.159-0.426-0.376-0.777-0.658-1.062
	c-0.278-0.282-0.612-0.494-0.994-0.636c-0.385-0.142-0.796-0.212-1.24-0.212h-2.975v6.892h2.975
	C44.509,7.057,44.969,6.968,45.359,6.791z M42.525,5.784V1.438h1.081c0.371,0,0.686,0.055,0.94,0.16
	c0.254,0.105,0.46,0.257,0.614,0.457c0.155,0.199,0.266,0.439,0.333,0.721c0.068,0.279,0.101,0.594,0.101,0.94
	c0,0.379-0.049,0.701-0.144,0.964c-0.098,0.266-0.225,0.48-0.387,0.644c-0.16,0.164-0.342,0.283-0.551,0.351
	c-0.205,0.073-0.417,0.109-0.637,0.109H42.525z M60.155,4.364h1.515c0.379,0,0.652,0.084,0.82,0.249
	c0.168,0.168,0.276,0.434,0.328,0.792c0.038,0.278,0.068,0.568,0.087,0.871c0.021,0.301,0.07,0.561,0.154,0.78h1.517
	c-0.072-0.095-0.127-0.214-0.159-0.352c-0.035-0.139-0.062-0.285-0.079-0.439c-0.016-0.154-0.027-0.306-0.032-0.455
	c-0.005-0.146-0.014-0.276-0.021-0.385c-0.011-0.173-0.035-0.349-0.073-0.521c-0.035-0.175-0.09-0.333-0.165-0.478
	c-0.079-0.144-0.177-0.271-0.301-0.377c-0.122-0.105-0.276-0.184-0.461-0.235V3.794c0.382-0.154,0.661-0.379,0.832-0.675
	s0.257-0.647,0.257-1.054c0-0.263-0.046-0.511-0.141-0.738s-0.228-0.429-0.406-0.604c-0.176-0.174-0.388-0.309-0.637-0.409
	s-0.525-0.149-0.832-0.149h-3.719v6.892h1.517V4.364z M60.155,1.341h1.658c0.35,0,0.609,0.076,0.786,0.228
	c0.173,0.151,0.257,0.396,0.257,0.729c0,0.347-0.084,0.599-0.257,0.753c-0.177,0.155-0.437,0.233-0.786,0.233h-1.658V1.341z
	 M33.343,2.443h0.021l2.867,4.613h1.517V0.165h-1.419v4.623h-0.02l-2.876-4.623h-1.508v6.892h1.418V2.443z M51.436,5.522h2.579
	l0.52,1.534h1.574l-2.576-6.892h-1.558l-2.604,6.892h1.522L51.436,5.522z M52.73,1.864h0.019l0.87,2.529h-1.788L52.73,1.864z
	 M71.888,6.791c0.391-0.176,0.713-0.42,0.976-0.729c0.26-0.309,0.455-0.675,0.582-1.101c0.133-0.425,0.195-0.888,0.195-1.389
	c0-0.574-0.078-1.073-0.235-1.498c-0.157-0.426-0.377-0.777-0.658-1.062c-0.282-0.282-0.61-0.494-0.995-0.636
	c-0.384-0.142-0.796-0.212-1.24-0.212H67.54v6.892h2.972C71.04,7.057,71.498,6.968,71.888,6.791z M69.055,5.784V1.438h1.08
	c0.371,0,0.688,0.055,0.943,0.16c0.252,0.105,0.458,0.257,0.612,0.457c0.157,0.199,0.266,0.439,0.333,0.721
	c0.067,0.279,0.101,0.594,0.101,0.94c0,0.379-0.046,0.701-0.144,0.964c-0.098,0.266-0.225,0.48-0.388,0.644
	c-0.157,0.164-0.344,0.283-0.55,0.351c-0.206,0.073-0.414,0.109-0.637,0.109H69.055z M47.87,23.85
	c-0.016-0.154-0.029-0.306-0.035-0.452c-0.008-0.149-0.013-0.279-0.019-0.388c-0.014-0.173-0.035-0.35-0.073-0.521
	c-0.035-0.176-0.092-0.333-0.168-0.479c-0.076-0.145-0.176-0.271-0.301-0.377c-0.122-0.105-0.276-0.185-0.46-0.235v-0.02
	c0.385-0.154,0.663-0.382,0.831-0.675c0.171-0.298,0.257-0.649,0.257-1.056c0-0.263-0.045-0.507-0.138-0.737
	c-0.095-0.228-0.23-0.428-0.406-0.604c-0.179-0.174-0.393-0.31-0.64-0.409c-0.246-0.101-0.522-0.149-0.834-0.149h-3.717v6.892h1.518
	v-2.692h1.514c0.382,0,0.656,0.084,0.821,0.249c0.168,0.168,0.276,0.434,0.327,0.794c0.041,0.276,0.068,0.566,0.087,0.869
	c0.019,0.301,0.073,0.563,0.157,0.78h1.512c-0.068-0.095-0.122-0.214-0.157-0.353C47.911,24.15,47.884,24.004,47.87,23.85z
	 M46.129,20.634c-0.177,0.154-0.437,0.233-0.786,0.233h-1.657v-1.942h1.657c0.35,0,0.609,0.078,0.786,0.228
	c0.17,0.151,0.26,0.396,0.26,0.729C46.389,20.228,46.299,20.479,46.129,20.634z M52.587,21.677h3.337v-1.176h-3.337v-1.479h3.638
	v-1.273H51.07v6.892h5.23v-1.273h-3.714V21.677z M35.507,17.749L32.9,24.641h1.525l0.542-1.536h2.576l0.522,1.536h1.571
	l-2.576-6.892H35.507z M35.363,21.978l0.896-2.53h0.02l0.869,2.53H35.363z M64.956,23.85c-0.017-0.154-0.027-0.306-0.032-0.452
	c-0.009-0.149-0.014-0.279-0.022-0.388c-0.011-0.173-0.035-0.35-0.067-0.521c-0.038-0.176-0.095-0.333-0.174-0.479
	c-0.075-0.145-0.173-0.271-0.295-0.377c-0.125-0.105-0.279-0.185-0.466-0.235v-0.02c0.385-0.154,0.663-0.382,0.834-0.675
	c0.171-0.298,0.258-0.649,0.258-1.056c0-0.263-0.049-0.507-0.139-0.737c-0.095-0.228-0.229-0.428-0.406-0.604
	c-0.179-0.174-0.393-0.31-0.64-0.409c-0.249-0.101-0.522-0.149-0.834-0.149h-3.717v6.892h1.518v-2.692h1.512
	c0.382,0,0.652,0.084,0.823,0.249c0.168,0.168,0.276,0.434,0.327,0.794c0.041,0.276,0.068,0.566,0.087,0.869
	c0.02,0.301,0.073,0.563,0.157,0.78h1.512c-0.067-0.095-0.122-0.214-0.157-0.353C64.999,24.15,64.973,24.004,64.956,23.85z
	 M63.211,20.634c-0.17,0.154-0.431,0.233-0.779,0.233h-1.658v-1.942h1.658c0.349,0,0.609,0.078,0.779,0.228
	c0.176,0.151,0.266,0.396,0.266,0.729C63.477,20.228,63.387,20.479,63.211,20.634z M0,11.508v1.831h82.206v-1.831H0z M26.955,21.677
	h3.339v-1.176h-3.339v-1.479h3.637v-1.273h-5.153v6.892h5.232v-1.273h-3.716V21.677z M24.725,5.522h2.576l0.521,1.534h1.572
	l-2.576-6.892h-1.554l-2.607,6.892h1.527L24.725,5.522z M26.017,1.864h0.021l0.868,2.529H25.12L26.017,1.864z M11.671,5.878
	c-0.134,0.066-0.282,0.109-0.435,0.133c-0.153,0.022-0.298,0.033-0.435,0.033c-0.199,0-0.393-0.024-0.58-0.073
	c-0.184-0.049-0.348-0.122-0.486-0.223c-0.138-0.099-0.25-0.229-0.333-0.39C9.318,5.196,9.276,5.001,9.276,4.77H7.81
	C7.803,5.196,7.879,5.562,8.042,5.87c0.161,0.309,0.376,0.563,0.651,0.762c0.274,0.2,0.588,0.347,0.946,0.441
	c0.357,0.092,0.726,0.138,1.105,0.138c0.47,0,0.884-0.054,1.241-0.162c0.357-0.111,0.658-0.263,0.898-0.461
	c0.241-0.194,0.424-0.431,0.546-0.698c0.122-0.271,0.184-0.563,0.184-0.878c0-0.388-0.084-0.704-0.247-0.952
	c-0.164-0.248-0.359-0.445-0.583-0.592c-0.228-0.149-0.454-0.258-0.68-0.325c-0.23-0.067-0.408-0.114-0.538-0.14
	c-0.431-0.109-0.781-0.2-1.048-0.27C10.25,2.66,10.042,2.591,9.89,2.52c-0.15-0.07-0.254-0.149-0.305-0.23
	c-0.051-0.085-0.077-0.195-0.077-0.33c0-0.146,0.033-0.271,0.096-0.366c0.065-0.096,0.147-0.176,0.248-0.241
	c0.098-0.064,0.211-0.109,0.333-0.136c0.122-0.025,0.244-0.037,0.366-0.037c0.184,0,0.359,0.016,0.515,0.046
	c0.16,0.034,0.298,0.088,0.422,0.165c0.121,0.078,0.22,0.185,0.294,0.319c0.072,0.136,0.118,0.306,0.129,0.513h1.467
	c0-0.401-0.074-0.74-0.225-1.019C13.001,0.921,12.8,0.692,12.54,0.512c-0.258-0.18-0.55-0.31-0.883-0.39
	C11.323,0.041,10.979,0,10.618,0C10.312,0,10,0.042,9.692,0.125c-0.31,0.084-0.588,0.212-0.83,0.387
	C8.617,0.686,8.418,0.902,8.268,1.163C8.116,1.425,8.042,1.731,8.042,2.086c0,0.315,0.06,0.584,0.177,0.806
	c0.119,0.221,0.276,0.405,0.469,0.555c0.193,0.148,0.412,0.268,0.657,0.362C9.588,3.902,9.84,3.98,10.098,4.045
	c0.25,0.07,0.5,0.135,0.742,0.193c0.245,0.058,0.463,0.126,0.658,0.202c0.193,0.078,0.348,0.173,0.467,0.289
	c0.121,0.117,0.179,0.269,0.179,0.455c0,0.174-0.044,0.317-0.135,0.43C11.919,5.727,11.807,5.813,11.671,5.878z M17.966,7.057h1.517
	V1.438h2.064V0.165h-5.648v1.273h2.067V7.057z M21.218,20.896c0.31-0.148,0.543-0.338,0.7-0.571c0.16-0.23,0.237-0.52,0.237-0.867
	c0-0.322-0.052-0.593-0.16-0.812c-0.104-0.217-0.255-0.393-0.448-0.525s-0.424-0.228-0.696-0.287
	c-0.268-0.054-0.569-0.084-0.896-0.084H16.71v6.892h3.34c0.31,0,0.611-0.038,0.903-0.114c0.292-0.078,0.553-0.197,0.783-0.357
	c0.227-0.162,0.409-0.368,0.545-0.623c0.135-0.254,0.2-0.555,0.2-0.904c0-0.428-0.103-0.799-0.312-1.103
	C21.96,21.232,21.645,21.017,21.218,20.896z M18.226,18.925h1.421c0.134,0,0.264,0.014,0.39,0.035
	c0.125,0.021,0.236,0.062,0.333,0.119c0.095,0.06,0.173,0.139,0.23,0.244c0.058,0.103,0.086,0.235,0.086,0.396
	c0,0.29-0.086,0.498-0.259,0.628c-0.174,0.128-0.396,0.192-0.667,0.192h-1.535V18.925z M20.876,23.002
	c-0.064,0.113-0.144,0.206-0.245,0.273c-0.104,0.067-0.222,0.116-0.359,0.144c-0.136,0.029-0.276,0.046-0.424,0.046h-1.623v-1.894
	h1.651c0.329,0,0.593,0.076,0.791,0.228c0.2,0.151,0.299,0.403,0.299,0.756C20.967,22.736,20.938,22.886,20.876,23.002z"/>
</svg>
