<?xml version="1.0" encoding="utf-8"?>
<!-- Generator: Adobe Illustrator 15.1.0, SVG Export Plug-In  -->
<!DOCTYPE svg PUBLIC "-//W3C//DTD SVG 1.1//EN" "http://www.w3.org/Graphics/SVG/1.1/DTD/svg11.dtd" [
	<!ENTITY ns_flows "http://ns.adobe.com/Flows/1.0/">
]>
<svg version="1.1"
	 xmlns="http://www.w3.org/2000/svg" xmlns:xlink="http://www.w3.org/1999/xlink" xmlns:a="http://ns.adobe.com/AdobeSVGViewerExtensions/3.0/"
	 x="0px" y="0px" width="80px" height="53px" viewBox="-21.019 -6.907 80 53"
	 overflow="visible" enable-background="new -21.019 -6.907 80 53" xml:space="preserve">
<defs>
</defs>
<path d="M8.795,27.398v-0.861H5.525v4.654h1.023v-1.924h1.948v-0.794H6.548v-1.075H8.795z M9.372,38.476
	C9.361,38.371,9.354,38.27,9.35,38.17c-0.004-0.101-0.009-0.188-0.015-0.261c-0.008-0.118-0.024-0.235-0.048-0.354
	c-0.023-0.116-0.062-0.225-0.113-0.322c-0.052-0.097-0.12-0.184-0.203-0.254c-0.083-0.073-0.187-0.125-0.313-0.161v-0.013
	c0.261-0.104,0.448-0.257,0.564-0.455c0.115-0.2,0.172-0.438,0.172-0.711c0-0.179-0.031-0.345-0.094-0.499s-0.154-0.29-0.273-0.406
	c-0.12-0.117-0.263-0.21-0.431-0.278c-0.167-0.066-0.355-0.101-0.563-0.101H5.525v4.652h1.023v-1.818h1.023
	c0.256,0,0.441,0.057,0.554,0.17s0.187,0.291,0.222,0.534c0.026,0.187,0.046,0.382,0.059,0.587c0.013,0.204,0.047,0.38,0.104,0.527
	h1.024c-0.049-0.065-0.084-0.145-0.108-0.238C9.4,38.679,9.383,38.58,9.372,38.476z M8.196,36.305
	c-0.117,0.105-0.293,0.157-0.527,0.157H6.548v-1.311h1.121c0.234,0,0.409,0.052,0.526,0.153c0.118,0.104,0.177,0.266,0.177,0.492
	C8.372,36.031,8.313,36.201,8.196,36.305z M14.738,23.37v-4.652h-1.021v1.786h-1.884v-1.786H10.81v4.652h1.022v-2.007h1.884v2.007
	H14.738z M24.487,31.191h1.023v-4.654h-1.023V31.191z M25.072,22.117h1.338V0H0v39.186h1.34V1.34h23.731V22.117z M6.554,23.37h1.023
	v-3.792h1.394v-0.86H5.16v0.86h1.395L6.554,23.37L6.554,23.37z M20.421,19.578v-0.86h-3.48v4.652h3.531v-0.86h-2.509v-1.14h2.255
	v-0.795h-2.255v-0.997H20.421z M26.82,37.557h-0.013l-1.088-3.199h-1.44v4.653h0.957v-3.265h0.014l1.141,3.265h0.789l1.14-3.298
	h0.014v3.298h0.958v-4.653h-1.44L26.82,37.557z M11.714,26.537h-1.022v4.654h1.022V26.537z M18.837,27.398h1.395v3.793h1.023v-3.793
	h1.395v-0.861h-3.812V27.398z M36.007,28.675v0.762h1.029c-0.03,0.325-0.137,0.575-0.322,0.747
	c-0.185,0.172-0.447,0.258-0.785,0.258c-0.229,0-0.426-0.045-0.586-0.134c-0.161-0.089-0.291-0.208-0.392-0.354
	c-0.1-0.148-0.172-0.315-0.218-0.499c-0.046-0.185-0.068-0.374-0.068-0.57c0-0.204,0.022-0.401,0.068-0.594
	c0.046-0.19,0.118-0.36,0.218-0.511c0.101-0.15,0.23-0.27,0.392-0.358c0.16-0.088,0.356-0.135,0.586-0.135
	c0.246,0,0.458,0.067,0.631,0.198c0.174,0.13,0.291,0.324,0.354,0.585h0.977c-0.026-0.265-0.098-0.499-0.215-0.703
	c-0.119-0.204-0.268-0.376-0.447-0.515s-0.383-0.245-0.605-0.315c-0.224-0.073-0.455-0.108-0.693-0.108
	c-0.356,0-0.678,0.062-0.961,0.189c-0.285,0.125-0.524,0.299-0.721,0.521c-0.195,0.223-0.346,0.481-0.449,0.778
	c-0.105,0.297-0.157,0.621-0.157,0.968c0,0.339,0.052,0.656,0.157,0.948c0.104,0.293,0.254,0.549,0.449,0.766
	c0.195,0.218,0.436,0.388,0.721,0.512c0.283,0.124,0.604,0.187,0.961,0.187c0.226,0,0.449-0.047,0.672-0.141
	c0.221-0.093,0.423-0.257,0.605-0.491l0.104,0.527h0.652v-2.516L36.007,28.675L36.007,28.675z M30.683,29.659h-0.014l-1.941-3.122
	h-1.017v4.652h0.957v-3.115h0.015l1.936,3.115h1.022v-4.652h-0.958V29.659z M15.298,34.956c-0.195-0.222-0.434-0.395-0.717-0.521
	c-0.282-0.127-0.604-0.19-0.963-0.19c-0.357,0-0.678,0.063-0.961,0.19c-0.285,0.126-0.525,0.299-0.721,0.521
	c-0.196,0.222-0.346,0.482-0.449,0.779c-0.105,0.298-0.156,0.62-0.156,0.968c0,0.338,0.053,0.656,0.156,0.949
	c0.104,0.291,0.254,0.547,0.449,0.766c0.195,0.216,0.436,0.387,0.721,0.51c0.283,0.123,0.604,0.188,0.961,0.188
	c0.359,0,0.681-0.064,0.963-0.188s0.521-0.294,0.717-0.51c0.195-0.219,0.347-0.475,0.45-0.766c0.104-0.293,0.155-0.611,0.155-0.949
	c0-0.348-0.051-0.67-0.155-0.968C15.645,35.438,15.494,35.178,15.298,34.956z M14.813,37.273c-0.045,0.186-0.118,0.351-0.218,0.498
	c-0.1,0.148-0.229,0.267-0.391,0.355c-0.16,0.09-0.355,0.134-0.586,0.134s-0.426-0.044-0.587-0.134
	c-0.16-0.089-0.292-0.207-0.392-0.355c-0.1-0.147-0.172-0.312-0.218-0.498c-0.045-0.185-0.067-0.374-0.067-0.57
	c0-0.203,0.022-0.401,0.067-0.592c0.046-0.192,0.119-0.363,0.218-0.513c0.1-0.149,0.231-0.268,0.392-0.357
	c0.161-0.089,0.356-0.134,0.587-0.134s0.426,0.045,0.586,0.134c0.161,0.09,0.291,0.208,0.391,0.357
	c0.101,0.149,0.173,0.321,0.218,0.513c0.046,0.19,0.069,0.387,0.069,0.592C14.882,36.899,14.859,37.089,14.813,37.273z
	 M13.552,27.398h1.395v3.793h1.023v-3.793h1.394v-0.861h-3.812V27.398z M21.672,34.956c-0.196-0.222-0.435-0.395-0.718-0.521
	c-0.281-0.127-0.604-0.19-0.963-0.19c-0.357,0-0.678,0.063-0.961,0.19c-0.285,0.126-0.524,0.299-0.721,0.521
	c-0.195,0.222-0.346,0.482-0.449,0.779c-0.105,0.298-0.156,0.62-0.156,0.968c0,0.338,0.051,0.656,0.156,0.949
	c0.104,0.291,0.254,0.547,0.449,0.766c0.195,0.216,0.436,0.387,0.721,0.51c0.284,0.123,0.604,0.188,0.961,0.188
	c0.359,0,0.682-0.064,0.963-0.188c0.283-0.123,0.521-0.294,0.718-0.51c0.196-0.219,0.345-0.475,0.45-0.766
	c0.104-0.293,0.156-0.611,0.156-0.949c0-0.348-0.052-0.67-0.156-0.968C22.017,35.438,21.869,35.178,21.672,34.956z M21.187,37.273
	c-0.046,0.186-0.119,0.351-0.218,0.498c-0.101,0.148-0.231,0.267-0.392,0.355c-0.16,0.09-0.356,0.134-0.586,0.134
	c-0.231,0-0.426-0.044-0.586-0.134c-0.162-0.089-0.292-0.207-0.393-0.355c-0.1-0.147-0.172-0.312-0.217-0.498
	c-0.047-0.185-0.068-0.374-0.068-0.57c0-0.203,0.022-0.401,0.068-0.592c0.045-0.192,0.117-0.363,0.217-0.513
	c0.102-0.149,0.231-0.268,0.393-0.357c0.16-0.089,0.356-0.134,0.586-0.134s0.426,0.045,0.586,0.134
	c0.161,0.09,0.291,0.208,0.392,0.357c0.099,0.149,0.172,0.321,0.218,0.513c0.046,0.19,0.068,0.387,0.068,0.592
	C21.255,36.899,21.232,37.089,21.187,37.273z"/>
<path d="M8.795,27.398v-0.861H5.525v4.654h1.023v-1.924h1.948v-0.794H6.548v-1.075H8.795z M9.372,38.476
	C9.361,38.371,9.354,38.27,9.35,38.17c-0.004-0.101-0.009-0.188-0.015-0.261c-0.008-0.118-0.024-0.235-0.048-0.354
	c-0.023-0.116-0.062-0.225-0.113-0.322c-0.052-0.097-0.12-0.184-0.203-0.254c-0.083-0.073-0.187-0.125-0.313-0.161v-0.013
	c0.261-0.104,0.448-0.257,0.564-0.455c0.115-0.2,0.172-0.438,0.172-0.711c0-0.179-0.031-0.345-0.094-0.499s-0.154-0.29-0.273-0.406
	c-0.12-0.117-0.263-0.21-0.431-0.278c-0.167-0.066-0.355-0.101-0.563-0.101H5.525v4.652h1.023v-1.818h1.023
	c0.256,0,0.441,0.057,0.554,0.17s0.187,0.291,0.222,0.534c0.026,0.187,0.046,0.382,0.059,0.587c0.013,0.204,0.047,0.38,0.104,0.527
	h1.024c-0.049-0.065-0.084-0.145-0.108-0.238C9.4,38.679,9.383,38.58,9.372,38.476z M8.196,36.305
	c-0.117,0.105-0.293,0.157-0.527,0.157H6.548v-1.311h1.121c0.234,0,0.409,0.052,0.526,0.153c0.118,0.104,0.177,0.266,0.177,0.492
	C8.372,36.031,8.313,36.201,8.196,36.305z M14.738,23.37v-4.652h-1.021v1.786h-1.884v-1.786H10.81v4.652h1.022v-2.007h1.884v2.007
	H14.738z M24.487,31.191h1.023v-4.654h-1.023V31.191z M25.072,22.117h1.338V0H0v39.186h1.34V1.34h23.731V22.117z M6.554,23.37h1.023
	v-3.792h1.394v-0.86H5.16v0.86h1.395L6.554,23.37L6.554,23.37z M20.421,19.578v-0.86h-3.48v4.652h3.531v-0.86h-2.509v-1.14h2.255
	v-0.795h-2.255v-0.997H20.421z M26.82,37.557h-0.013l-1.088-3.199h-1.44v4.653h0.957v-3.265h0.014l1.141,3.265h0.789l1.14-3.298
	h0.014v3.298h0.958v-4.653h-1.44L26.82,37.557z M11.714,26.537h-1.022v4.654h1.022V26.537z M18.837,27.398h1.395v3.793h1.023v-3.793
	h1.395v-0.861h-3.812V27.398z M36.007,28.675v0.762h1.029c-0.03,0.325-0.137,0.575-0.322,0.747
	c-0.185,0.172-0.447,0.258-0.785,0.258c-0.229,0-0.426-0.045-0.586-0.134c-0.161-0.089-0.291-0.208-0.392-0.354
	c-0.1-0.148-0.172-0.315-0.218-0.499c-0.046-0.185-0.068-0.374-0.068-0.57c0-0.204,0.022-0.401,0.068-0.594
	c0.046-0.19,0.118-0.36,0.218-0.511c0.101-0.15,0.23-0.27,0.392-0.358c0.16-0.088,0.356-0.135,0.586-0.135
	c0.246,0,0.458,0.067,0.631,0.198c0.174,0.13,0.291,0.324,0.354,0.585h0.977c-0.026-0.265-0.098-0.499-0.215-0.703
	c-0.119-0.204-0.268-0.376-0.447-0.515s-0.383-0.245-0.605-0.315c-0.224-0.073-0.455-0.108-0.693-0.108
	c-0.356,0-0.678,0.062-0.961,0.189c-0.285,0.125-0.524,0.299-0.721,0.521c-0.195,0.223-0.346,0.481-0.449,0.778
	c-0.105,0.297-0.157,0.621-0.157,0.968c0,0.339,0.052,0.656,0.157,0.948c0.104,0.293,0.254,0.549,0.449,0.766
	c0.195,0.218,0.436,0.388,0.721,0.512c0.283,0.124,0.604,0.187,0.961,0.187c0.226,0,0.449-0.047,0.672-0.141
	c0.221-0.093,0.423-0.257,0.605-0.491l0.104,0.527h0.652v-2.516L36.007,28.675L36.007,28.675z M30.683,29.659h-0.014l-1.941-3.122
	h-1.017v4.652h0.957v-3.115h0.015l1.936,3.115h1.022v-4.652h-0.958V29.659z M15.298,34.956c-0.195-0.222-0.434-0.395-0.717-0.521
	c-0.282-0.127-0.604-0.19-0.963-0.19c-0.357,0-0.678,0.063-0.961,0.19c-0.285,0.126-0.525,0.299-0.721,0.521
	c-0.196,0.222-0.346,0.482-0.449,0.779c-0.105,0.298-0.156,0.62-0.156,0.968c0,0.338,0.053,0.656,0.156,0.949
	c0.104,0.291,0.254,0.547,0.449,0.766c0.195,0.216,0.436,0.387,0.721,0.51c0.283,0.123,0.604,0.188,0.961,0.188
	c0.359,0,0.681-0.064,0.963-0.188s0.521-0.294,0.717-0.51c0.195-0.219,0.347-0.475,0.45-0.766c0.104-0.293,0.155-0.611,0.155-0.949
	c0-0.348-0.051-0.67-0.155-0.968C15.645,35.438,15.494,35.178,15.298,34.956z M14.813,37.273c-0.045,0.186-0.118,0.351-0.218,0.498
	c-0.1,0.148-0.229,0.267-0.391,0.355c-0.16,0.09-0.355,0.134-0.586,0.134s-0.426-0.044-0.587-0.134
	c-0.16-0.089-0.292-0.207-0.392-0.355c-0.1-0.147-0.172-0.312-0.218-0.498c-0.045-0.185-0.067-0.374-0.067-0.57
	c0-0.203,0.022-0.401,0.067-0.592c0.046-0.192,0.119-0.363,0.218-0.513c0.1-0.149,0.231-0.268,0.392-0.357
	c0.161-0.089,0.356-0.134,0.587-0.134s0.426,0.045,0.586,0.134c0.161,0.09,0.291,0.208,0.391,0.357
	c0.101,0.149,0.173,0.321,0.218,0.513c0.046,0.19,0.069,0.387,0.069,0.592C14.882,36.899,14.859,37.089,14.813,37.273z
	 M13.552,27.398h1.395v3.793h1.023v-3.793h1.394v-0.861h-3.812V27.398z M21.672,34.956c-0.196-0.222-0.435-0.395-0.718-0.521
	c-0.281-0.127-0.604-0.19-0.963-0.19c-0.357,0-0.678,0.063-0.961,0.19c-0.285,0.126-0.524,0.299-0.721,0.521
	c-0.195,0.222-0.346,0.482-0.449,0.779c-0.105,0.298-0.156,0.62-0.156,0.968c0,0.338,0.051,0.656,0.156,0.949
	c0.104,0.291,0.254,0.547,0.449,0.766c0.195,0.216,0.436,0.387,0.721,0.51c0.284,0.123,0.604,0.188,0.961,0.188
	c0.359,0,0.682-0.064,0.963-0.188c0.283-0.123,0.521-0.294,0.718-0.51c0.196-0.219,0.345-0.475,0.45-0.766
	c0.104-0.293,0.156-0.611,0.156-0.949c0-0.348-0.052-0.67-0.156-0.968C22.017,35.438,21.869,35.178,21.672,34.956z M21.187,37.273
	c-0.046,0.186-0.119,0.351-0.218,0.498c-0.101,0.148-0.231,0.267-0.392,0.355c-0.16,0.09-0.356,0.134-0.586,0.134
	c-0.231,0-0.426-0.044-0.586-0.134c-0.162-0.089-0.292-0.207-0.393-0.355c-0.1-0.147-0.172-0.312-0.217-0.498
	c-0.047-0.185-0.068-0.374-0.068-0.57c0-0.203,0.022-0.401,0.068-0.592c0.045-0.192,0.117-0.363,0.217-0.513
	c0.102-0.149,0.231-0.268,0.393-0.357c0.16-0.089,0.356-0.134,0.586-0.134s0.426,0.045,0.586,0.134
	c0.161,0.09,0.291,0.208,0.392,0.357c0.099,0.149,0.172,0.321,0.218,0.513c0.046,0.19,0.068,0.387,0.068,0.592
	C21.255,36.899,21.232,37.089,21.187,37.273z"/>
</svg>
