<?xml version="1.0" encoding="utf-8"?>
<!-- Generator: Adobe Illustrator 15.1.0, SVG Export Plug-In  -->
<!DOCTYPE svg PUBLIC "-//W3C//DTD SVG 1.1//EN" "http://www.w3.org/Graphics/SVG/1.1/DTD/svg11.dtd" [
	<!ENTITY ns_flows "http://ns.adobe.com/Flows/1.0/">
]>
<svg version="1.1"
	 xmlns="http://www.w3.org/2000/svg" xmlns:xlink="http://www.w3.org/1999/xlink" xmlns:a="http://ns.adobe.com/AdobeSVGViewerExtensions/3.0/"
	 x="0px" y="0px" width="100px" height="67px" viewBox="0 -7.896 100 67"
	 overflow="visible" enable-background="new 0 -7.896 100 67" xml:space="preserve">
<defs>
</defs>
<path fill="#010101" d="M2.687,15.221h1.57c0.427,0,0.787-0.061,1.081-0.185c0.299-0.125,0.54-0.287,0.729-0.49
	c0.191-0.205,0.326-0.438,0.413-0.699c0.086-0.263,0.127-0.531,0.127-0.803c0-0.279-0.043-0.549-0.127-0.81
	c-0.087-0.257-0.222-0.49-0.411-0.692c-0.188-0.205-0.431-0.367-0.729-0.492c-0.297-0.121-0.659-0.185-1.083-0.185H1.196v6.792h1.49
	V15.221L2.687,15.221z M2.687,12.025h1.162c0.172,0,0.337,0.013,0.497,0.038c0.155,0.027,0.295,0.074,0.415,0.146
	c0.123,0.074,0.219,0.178,0.291,0.312c0.071,0.132,0.111,0.307,0.111,0.522c0,0.214-0.038,0.389-0.11,0.521
	c-0.073,0.134-0.169,0.238-0.291,0.311c-0.119,0.072-0.259,0.121-0.416,0.146c-0.16,0.026-0.325,0.04-0.493,0.04v-0.002H2.687
	V12.025z M10.592,10.865l-2.567,6.792h1.5l0.534-1.513h2.539l0.516,1.513h1.551l-2.541-6.792H10.592z M10.446,15.03l0.887-2.492
	h0.018l0.859,2.492H10.446z M22.553,13.774c0.169-0.291,0.253-0.637,0.253-1.037c0-0.26-0.048-0.503-0.138-0.727
	c-0.094-0.224-0.226-0.424-0.402-0.594c-0.176-0.174-0.385-0.306-0.629-0.404c-0.243-0.098-0.519-0.147-0.821-0.147v0.003h-3.664
	v6.789h1.494v-2.652h1.495c0.373,0,0.642,0.082,0.81,0.246c0.162,0.164,0.271,0.425,0.322,0.777
	c0.035,0.277,0.065,0.559,0.087,0.857c0.02,0.299,0.069,0.555,0.152,0.771h1.492c-0.068-0.096-0.122-0.212-0.154-0.346
	c-0.036-0.137-0.061-0.281-0.079-0.434c-0.015-0.154-0.025-0.301-0.029-0.449c-0.008-0.146-0.016-0.271-0.023-0.381
	c-0.01-0.17-0.036-0.34-0.072-0.513c-0.031-0.171-0.088-0.33-0.162-0.47c-0.08-0.144-0.179-0.268-0.297-0.371
	c-0.12-0.105-0.275-0.184-0.459-0.232v-0.02C22.108,14.29,22.386,14.069,22.553,13.774z M21.051,13.708
	c-0.167,0.153-0.424,0.229-0.77,0.229v0.002h-1.632v-1.913h1.632c0.344,0,0.603,0.077,0.77,0.224
	c0.175,0.149,0.258,0.389,0.258,0.717C21.309,13.31,21.226,13.557,21.051,13.708z M25.922,10.865v6.792h1.494v-2.189l0.856-0.863
	l2.046,3.053h1.873l-2.91-4.109l2.652-2.683h-1.862l-2.655,2.817v-2.817H25.922z M34.693,10.865v6.792h1.492v-6.792H34.693z
	 M40.8,13.106h0.019l2.824,4.548h1.496v-6.789h-1.4v4.557h-0.02l-2.833-4.557h-1.484v6.792h1.396v-4.551H40.8z M49.969,12.678
	c0.146-0.218,0.334-0.394,0.571-0.523c0.234-0.13,0.52-0.195,0.854-0.195c0.363,0,0.671,0.094,0.924,0.284
	c0.253,0.191,0.423,0.475,0.514,0.855h1.429c-0.039-0.387-0.145-0.729-0.316-1.025c-0.172-0.298-0.389-0.549-0.649-0.754
	c-0.266-0.203-0.561-0.355-0.886-0.461c-0.329-0.103-0.665-0.154-1.015-0.154c-0.521,0-0.988,0.091-1.404,0.275
	c-0.413,0.184-0.766,0.438-1.048,0.761c-0.285,0.323-0.505,0.702-0.66,1.138c-0.151,0.435-0.225,0.905-0.225,1.412
	c0,0.496,0.073,0.955,0.225,1.386c0.155,0.428,0.375,0.8,0.66,1.118c0.282,0.318,0.635,0.566,1.048,0.744
	c0.416,0.184,0.884,0.273,1.404,0.273c0.33,0,0.656-0.068,0.98-0.205c0.323-0.137,0.617-0.377,0.885-0.717l0.154,0.771h0.948v-3.675
	h-2.851v1.112h1.502c-0.042,0.477-0.199,0.837-0.47,1.088c-0.27,0.252-0.648,0.377-1.147,0.377c-0.333,0-0.62-0.064-0.854-0.197
	c-0.236-0.127-0.425-0.301-0.57-0.517c-0.146-0.217-0.254-0.46-0.319-0.729c-0.066-0.269-0.1-0.545-0.1-0.83
	c0-0.297,0.033-0.585,0.1-0.867C49.716,13.145,49.822,12.896,49.969,12.678z M4.571,27.366c-0.133,0.064-0.278,0.105-0.429,0.129
	c-0.153,0.021-0.294,0.031-0.428,0.031c-0.196,0-0.387-0.023-0.571-0.07c-0.182-0.049-0.344-0.12-0.478-0.219
	c-0.138-0.099-0.249-0.226-0.33-0.387c-0.082-0.155-0.123-0.352-0.123-0.58H0.769c-0.007,0.42,0.068,0.781,0.228,1.086
	c0.16,0.303,0.374,0.555,0.643,0.75c0.271,0.197,0.582,0.338,0.934,0.432c0.352,0.092,0.712,0.141,1.088,0.141
	c0.463,0,0.868-0.055,1.224-0.162c0.35-0.107,0.646-0.26,0.883-0.453c0.239-0.193,0.416-0.424,0.537-0.688
	c0.121-0.267,0.182-0.556,0.182-0.867c0-0.38-0.079-0.692-0.243-0.936c-0.159-0.247-0.354-0.441-0.575-0.585
	c-0.222-0.148-0.445-0.254-0.672-0.321c-0.222-0.065-0.398-0.112-0.526-0.139c-0.424-0.107-0.771-0.196-1.03-0.267
	c-0.267-0.068-0.471-0.141-0.62-0.211C2.67,23.981,2.57,23.904,2.52,23.822c-0.051-0.081-0.078-0.185-0.078-0.318
	c0-0.145,0.03-0.265,0.094-0.359c0.063-0.097,0.146-0.177,0.243-0.238c0.097-0.063,0.209-0.108,0.327-0.136
	c0.121-0.024,0.241-0.035,0.361-0.035c0.185,0,0.354,0.016,0.509,0.047s0.293,0.086,0.414,0.162c0.118,0.075,0.217,0.179,0.29,0.314
	c0.072,0.133,0.115,0.301,0.127,0.504h1.448c0-0.394-0.077-0.729-0.223-1.004c-0.151-0.279-0.352-0.504-0.604-0.682
	c-0.255-0.176-0.545-0.306-0.872-0.386c-0.327-0.079-0.667-0.117-1.022-0.117c-0.305,0-0.606,0.038-0.912,0.124
	c-0.305,0.082-0.577,0.209-0.819,0.379c-0.239,0.17-0.437,0.385-0.584,0.643c-0.15,0.258-0.224,0.559-0.224,0.906
	c0,0.312,0.061,0.578,0.176,0.798c0.117,0.216,0.271,0.398,0.462,0.544c0.19,0.146,0.403,0.268,0.647,0.357
	c0.239,0.093,0.49,0.171,0.742,0.233c0.248,0.071,0.489,0.134,0.73,0.192c0.242,0.057,0.455,0.123,0.646,0.199
	c0.192,0.076,0.344,0.171,0.462,0.284c0.116,0.113,0.176,0.265,0.176,0.446c0,0.17-0.044,0.312-0.134,0.424
	C4.814,27.214,4.704,27.302,4.571,27.366z M14.682,23.913c0-0.277-0.043-0.549-0.13-0.809c-0.084-0.262-0.221-0.49-0.407-0.694
	c-0.188-0.203-0.431-0.367-0.727-0.488c-0.298-0.124-0.661-0.188-1.083-0.188l0,0H9.273v6.792h1.49v-2.436h1.573
	c0.424,0,0.784-0.061,1.082-0.186c0.299-0.121,0.541-0.285,0.729-0.487c0.187-0.205,0.323-0.437,0.406-0.702
	C14.639,24.452,14.682,24.187,14.682,23.913z M13.128,24.438c-0.074,0.132-0.17,0.236-0.29,0.309
	c-0.124,0.072-0.262,0.121-0.418,0.147c-0.158,0.026-0.325,0.038-0.497,0.038V24.93h-1.161v-2.034h1.161
	c0.171,0,0.337,0.011,0.494,0.037c0.159,0.026,0.301,0.074,0.419,0.151c0.12,0.071,0.217,0.175,0.29,0.308
	c0.072,0.133,0.109,0.307,0.109,0.522C13.237,24.129,13.199,24.306,13.128,24.438z M17.604,28.526l0.53-1.512h2.54l0.514,1.512
	h1.552L20.2,21.734h-1.532l-2.567,6.792H17.604z M19.409,23.406h0.019l0.855,2.497h-1.759L19.409,23.406z M25.162,23.748
	c-0.15,0.437-0.228,0.905-0.228,1.412c0,0.497,0.078,0.957,0.228,1.384c0.155,0.431,0.372,0.803,0.656,1.119
	c0.286,0.316,0.636,0.566,1.052,0.746c0.414,0.18,0.883,0.273,1.402,0.273c0.418,0,0.802-0.064,1.152-0.191
	c0.345-0.128,0.649-0.312,0.911-0.553c0.261-0.239,0.47-0.534,0.628-0.874c0.157-0.341,0.258-0.726,0.295-1.15h-1.445
	c-0.057,0.456-0.216,0.825-0.473,1.104c-0.255,0.275-0.611,0.417-1.068,0.417c-0.339,0-0.622-0.064-0.856-0.194
	c-0.235-0.131-0.426-0.305-0.572-0.518c-0.144-0.217-0.251-0.461-0.317-0.729c-0.068-0.271-0.1-0.549-0.1-0.832
	c0-0.298,0.031-0.587,0.1-0.866c0.066-0.278,0.174-0.529,0.317-0.749c0.146-0.217,0.337-0.393,0.572-0.523
	c0.234-0.129,0.52-0.196,0.856-0.196c0.184,0,0.357,0.032,0.525,0.092c0.166,0.062,0.32,0.146,0.453,0.253
	c0.133,0.105,0.242,0.23,0.334,0.375c0.09,0.142,0.145,0.3,0.17,0.471h1.444c-0.04-0.393-0.15-0.742-0.321-1.045
	c-0.173-0.305-0.391-0.561-0.649-0.767c-0.265-0.206-0.562-0.364-0.896-0.47c-0.33-0.108-0.686-0.163-1.061-0.163
	c-0.521,0-0.988,0.093-1.402,0.278c-0.416,0.182-0.766,0.436-1.052,0.762C25.534,22.935,25.315,23.313,25.162,23.748z M34.18,28.526
	h5.154V27.27h-3.663v-1.663h3.291v-1.162h-3.291v-1.455h3.588v-1.255h-5.082v6.792H34.18z M4.571,38.235
	c-0.133,0.062-0.278,0.107-0.429,0.13c-0.153,0.021-0.294,0.032-0.428,0.032c-0.196,0-0.387-0.022-0.571-0.07
	c-0.182-0.048-0.344-0.122-0.478-0.22c-0.138-0.098-0.249-0.228-0.33-0.385c-0.082-0.157-0.123-0.355-0.123-0.58H0.769
	c-0.007,0.42,0.072,0.781,0.228,1.084c0.16,0.302,0.374,0.555,0.643,0.752c0.271,0.197,0.582,0.34,0.934,0.433
	c0.352,0.091,0.712,0.139,1.088,0.139c0.463,0,0.868-0.054,1.224-0.162c0.35-0.108,0.646-0.258,0.883-0.45
	c0.239-0.193,0.416-0.424,0.537-0.689c0.121-0.268,0.182-0.56,0.182-0.868c0-0.381-0.079-0.692-0.243-0.936
	c-0.159-0.246-0.354-0.441-0.575-0.587c-0.222-0.146-0.445-0.251-0.672-0.319c-0.222-0.067-0.398-0.113-0.526-0.14
	c-0.424-0.106-0.771-0.196-1.03-0.266c-0.267-0.069-0.471-0.138-0.62-0.211C2.67,34.853,2.57,34.777,2.52,34.694
	c-0.051-0.081-0.078-0.187-0.078-0.321c0-0.145,0.03-0.264,0.094-0.358s0.146-0.177,0.243-0.238
	c0.097-0.062,0.209-0.108,0.327-0.135c0.121-0.025,0.241-0.037,0.361-0.037c0.185,0,0.354,0.018,0.509,0.048
	c0.154,0.03,0.293,0.088,0.414,0.16c0.118,0.078,0.217,0.182,0.29,0.315c0.072,0.132,0.115,0.3,0.127,0.505h1.448
	c0-0.396-0.077-0.729-0.223-1.005c-0.151-0.278-0.352-0.502-0.604-0.682c-0.255-0.174-0.545-0.305-0.872-0.385
	s-0.667-0.119-1.022-0.119c-0.305,0-0.606,0.042-0.912,0.125c-0.305,0.08-0.577,0.21-0.819,0.379
	c-0.239,0.174-0.437,0.386-0.584,0.644c-0.15,0.257-0.224,0.558-0.224,0.907c0,0.312,0.061,0.576,0.176,0.795
	c0.117,0.216,0.271,0.401,0.462,0.546c0.19,0.146,0.403,0.267,0.647,0.358c0.239,0.089,0.49,0.167,0.742,0.233
	c0.248,0.065,0.488,0.131,0.73,0.188c0.242,0.056,0.455,0.124,0.646,0.202c0.192,0.074,0.344,0.168,0.462,0.283
	c0.116,0.113,0.176,0.262,0.176,0.448c0,0.17-0.044,0.311-0.134,0.421C4.814,38.085,4.704,38.172,4.571,38.235z M14.349,33.862
	v-1.258H9.271v6.792h5.154V38.14h-3.663v-1.664h3.293v-1.16h-3.293v-1.453H14.349z M20.711,38.235
	c-0.133,0.062-0.276,0.107-0.428,0.13c-0.15,0.021-0.294,0.032-0.428,0.032c-0.195,0-0.388-0.022-0.569-0.07
	c-0.185-0.048-0.346-0.122-0.48-0.22c-0.138-0.098-0.248-0.228-0.327-0.385c-0.085-0.157-0.125-0.355-0.125-0.58h-1.446
	c-0.008,0.42,0.069,0.781,0.227,1.084c0.157,0.307,0.372,0.555,0.643,0.752s0.58,0.34,0.934,0.433
	c0.35,0.093,0.713,0.139,1.086,0.139c0.464,0,0.87-0.054,1.222-0.16c0.354-0.107,0.65-0.26,0.888-0.452
	c0.236-0.193,0.414-0.424,0.536-0.689c0.118-0.268,0.179-0.556,0.179-0.865c0-0.384-0.078-0.695-0.24-0.938
	c-0.161-0.246-0.354-0.441-0.576-0.585c-0.222-0.146-0.447-0.253-0.669-0.316c-0.228-0.069-0.403-0.114-0.528-0.139
	c-0.424-0.11-0.771-0.196-1.033-0.271c-0.263-0.069-0.469-0.138-0.618-0.209c-0.149-0.069-0.249-0.145-0.3-0.228
	c-0.05-0.082-0.076-0.189-0.076-0.324c0-0.145,0.03-0.267,0.094-0.358c0.064-0.095,0.146-0.179,0.243-0.24s0.21-0.106,0.329-0.133
	c0.119-0.025,0.238-0.037,0.359-0.037c0.186,0,0.354,0.018,0.512,0.047c0.154,0.031,0.289,0.086,0.412,0.161
	c0.121,0.076,0.215,0.18,0.29,0.315c0.071,0.132,0.113,0.3,0.128,0.505h1.446c0-0.396-0.075-0.729-0.222-1.008
	c-0.151-0.275-0.351-0.499-0.604-0.679c-0.254-0.177-0.544-0.305-0.87-0.385c-0.326-0.081-0.667-0.119-1.023-0.119
	c-0.306,0-0.609,0.041-0.911,0.125c-0.305,0.08-0.578,0.208-0.819,0.379c-0.242,0.174-0.435,0.385-0.586,0.644
	c-0.148,0.256-0.221,0.559-0.221,0.907c0,0.309,0.058,0.576,0.175,0.795c0.118,0.216,0.271,0.4,0.462,0.546
	c0.188,0.146,0.404,0.264,0.648,0.355c0.238,0.092,0.485,0.17,0.74,0.235c0.249,0.064,0.491,0.13,0.733,0.188
	c0.24,0.055,0.457,0.124,0.649,0.199c0.188,0.076,0.34,0.17,0.459,0.285c0.118,0.114,0.175,0.264,0.175,0.447
	c0,0.171-0.042,0.313-0.131,0.422C20.955,38.085,20.844,38.172,20.711,38.235z M28.787,38.235c-0.134,0.062-0.278,0.107-0.43,0.13
	c-0.152,0.021-0.294,0.032-0.428,0.032c-0.194,0-0.386-0.022-0.571-0.07c-0.183-0.048-0.344-0.122-0.479-0.22
	s-0.246-0.228-0.329-0.385c-0.081-0.157-0.122-0.355-0.12-0.58h-1.445c-0.009,0.42,0.067,0.781,0.227,1.084
	c0.157,0.307,0.37,0.555,0.643,0.752c0.27,0.197,0.58,0.34,0.93,0.433c0.352,0.093,0.716,0.139,1.088,0.139
	c0.464,0,0.871-0.054,1.223-0.16c0.353-0.107,0.646-0.26,0.884-0.452c0.24-0.193,0.416-0.424,0.539-0.689
	c0.119-0.268,0.18-0.556,0.18-0.865c0-0.384-0.08-0.695-0.242-0.938c-0.16-0.246-0.354-0.441-0.576-0.585
	c-0.221-0.146-0.445-0.253-0.67-0.316c-0.225-0.069-0.402-0.114-0.526-0.139c-0.425-0.11-0.77-0.196-1.031-0.271
	c-0.269-0.069-0.472-0.138-0.62-0.209c-0.149-0.069-0.249-0.145-0.299-0.228c-0.052-0.082-0.078-0.189-0.078-0.324
	c0-0.145,0.031-0.267,0.095-0.358c0.063-0.095,0.146-0.179,0.242-0.24c0.101-0.062,0.208-0.106,0.33-0.133
	c0.118-0.025,0.241-0.037,0.359-0.037c0.186,0,0.354,0.018,0.511,0.047c0.154,0.031,0.292,0.086,0.412,0.161
	c0.121,0.076,0.219,0.18,0.29,0.315c0.073,0.132,0.116,0.3,0.128,0.505h1.447c0-0.396-0.075-0.729-0.221-1.008
	c-0.153-0.275-0.353-0.499-0.605-0.679c-0.256-0.177-0.543-0.305-0.871-0.385c-0.325-0.078-0.667-0.116-1.021-0.116
	c-0.305,0-0.61,0.041-0.913,0.125c-0.304,0.081-0.577,0.209-0.817,0.379c-0.243,0.173-0.438,0.385-0.588,0.645
	c-0.149,0.256-0.221,0.559-0.221,0.906c0,0.31,0.059,0.575,0.176,0.794c0.117,0.217,0.271,0.401,0.462,0.547
	c0.19,0.146,0.402,0.264,0.647,0.355c0.24,0.092,0.485,0.17,0.739,0.235c0.249,0.064,0.491,0.131,0.733,0.188
	c0.242,0.055,0.455,0.124,0.647,0.2c0.19,0.074,0.343,0.17,0.461,0.284s0.175,0.263,0.175,0.447c0,0.171-0.042,0.314-0.131,0.421
	C29.029,38.085,28.919,38.172,28.787,38.235z M33.485,39.396h1.494v-6.792h-1.494V39.396z M38.129,34.615
	c-0.155,0.437-0.229,0.904-0.229,1.413c0,0.494,0.076,0.955,0.229,1.387c0.151,0.426,0.369,0.798,0.653,1.115
	c0.285,0.318,0.637,0.565,1.052,0.749c0.415,0.179,0.883,0.268,1.403,0.268c0.525,0,0.994-0.089,1.407-0.268
	c0.412-0.184,0.761-0.431,1.047-0.749c0.285-0.317,0.506-0.689,0.653-1.115c0.155-0.43,0.229-0.893,0.229-1.387
	c0-0.509-0.073-0.977-0.229-1.413c-0.152-0.434-0.368-0.811-0.653-1.135c-0.286-0.325-0.635-0.578-1.047-0.762
	c-0.413-0.186-0.882-0.278-1.407-0.278c-0.521,0-0.988,0.091-1.403,0.278c-0.415,0.184-0.767,0.437-1.052,0.762
	C38.498,33.805,38.278,34.182,38.129,34.615z M39.491,35.164c0.067-0.278,0.172-0.525,0.318-0.747
	c0.145-0.218,0.34-0.393,0.569-0.523c0.236-0.129,0.52-0.193,0.858-0.193s0.62,0.064,0.857,0.193
	c0.234,0.133,0.422,0.306,0.568,0.523c0.149,0.22,0.252,0.467,0.322,0.747c0.063,0.28,0.099,0.567,0.099,0.864
	c0,0.286-0.035,0.563-0.099,0.832c-0.07,0.272-0.173,0.514-0.322,0.728c-0.146,0.217-0.334,0.39-0.568,0.52
	c-0.237,0.131-0.522,0.197-0.857,0.197c-0.339,0-0.622-0.066-0.858-0.197c-0.229-0.13-0.425-0.303-0.569-0.52
	c-0.146-0.217-0.251-0.455-0.318-0.728c-0.069-0.269-0.101-0.546-0.101-0.832C39.391,35.731,39.422,35.445,39.491,35.164z
	 M47.494,39.396h1.396V34.85h0.022l2.822,4.547h1.495v-6.792h-1.397v4.558H51.81l-2.829-4.558h-1.486V39.396z M59.821,38.235
	c-0.133,0.062-0.275,0.107-0.427,0.13c-0.153,0.021-0.296,0.032-0.427,0.032c-0.196,0-0.388-0.022-0.574-0.07
	c-0.182-0.048-0.343-0.122-0.477-0.22c-0.142-0.098-0.247-0.228-0.332-0.385c-0.083-0.157-0.123-0.355-0.127-0.58h-1.444
	c-0.012,0.42,0.068,0.781,0.227,1.084c0.155,0.307,0.371,0.555,0.642,0.752c0.27,0.197,0.582,0.34,0.935,0.433
	c0.349,0.093,0.711,0.139,1.087,0.139c0.462,0,0.871-0.054,1.222-0.16c0.351-0.107,0.647-0.26,0.886-0.452
	c0.238-0.193,0.417-0.424,0.536-0.689c0.121-0.268,0.181-0.556,0.181-0.865c0-0.384-0.081-0.695-0.24-0.938
	c-0.163-0.246-0.354-0.441-0.578-0.585c-0.22-0.146-0.445-0.253-0.671-0.316c-0.225-0.069-0.401-0.114-0.526-0.139
	c-0.425-0.11-0.771-0.196-1.031-0.271c-0.264-0.069-0.469-0.138-0.619-0.209c-0.148-0.069-0.249-0.145-0.297-0.228
	c-0.051-0.082-0.076-0.189-0.076-0.324c0-0.145,0.031-0.267,0.093-0.358c0.065-0.095,0.146-0.179,0.244-0.24
	s0.208-0.106,0.328-0.133c0.12-0.025,0.236-0.037,0.358-0.037c0.186,0,0.356,0.018,0.511,0.047c0.155,0.031,0.294,0.086,0.414,0.161
	c0.119,0.076,0.217,0.18,0.292,0.315c0.068,0.132,0.113,0.3,0.128,0.505h1.445c0-0.396-0.074-0.729-0.223-1.008
	c-0.148-0.275-0.349-0.499-0.602-0.679c-0.255-0.177-0.543-0.305-0.871-0.385c-0.328-0.081-0.67-0.119-1.024-0.119
	c-0.301,0-0.608,0.041-0.909,0.125c-0.304,0.08-0.579,0.208-0.818,0.379c-0.242,0.174-0.437,0.385-0.587,0.644
	c-0.149,0.256-0.221,0.559-0.221,0.907c0,0.309,0.059,0.576,0.174,0.795c0.119,0.216,0.271,0.4,0.461,0.546
	c0.19,0.146,0.402,0.264,0.65,0.355c0.238,0.092,0.483,0.17,0.738,0.235c0.249,0.064,0.494,0.13,0.734,0.188
	c0.238,0.055,0.456,0.124,0.646,0.199c0.188,0.076,0.344,0.17,0.462,0.285c0.115,0.114,0.176,0.264,0.176,0.447
	c0,0.171-0.042,0.313-0.136,0.422C60.063,38.085,59.955,38.172,59.821,38.235z M0,0v2.032h70.64v46.696H0v2.031h72.779V0H0z"/>
</svg>
