<?xml version="1.0" encoding="utf-8"?>
<!-- Generator: Adobe Illustrator 15.1.0, SVG Export Plug-In  -->
<!DOCTYPE svg PUBLIC "-//W3C//DTD SVG 1.1//EN" "http://www.w3.org/Graphics/SVG/1.1/DTD/svg11.dtd" [
	<!ENTITY ns_flows "http://ns.adobe.com/Flows/1.0/">
]>
<svg version="1.1"
	 xmlns="http://www.w3.org/2000/svg" xmlns:xlink="http://www.w3.org/1999/xlink" xmlns:a="http://ns.adobe.com/AdobeSVGViewerExtensions/3.0/"
	 x="0px" y="0px" width="80px" height="53px" viewBox="-10.364 -17.617 80 53"
	 overflow="visible" enable-background="new -10.364 -17.617 80 53" xml:space="preserve">
<defs>
</defs>
<path fill="#231F20" d="M32.704,4.896c0.279-0.127,0.515-0.303,0.702-0.524c0.188-0.224,0.329-0.486,0.422-0.794
	c0.093-0.307,0.138-0.641,0.138-1.001c0-0.414-0.057-0.773-0.169-1.08c-0.114-0.308-0.271-0.562-0.474-0.767
	c-0.202-0.204-0.441-0.355-0.717-0.459c-0.277-0.102-0.575-0.151-0.896-0.151h-2.144v4.969h2.144
	C32.091,5.088,32.422,5.022,32.704,4.896z M30.661,4.17V1.037h0.779c0.268,0,0.494,0.039,0.678,0.114
	c0.184,0.076,0.331,0.187,0.441,0.33c0.111,0.145,0.191,0.316,0.24,0.521c0.049,0.201,0.073,0.428,0.073,0.678
	c0,0.273-0.035,0.506-0.104,0.695c-0.069,0.19-0.162,0.346-0.277,0.464c-0.116,0.118-0.247,0.204-0.396,0.253
	c-0.147,0.053-0.302,0.078-0.46,0.078H30.661z M43.371,3.146h1.092c0.273,0,0.471,0.062,0.592,0.181
	c0.121,0.12,0.199,0.312,0.236,0.57c0.027,0.2,0.049,0.409,0.062,0.628c0.016,0.217,0.052,0.404,0.11,0.562h1.095
	c-0.053-0.068-0.092-0.154-0.115-0.254c-0.025-0.101-0.045-0.205-0.057-0.316c-0.013-0.111-0.021-0.221-0.023-0.328
	c-0.004-0.104-0.01-0.199-0.016-0.276c-0.008-0.125-0.024-0.252-0.053-0.376C46.27,3.41,46.23,3.296,46.176,3.19
	c-0.058-0.104-0.128-0.194-0.218-0.271c-0.088-0.076-0.199-0.133-0.332-0.17V2.734c0.276-0.11,0.478-0.272,0.601-0.485
	c0.123-0.214,0.187-0.468,0.187-0.761c0-0.188-0.034-0.367-0.103-0.531c-0.067-0.164-0.164-0.311-0.293-0.437
	c-0.127-0.125-0.279-0.223-0.459-0.295s-0.379-0.106-0.601-0.106h-2.683v4.969h1.095L43.371,3.146L43.371,3.146z M43.371,0.967
	h1.195c0.252,0,0.438,0.055,0.565,0.164c0.125,0.108,0.187,0.285,0.187,0.524c0,0.25-0.062,0.433-0.187,0.543
	c-0.127,0.111-0.313,0.168-0.565,0.168h-1.195V0.967z M24.04,1.762h0.015l2.067,3.326h1.093V0.119h-1.023v3.333h-0.014l-2.073-3.333
	h-1.087v4.969h1.022V1.762z M37.084,3.98h1.858l0.377,1.106h1.134l-1.857-4.969h-1.122l-1.878,4.969h1.099L37.084,3.98z
	 M38.019,1.344h0.015l0.626,1.824H37.37L38.019,1.344z M51.83,4.896c0.281-0.127,0.515-0.303,0.704-0.524
	c0.187-0.224,0.327-0.486,0.42-0.794c0.095-0.307,0.141-0.641,0.141-1.001c0-0.414-0.058-0.773-0.171-1.08
	c-0.113-0.308-0.271-0.562-0.475-0.767c-0.202-0.204-0.439-0.355-0.717-0.459c-0.276-0.102-0.573-0.151-0.896-0.151h-2.144v4.969
	h2.144C51.219,5.088,51.55,5.022,51.83,4.896z M49.787,4.17V1.037h0.779c0.269,0,0.496,0.039,0.68,0.114
	c0.183,0.076,0.331,0.187,0.441,0.33c0.112,0.145,0.191,0.316,0.239,0.521C51.977,2.203,52,2.43,52,2.68
	c0,0.273-0.034,0.506-0.104,0.695c-0.07,0.19-0.162,0.346-0.279,0.464c-0.113,0.118-0.247,0.204-0.396,0.253
	c-0.146,0.053-0.299,0.078-0.457,0.078H49.787z M34.515,17.194c-0.013-0.11-0.021-0.221-0.024-0.325
	c-0.007-0.107-0.011-0.201-0.015-0.279c-0.011-0.125-0.025-0.252-0.054-0.375c-0.024-0.127-0.065-0.24-0.12-0.346
	c-0.056-0.104-0.128-0.195-0.217-0.271c-0.088-0.076-0.2-0.133-0.333-0.17v-0.014c0.277-0.111,0.479-0.275,0.601-0.486
	c0.123-0.215,0.187-0.469,0.187-0.762c0-0.189-0.034-0.365-0.101-0.531c-0.068-0.164-0.166-0.309-0.293-0.437
	c-0.129-0.125-0.282-0.223-0.461-0.295c-0.179-0.071-0.377-0.106-0.602-0.106h-2.682v4.969h1.095v-1.941h1.093
	c0.274,0,0.473,0.062,0.592,0.181c0.12,0.121,0.198,0.312,0.236,0.572c0.027,0.198,0.048,0.407,0.062,0.627
	c0.014,0.217,0.052,0.405,0.111,0.562h1.092c-0.051-0.068-0.09-0.154-0.115-0.254C34.543,17.412,34.524,17.307,34.515,17.194z
	 M33.258,14.877c-0.127,0.11-0.313,0.168-0.565,0.168h-1.195v-1.4h1.195c0.252,0,0.438,0.058,0.565,0.164
	c0.124,0.109,0.188,0.285,0.188,0.525C33.444,14.584,33.382,14.766,33.258,14.877z M37.914,15.629h2.407V14.78h-2.407v-1.065h2.624
	v-0.918h-3.717v4.969h3.771v-0.918h-2.678V15.629z M25.601,12.797l-1.88,4.969h1.101l0.391-1.106h1.857l0.377,1.106h1.134
	l-1.858-4.969H25.601z M25.496,15.846l0.646-1.824h0.015l0.627,1.824H25.496z M46.833,17.194c-0.012-0.11-0.021-0.221-0.022-0.325
	c-0.007-0.107-0.012-0.201-0.017-0.279c-0.009-0.125-0.024-0.252-0.05-0.375c-0.027-0.127-0.068-0.24-0.124-0.346
	c-0.056-0.104-0.126-0.195-0.214-0.271c-0.09-0.076-0.201-0.133-0.336-0.17v-0.014c0.277-0.111,0.479-0.275,0.602-0.486
	c0.124-0.215,0.186-0.469,0.186-0.762c0-0.189-0.033-0.365-0.1-0.531c-0.068-0.164-0.166-0.309-0.293-0.437
	c-0.128-0.125-0.281-0.223-0.46-0.295c-0.18-0.071-0.378-0.106-0.603-0.106h-2.68v4.969h1.094v-1.941h1.091
	c0.274,0,0.471,0.062,0.593,0.181c0.122,0.121,0.199,0.312,0.236,0.572c0.029,0.198,0.049,0.407,0.062,0.627
	c0.015,0.217,0.054,0.405,0.113,0.562h1.091c-0.05-0.068-0.089-0.154-0.113-0.254C46.863,17.412,46.845,17.307,46.833,17.194z
	 M45.575,14.877c-0.124,0.11-0.312,0.168-0.562,0.168h-1.196v-1.4h1.196c0.251,0,0.438,0.058,0.562,0.164
	c0.127,0.109,0.19,0.285,0.19,0.525C45.766,14.584,45.702,14.766,45.575,14.877z M0,8.297v1.319h59.271V8.297H0z M19.435,15.629
	h2.407V14.78h-2.407v-1.065h2.622v-0.918h-3.716v4.969h3.772v-0.918h-2.679L19.435,15.629L19.435,15.629z M17.826,3.98h1.857
	l0.376,1.106h1.134l-1.857-4.969h-1.12l-1.88,4.969h1.101L17.826,3.98z M18.758,1.344h0.015l0.626,1.824h-1.287L18.758,1.344z
	 M8.415,4.237C8.318,4.286,8.212,4.315,8.102,4.334C7.991,4.35,7.887,4.356,7.788,4.356c-0.144,0-0.283-0.018-0.418-0.053
	C7.237,4.27,7.119,4.217,7.02,4.145c-0.1-0.071-0.181-0.166-0.24-0.281C6.719,3.746,6.688,3.604,6.688,3.438H5.631
	C5.626,3.746,5.681,4.01,5.798,4.231c0.116,0.224,0.271,0.406,0.47,0.549C6.465,4.926,6.691,5.03,6.949,5.1
	c0.258,0.066,0.523,0.1,0.797,0.1c0.339,0,0.638-0.038,0.895-0.116c0.258-0.08,0.475-0.189,0.647-0.332
	c0.174-0.142,0.306-0.312,0.394-0.504C9.77,4.051,9.814,3.84,9.814,3.612c0-0.278-0.061-0.508-0.178-0.687
	C9.519,2.748,9.378,2.604,9.216,2.5c-0.164-0.107-0.327-0.187-0.49-0.234C8.56,2.217,8.432,2.184,8.338,2.165
	C8.027,2.086,7.774,2.021,7.582,1.971C7.391,1.918,7.24,1.868,7.131,1.815c-0.109-0.05-0.184-0.106-0.22-0.166
	C6.874,1.589,6.855,1.51,6.855,1.412c0-0.105,0.023-0.195,0.069-0.265C6.971,1.079,7.03,1.021,7.103,0.974
	c0.07-0.047,0.152-0.079,0.24-0.098C7.431,0.856,7.52,0.85,7.607,0.85c0.133,0,0.259,0.012,0.371,0.033
	c0.115,0.023,0.215,0.062,0.305,0.119C8.37,1.059,8.441,1.135,8.495,1.231C8.547,1.33,8.58,1.452,8.588,1.602h1.058
	c0-0.289-0.054-0.533-0.162-0.733c-0.11-0.204-0.255-0.369-0.443-0.499C8.854,0.238,8.645,0.145,8.404,0.088
	C8.164,0.028,7.916,0,7.655,0C7.435,0,7.21,0.029,6.988,0.09C6.765,0.149,6.564,0.243,6.39,0.369c-0.177,0.125-0.32,0.28-0.429,0.47
	C5.852,1.026,5.798,1.248,5.798,1.504c0,0.228,0.043,0.421,0.128,0.581c0.086,0.159,0.199,0.292,0.338,0.398
	c0.14,0.107,0.297,0.193,0.474,0.263C6.913,2.812,7.095,2.87,7.28,2.916c0.181,0.051,0.36,0.098,0.535,0.14
	c0.177,0.042,0.334,0.09,0.475,0.146C8.43,3.258,8.541,3.326,8.627,3.41c0.087,0.084,0.129,0.192,0.129,0.327
	c0,0.125-0.032,0.229-0.098,0.311C8.594,4.129,8.513,4.19,8.415,4.237z M12.953,5.088h1.094V1.037h1.488V0.119h-4.072v0.918h1.49
	V5.088z M15.298,15.065c0.224-0.106,0.392-0.244,0.505-0.412c0.115-0.166,0.171-0.375,0.171-0.625c0-0.231-0.037-0.428-0.115-0.586
	c-0.075-0.155-0.184-0.282-0.323-0.379c-0.139-0.096-0.306-0.164-0.502-0.207c-0.193-0.039-0.41-0.061-0.646-0.061h-2.34v4.969
	h2.408c0.224,0,0.44-0.027,0.651-0.082c0.211-0.057,0.398-0.143,0.564-0.258c0.163-0.117,0.295-0.266,0.393-0.449
	c0.098-0.183,0.145-0.399,0.145-0.652c0-0.309-0.074-0.575-0.225-0.795S15.605,15.151,15.298,15.065z M13.141,13.645h1.024
	c0.097,0,0.19,0.01,0.281,0.025c0.09,0.016,0.17,0.045,0.24,0.086c0.068,0.043,0.125,0.1,0.166,0.176
	c0.042,0.074,0.062,0.17,0.062,0.285c0,0.209-0.062,0.359-0.187,0.453c-0.126,0.092-0.285,0.139-0.481,0.139H13.14L13.141,13.645
	L13.141,13.645z M15.052,16.584c-0.046,0.082-0.104,0.147-0.177,0.196c-0.075,0.05-0.16,0.084-0.259,0.104
	c-0.098,0.021-0.199,0.033-0.306,0.033h-1.17v-1.365h1.19c0.237,0,0.428,0.055,0.57,0.164c0.145,0.109,0.216,0.291,0.216,0.545
	C15.117,16.393,15.096,16.5,15.052,16.584z"/>
</svg>
