<?xml version="1.0" encoding="utf-8"?>
<!-- Generator: Adobe Illustrator 15.1.0, SVG Export Plug-In  -->
<!DOCTYPE svg PUBLIC "-//W3C//DTD SVG 1.1//EN" "http://www.w3.org/Graphics/SVG/1.1/DTD/svg11.dtd" [
	<!ENTITY ns_flows "http://ns.adobe.com/Flows/1.0/">
]>
<svg version="1.1"
	 xmlns="http://www.w3.org/2000/svg" xmlns:xlink="http://www.w3.org/1999/xlink" xmlns:a="http://ns.adobe.com/AdobeSVGViewerExtensions/3.0/"
	 x="0px" y="0px" width="80px" height="53px" viewBox="-6.603 -4.152 80 53"
	 overflow="visible" enable-background="new -6.603 -4.152 80 53" xml:space="preserve">
<defs>
</defs>
<path d="M18.225,20.944c-0.099,0.281-0.148,0.587-0.148,0.917c0,0.319,0.05,0.62,0.148,0.897c0.098,0.276,0.239,0.52,0.425,0.724
	c0.185,0.206,0.413,0.368,0.683,0.485c0.269,0.116,0.571,0.177,0.909,0.177c0.272,0,0.521-0.042,0.747-0.126
	c0.226-0.082,0.424-0.2,0.592-0.356c0.169-0.157,0.305-0.347,0.407-0.567c0.103-0.223,0.167-0.471,0.191-0.748H21.24
	c-0.036,0.297-0.138,0.535-0.305,0.716c-0.166,0.182-0.397,0.273-0.694,0.273c-0.218,0-0.403-0.043-0.555-0.128
	c-0.152-0.085-0.276-0.197-0.371-0.336c-0.094-0.14-0.163-0.298-0.206-0.473c-0.043-0.174-0.064-0.354-0.064-0.538
	c0-0.194,0.021-0.382,0.064-0.562c0.044-0.18,0.112-0.343,0.206-0.484s0.219-0.255,0.371-0.34c0.151-0.085,0.337-0.126,0.555-0.126
	c0.119,0,0.233,0.019,0.343,0.059c0.109,0.038,0.207,0.093,0.294,0.162c0.086,0.071,0.157,0.152,0.215,0.244
	c0.058,0.093,0.094,0.194,0.111,0.306h0.938c-0.029-0.255-0.1-0.48-0.21-0.679c-0.111-0.197-0.252-0.363-0.423-0.497
	s-0.365-0.235-0.58-0.306c-0.216-0.07-0.445-0.105-0.688-0.105c-0.338,0-0.642,0.06-0.91,0.18c-0.27,0.119-0.497,0.283-0.682,0.494
	C18.465,20.419,18.323,20.663,18.225,20.944z M20.458,30.342c-0.087,0.041-0.179,0.068-0.276,0.084
	c-0.1,0.014-0.192,0.021-0.278,0.021c-0.128,0-0.251-0.017-0.369-0.047c-0.12-0.031-0.224-0.078-0.313-0.142
	c-0.088-0.063-0.158-0.148-0.212-0.251c-0.054-0.102-0.08-0.227-0.08-0.376H17.99c-0.004,0.272,0.045,0.507,0.148,0.702
	c0.103,0.199,0.241,0.361,0.417,0.49c0.174,0.126,0.376,0.221,0.605,0.279c0.227,0.06,0.462,0.09,0.705,0.09
	c0.301,0,0.565-0.035,0.794-0.104c0.228-0.069,0.418-0.169,0.572-0.293c0.154-0.126,0.271-0.274,0.349-0.448
	c0.079-0.172,0.117-0.359,0.117-0.562c0-0.244-0.053-0.447-0.157-0.606c-0.104-0.16-0.229-0.284-0.373-0.379
	c-0.145-0.096-0.289-0.164-0.435-0.208c-0.146-0.042-0.261-0.072-0.343-0.09c-0.276-0.068-0.498-0.127-0.669-0.172
	c-0.172-0.045-0.306-0.092-0.401-0.135c-0.097-0.045-0.162-0.096-0.195-0.148c-0.032-0.053-0.049-0.124-0.049-0.209
	c0-0.096,0.02-0.174,0.061-0.235s0.093-0.112,0.158-0.154c0.063-0.042,0.134-0.071,0.213-0.087c0.077-0.018,0.156-0.023,0.234-0.023
	c0.119,0,0.229,0.01,0.33,0.029s0.19,0.057,0.269,0.104c0.078,0.053,0.141,0.119,0.188,0.205c0.047,0.086,0.074,0.195,0.083,0.326
	h0.938c0-0.254-0.049-0.471-0.145-0.649c-0.097-0.18-0.228-0.327-0.392-0.441c-0.165-0.116-0.353-0.199-0.565-0.251
	c-0.211-0.05-0.433-0.076-0.663-0.076c-0.198,0-0.395,0.026-0.593,0.079c-0.197,0.056-0.374,0.137-0.53,0.248
	c-0.156,0.11-0.282,0.249-0.38,0.415c-0.096,0.168-0.145,0.365-0.145,0.591c0,0.202,0.038,0.372,0.114,0.515
	s0.175,0.261,0.299,0.354c0.124,0.095,0.264,0.172,0.42,0.232s0.316,0.11,0.481,0.151c0.16,0.045,0.317,0.087,0.476,0.124
	c0.156,0.037,0.296,0.08,0.42,0.129c0.122,0.049,0.223,0.109,0.299,0.184c0.075,0.074,0.113,0.172,0.113,0.291
	c0,0.111-0.027,0.203-0.086,0.275S20.544,30.303,20.458,30.342z M28.891,30.533c0.186,0.204,0.414,0.368,0.683,0.484
	c0.27,0.117,0.571,0.176,0.909,0.176c0.342,0,0.646-0.059,0.912-0.176c0.269-0.116,0.494-0.278,0.679-0.484
	c0.186-0.205,0.328-0.447,0.426-0.725c0.1-0.278,0.147-0.577,0.147-0.896c0-0.33-0.048-0.636-0.147-0.918
	c-0.098-0.281-0.24-0.527-0.426-0.736c-0.185-0.211-0.41-0.373-0.679-0.494c-0.267-0.119-0.57-0.178-0.912-0.178
	c-0.338,0-0.641,0.059-0.909,0.178c-0.269,0.121-0.497,0.283-0.683,0.494c-0.186,0.209-0.326,0.455-0.425,0.736
	c-0.1,0.282-0.147,0.588-0.147,0.918c0,0.319,0.048,0.618,0.147,0.896C28.564,30.086,28.705,30.328,28.891,30.533z M29.35,28.349
	c0.044-0.179,0.112-0.342,0.206-0.483c0.095-0.142,0.219-0.256,0.371-0.34c0.152-0.085,0.337-0.128,0.555-0.128
	s0.403,0.043,0.556,0.128c0.152,0.084,0.276,0.198,0.37,0.34s0.164,0.305,0.206,0.483c0.043,0.182,0.066,0.368,0.066,0.563
	c0,0.184-0.023,0.362-0.066,0.539c-0.043,0.174-0.112,0.331-0.206,0.471c-0.094,0.139-0.218,0.252-0.37,0.337
	c-0.152,0.083-0.338,0.126-0.556,0.126s-0.402-0.043-0.555-0.126c-0.152-0.085-0.276-0.198-0.371-0.337
	c-0.094-0.14-0.163-0.297-0.206-0.471c-0.043-0.177-0.064-0.355-0.064-0.539C29.285,28.717,29.307,28.531,29.35,28.349z
	 M35.393,19.641h-0.969v4.403h0.969V19.641z M32.647,23.23h-2.146V19.64h-0.969v4.404h3.114L32.647,23.23L32.647,23.23z
	 M24.48,31.095h0.969v-3.591h1.319v-0.814H23.16v0.814h1.32V31.095z M36.285,37.575l0.861-1.459l-0.829-2.015h-1.274l0.792,1.92
	l-0.563,0.955l-0.142,0.238l-0.02,0.275l-0.068,0.98l-0.724,1.217l-0.249,0.422l0.121,0.473l0.296,1.16l0.072,0.283l-6.903,1.211
	l-0.707-0.424l-0.067-0.039l-0.371-1.463l-0.088-0.348l-0.268-0.238l-2.146-1.928l-0.014-0.012l-0.014-0.013l-2.624-2.212
	l-0.264-0.221l-0.343-0.047l-1.771-0.233l-0.796-0.717l-0.301-0.271l-0.404-0.029l-0.982-0.07l-0.248-0.146l-0.207-0.122
	l-0.239-0.032l-1.574-0.207l0.045-0.201l0.057-0.27l-0.066-0.27l-0.296-1.162l-0.088-0.346l-0.266-0.24l-0.081-0.072l1.438-1.256
	l-2.294-0.495l-0.487-0.104l-0.91-1.053L9.122,26.51l-0.008-0.032l0.326-0.55l0.25-0.421l-0.123-0.475L9.27,23.873l-0.121-0.472
	l-0.42-0.248l-1.183-0.702l0.563-0.49l0.549-0.475l-0.18-0.705l-0.296-1.16l-0.047-0.187l-0.104-0.162l-0.684-1.062l-1.033-1.605
	l-0.816,1.379l-0.003-0.682l-0.003-0.437l-0.285-0.329l-1.14-1.312l-1.029-1.411l-0.086-1.612l0.082-1.185l0.031-0.445l-0.272-0.354
	L1.184,8.119L1.18,7.129l0.948-2.094l0.171-0.376L2.195,4.257L2.066,3.755l0.32-1.474L2.49,1.803L2.226,1.391L2.117,1.225
	l11.599,0.507l0.156,12.442l0.007,0.517l0.384,0.346l2.643,2.377h1.764l-3.618-3.253l-0.17-13.558L1.125,0L0.551,0.972L1.235,2.03
	L0.854,3.777l0.198,0.773L0,6.879l0.011,1.646l1.852,2.413l-0.088,1.256l0.108,2.034l1.266,1.734l1.172,1.35l0.009,1.648
	l1.457,0.861l0.573-0.971l0.684,1.062l0.296,1.16l-0.671,0.584l-0.975-0.576l-0.187,0.873l1.165,1.35L8.13,24.17l0.298,1.159
	l-0.576,0.97l0.2,0.776l2.338,2.698l1.167,1.348l0.871,0.188l-0.67,0.585l1.068,0.963l0.294,1.162l-0.188,0.871l0.587,0.676
	l2.13,0.279l0.486,0.287l1.261,0.089l1.069,0.962l2.132,0.279l2.624,2.213l2.146,1.927l0.492,1.934l0.484,0.288l-0.188,0.871
	l10.251-1.797l0.19-0.873l-0.972-0.574L35.33,40.29l0.865-1.458L36.285,37.575z M24.931,23.063h1.646l0.334,0.98h1.005l-1.647-4.403
	h-0.993l-1.665,4.403h0.975L24.931,23.063z M25.757,20.725h0.013l0.556,1.616h-1.142L25.757,20.725z M40.29,21.473h-1.845v-1.018
	h2.129v-0.814h-3.097v4.403h0.968v-1.82h1.845V21.473z M59.896,24.044h0.969v-4.403h-0.969V24.044z M52.046,23.539
	c-0.011-0.098-0.019-0.194-0.022-0.29c-0.002-0.095-0.008-0.176-0.012-0.246c-0.008-0.11-0.023-0.221-0.047-0.333
	c-0.022-0.111-0.059-0.213-0.107-0.306c-0.051-0.094-0.113-0.174-0.191-0.241c-0.078-0.066-0.178-0.117-0.296-0.149V21.96
	c0.245-0.099,0.424-0.242,0.534-0.432c0.109-0.188,0.164-0.414,0.164-0.673c0-0.168-0.03-0.325-0.09-0.471
	c-0.061-0.146-0.146-0.275-0.26-0.388c-0.113-0.11-0.249-0.198-0.408-0.261c-0.158-0.064-0.336-0.096-0.533-0.096h-2.375v4.403
	h0.969v-1.721h0.968c0.243,0,0.418,0.055,0.524,0.161c0.107,0.107,0.177,0.274,0.211,0.506c0.023,0.177,0.043,0.361,0.055,0.555
	s0.045,0.359,0.098,0.499h0.969c-0.045-0.061-0.08-0.137-0.102-0.225C52.072,23.73,52.057,23.637,52.046,23.539z M50.932,21.486
	c-0.111,0.097-0.277,0.147-0.499,0.147h-1.062v-1.24h1.062c0.222,0,0.388,0.048,0.499,0.145s0.166,0.253,0.166,0.465
	C51.099,21.226,51.043,21.387,50.932,21.486z M38.186,30.589c-0.012-0.099-0.019-0.195-0.022-0.29
	c-0.005-0.094-0.009-0.177-0.013-0.247c-0.009-0.11-0.023-0.222-0.047-0.331c-0.021-0.113-0.058-0.213-0.106-0.307
	c-0.05-0.092-0.114-0.172-0.192-0.24s-0.176-0.119-0.296-0.151V29.01c0.247-0.098,0.424-0.242,0.533-0.432
	c0.11-0.189,0.165-0.414,0.165-0.673c0-0.169-0.03-0.327-0.092-0.472c-0.058-0.145-0.144-0.275-0.259-0.385
	c-0.111-0.112-0.247-0.198-0.405-0.263c-0.159-0.063-0.337-0.095-0.534-0.095h-2.376v4.403h0.969v-1.722h0.969
	c0.243,0,0.419,0.055,0.525,0.16c0.107,0.109,0.176,0.276,0.209,0.508c0.024,0.176,0.043,0.361,0.056,0.555s0.046,0.359,0.098,0.499
	h0.969c-0.046-0.062-0.079-0.137-0.101-0.226C38.211,30.78,38.193,30.688,38.186,30.589z M37.07,28.535
	c-0.11,0.099-0.276,0.146-0.498,0.146h-1.062v-1.239h1.062c0.222,0,0.388,0.048,0.498,0.146c0.111,0.096,0.167,0.252,0.167,0.465
	C37.237,28.274,37.182,28.436,37.07,28.535z M65.146,19.641h-0.993l-1.666,4.403h0.975l0.348-0.98h1.646l0.334,0.98h1.006
	L65.146,19.641z M64.06,22.343l0.574-1.616h0.013l0.555,1.616H64.06z M56.902,22.595h-0.012l-1.838-2.954H54.09v4.403h0.906v-2.948
	h0.014l1.832,2.948h0.969v-4.403h-0.908V22.595z M44.344,24.145c0.342,0,0.645-0.059,0.912-0.177
	c0.269-0.117,0.494-0.278,0.68-0.483c0.186-0.206,0.327-0.447,0.425-0.726c0.099-0.276,0.147-0.576,0.147-0.897
	c0-0.328-0.049-0.635-0.147-0.915c-0.098-0.282-0.239-0.527-0.425-0.738c-0.186-0.209-0.411-0.374-0.68-0.493
	c-0.268-0.12-0.57-0.179-0.912-0.179c-0.338,0-0.642,0.059-0.91,0.179c-0.27,0.119-0.496,0.282-0.682,0.493
	c-0.184,0.211-0.328,0.456-0.424,0.738c-0.1,0.28-0.148,0.587-0.148,0.915c0,0.32,0.049,0.62,0.148,0.897
	c0.096,0.278,0.24,0.52,0.424,0.726c0.186,0.204,0.414,0.366,0.682,0.483C43.703,24.084,44.006,24.145,44.344,24.145z M43.211,22.4
	c-0.043-0.175-0.064-0.354-0.064-0.539c0-0.193,0.021-0.381,0.064-0.562c0.045-0.181,0.112-0.343,0.207-0.484
	c0.094-0.142,0.219-0.255,0.371-0.339c0.152-0.085,0.336-0.128,0.555-0.128c0.217,0,0.401,0.043,0.555,0.128
	c0.152,0.084,0.275,0.197,0.371,0.339c0.094,0.142,0.162,0.304,0.206,0.484c0.042,0.181,0.063,0.368,0.063,0.562
	c0,0.185-0.021,0.364-0.063,0.539c-0.045,0.174-0.112,0.333-0.206,0.473c-0.096,0.138-0.219,0.252-0.371,0.336
	c-0.153,0.086-0.338,0.127-0.555,0.127c-0.219,0-0.402-0.041-0.555-0.127c-0.152-0.084-0.277-0.198-0.371-0.336
	C43.323,22.733,43.256,22.574,43.211,22.4z M51.413,28.8c-0.146-0.095-0.29-0.164-0.435-0.206c-0.146-0.044-0.26-0.074-0.343-0.092
	c-0.276-0.067-0.499-0.125-0.67-0.17c-0.171-0.047-0.304-0.092-0.401-0.137c-0.096-0.045-0.16-0.094-0.193-0.148
	c-0.033-0.053-0.049-0.123-0.049-0.209c0-0.094,0.019-0.173,0.061-0.235c0.041-0.062,0.094-0.112,0.157-0.153
	s0.134-0.07,0.212-0.088c0.079-0.016,0.158-0.022,0.235-0.022c0.119,0,0.229,0.009,0.33,0.03c0.101,0.02,0.19,0.055,0.269,0.104
	c0.078,0.051,0.141,0.118,0.188,0.205c0.049,0.084,0.076,0.194,0.085,0.324h0.938c0-0.252-0.05-0.471-0.146-0.649
	c-0.096-0.178-0.227-0.325-0.391-0.44s-0.353-0.199-0.565-0.25c-0.21-0.051-0.431-0.078-0.663-0.078
	c-0.197,0-0.394,0.027-0.592,0.081c-0.199,0.054-0.375,0.137-0.532,0.247c-0.155,0.11-0.282,0.25-0.378,0.416
	c-0.098,0.168-0.145,0.363-0.145,0.589c0,0.202,0.037,0.373,0.113,0.517c0.076,0.141,0.176,0.26,0.299,0.354
	c0.124,0.094,0.264,0.172,0.42,0.231c0.156,0.061,0.317,0.109,0.481,0.15c0.161,0.046,0.319,0.087,0.475,0.124
	c0.156,0.037,0.296,0.08,0.42,0.13s0.224,0.11,0.3,0.185s0.114,0.172,0.114,0.291c0,0.109-0.028,0.201-0.087,0.273
	s-0.129,0.131-0.215,0.17c-0.088,0.041-0.18,0.068-0.278,0.084c-0.098,0.014-0.191,0.021-0.278,0.021
	c-0.127,0-0.25-0.017-0.369-0.047c-0.118-0.031-0.224-0.078-0.311-0.142c-0.09-0.063-0.16-0.148-0.213-0.251
	c-0.055-0.102-0.081-0.227-0.081-0.376h-0.938c-0.005,0.272,0.045,0.507,0.148,0.702c0.101,0.199,0.239,0.361,0.416,0.49
	c0.175,0.126,0.376,0.221,0.604,0.279c0.229,0.06,0.463,0.09,0.707,0.09c0.3,0,0.564-0.035,0.792-0.104s0.419-0.169,0.573-0.293
	c0.154-0.126,0.271-0.274,0.35-0.448c0.078-0.172,0.117-0.359,0.117-0.562c0-0.244-0.054-0.447-0.158-0.606
	C51.684,29.019,51.559,28.895,51.413,28.8z M40.229,31.095h0.969v-4.403h-0.969V31.095z M44.252,29.199h2.135v-0.752h-2.135v-0.943
	h2.324v-0.814h-3.293v4.404h3.343v-0.814H44.25v-1.08H44.252z"/>
</svg>
