<?xml version="1.0" encoding="utf-8"?>
<!-- Generator: Adobe Illustrator 15.1.0, SVG Export Plug-In  -->
<!DOCTYPE svg PUBLIC "-//W3C//DTD SVG 1.1//EN" "http://www.w3.org/Graphics/SVG/1.1/DTD/svg11.dtd" [
	<!ENTITY ns_flows "http://ns.adobe.com/Flows/1.0/">
]>
<svg version="1.1"
	 xmlns="http://www.w3.org/2000/svg" xmlns:xlink="http://www.w3.org/1999/xlink" xmlns:a="http://ns.adobe.com/AdobeSVGViewerExtensions/3.0/"
	 x="0px" y="0px" width="80px" height="53px" viewBox="-12.781 -18.341 80 53"
	 overflow="visible" enable-background="new -12.781 -18.341 80 53" xml:space="preserve">
<defs>
</defs>
<path fill="#231F20" d="M30.038,4.497c0.256-0.116,0.473-0.278,0.645-0.482c0.172-0.205,0.301-0.447,0.387-0.729
	c0.086-0.28,0.127-0.587,0.127-0.919c0-0.38-0.053-0.711-0.154-0.992c-0.104-0.281-0.25-0.515-0.436-0.703S30.2,0.344,29.946,0.25
	c-0.254-0.095-0.525-0.141-0.822-0.141h-1.968v4.563h1.968C29.473,4.673,29.778,4.614,30.038,4.497z M28.161,3.83V0.953h0.715
	c0.246,0,0.453,0.035,0.623,0.104c0.168,0.07,0.305,0.171,0.406,0.304s0.176,0.29,0.221,0.477c0.045,0.186,0.066,0.395,0.066,0.623
	c0,0.252-0.031,0.465-0.094,0.639c-0.064,0.176-0.15,0.317-0.256,0.426c-0.107,0.109-0.227,0.188-0.365,0.232
	C29.342,3.807,29.2,3.83,29.055,3.83H28.161z M39.834,2.89h1.002c0.252,0,0.434,0.056,0.545,0.165
	c0.111,0.111,0.182,0.287,0.217,0.524c0.025,0.185,0.045,0.376,0.057,0.577c0.016,0.199,0.047,0.372,0.102,0.516h1.006
	c-0.049-0.062-0.084-0.141-0.105-0.232c-0.023-0.094-0.041-0.189-0.053-0.291s-0.02-0.202-0.021-0.3s-0.008-0.184-0.014-0.255
	c-0.008-0.115-0.023-0.232-0.049-0.346c-0.023-0.116-0.059-0.221-0.109-0.317c-0.053-0.096-0.117-0.179-0.201-0.249
	c-0.08-0.069-0.182-0.122-0.305-0.156V2.512c0.254-0.102,0.439-0.25,0.553-0.446s0.172-0.429,0.172-0.698
	c0-0.172-0.033-0.338-0.096-0.488c-0.061-0.15-0.15-0.285-0.268-0.4c-0.117-0.114-0.258-0.205-0.422-0.271
	c-0.166-0.066-0.348-0.099-0.553-0.099h-2.463v4.563h1.006V2.89L39.834,2.89z M39.834,0.888h1.098c0.23,0,0.402,0.051,0.52,0.151
	c0.115,0.101,0.172,0.262,0.172,0.482c0,0.229-0.057,0.396-0.172,0.499c-0.117,0.102-0.289,0.154-0.52,0.154h-1.098V0.888z
	 M22.08,1.618h0.015l1.897,3.055h1.004V0.109h-0.939V3.17h-0.014l-1.904-3.061h-0.997v4.563h0.938V1.618z M34.059,3.656h1.709
	l0.344,1.016h1.043l-1.707-4.563h-1.029l-1.725,4.563h1.01L34.059,3.656z M34.918,1.234h0.014l0.574,1.676h-1.184L34.918,1.234z
	 M47.604,4.497c0.258-0.116,0.473-0.278,0.646-0.482c0.172-0.205,0.301-0.447,0.385-0.729c0.088-0.28,0.131-0.587,0.131-0.919
	c0-0.38-0.053-0.711-0.158-0.992c-0.104-0.281-0.248-0.515-0.436-0.703c-0.186-0.188-0.404-0.327-0.658-0.421
	c-0.254-0.095-0.525-0.141-0.822-0.141h-1.969v4.563h1.969C47.043,4.673,47.346,4.614,47.604,4.497z M45.727,3.83V0.953h0.717
	c0.246,0,0.455,0.035,0.623,0.104c0.168,0.07,0.305,0.171,0.406,0.304c0.104,0.133,0.176,0.29,0.219,0.477
	c0.047,0.186,0.068,0.395,0.068,0.623c0,0.252-0.031,0.465-0.096,0.639c-0.064,0.176-0.148,0.317-0.256,0.426
	c-0.105,0.109-0.227,0.188-0.365,0.232c-0.135,0.049-0.273,0.072-0.42,0.072H45.727z M31.7,15.793
	c-0.012-0.104-0.02-0.203-0.021-0.301c-0.006-0.098-0.012-0.184-0.014-0.256c-0.01-0.115-0.023-0.23-0.049-0.344
	c-0.021-0.117-0.062-0.221-0.111-0.318c-0.051-0.094-0.117-0.178-0.199-0.248c-0.08-0.07-0.184-0.123-0.307-0.158v-0.012
	c0.256-0.102,0.439-0.252,0.553-0.445c0.113-0.197,0.172-0.432,0.172-0.701c0-0.174-0.031-0.334-0.094-0.486s-0.152-0.283-0.27-0.4
	c-0.117-0.115-0.258-0.205-0.422-0.271s-0.348-0.098-0.553-0.098h-2.463v4.562h1.006v-1.783h1.004c0.252,0,0.432,0.059,0.543,0.166
	c0.109,0.111,0.182,0.287,0.217,0.525c0.025,0.182,0.045,0.375,0.057,0.576c0.014,0.199,0.049,0.373,0.104,0.516h1.002
	c-0.047-0.062-0.082-0.143-0.104-0.232C31.727,15.993,31.708,15.895,31.7,15.793z M30.545,13.665
	c-0.117,0.102-0.287,0.154-0.518,0.154h-1.1v-1.287h1.1c0.23,0,0.4,0.053,0.518,0.15c0.113,0.102,0.174,0.262,0.174,0.482
	C30.717,13.395,30.659,13.561,30.545,13.665z M34.823,14.354h2.211v-0.779h-2.211v-0.979h2.41v-0.842h-3.414v4.562h3.463v-0.844
	h-2.459V14.354z M23.513,11.754l-1.727,4.562h1.012l0.358-1.016h1.706l0.346,1.016h1.042l-1.707-4.562H23.513z M23.417,14.553
	l0.594-1.674h0.014l0.576,1.674H23.417z M43.014,15.793c-0.012-0.104-0.02-0.203-0.021-0.301c-0.006-0.098-0.01-0.184-0.016-0.256
	c-0.006-0.115-0.021-0.23-0.045-0.344c-0.025-0.117-0.062-0.221-0.113-0.318c-0.051-0.094-0.115-0.178-0.197-0.248
	s-0.184-0.123-0.309-0.158v-0.012c0.256-0.102,0.439-0.252,0.553-0.445c0.113-0.197,0.17-0.432,0.17-0.701
	c0-0.174-0.029-0.334-0.09-0.486c-0.064-0.152-0.154-0.283-0.27-0.4c-0.117-0.115-0.258-0.205-0.422-0.271
	c-0.166-0.066-0.348-0.098-0.555-0.098h-2.461v4.562h1.004v-1.783h1.002c0.254,0,0.434,0.059,0.545,0.166
	c0.111,0.111,0.184,0.287,0.217,0.525c0.027,0.182,0.045,0.375,0.057,0.576c0.014,0.199,0.049,0.373,0.105,0.516h1.002
	c-0.047-0.062-0.082-0.143-0.105-0.232C43.042,15.993,43.024,15.895,43.014,15.793z M41.858,13.665
	c-0.113,0.102-0.285,0.154-0.516,0.154h-1.1v-1.287h1.1c0.23,0,0.402,0.053,0.516,0.15c0.117,0.102,0.176,0.262,0.176,0.482
	C42.034,13.395,41.975,13.561,41.858,13.665z M0,7.62v1.212h54.438V7.62H0z M17.851,14.354h2.211v-0.779h-2.211v-0.979h2.408v-0.842
	h-3.413v4.562h3.464v-0.844h-2.459V14.354L17.851,14.354z M16.372,3.656h1.706l0.346,1.016h1.04l-1.705-4.563H16.73l-1.727,4.563
	h1.011L16.372,3.656z M17.228,1.234h0.015l0.575,1.676h-1.182L17.228,1.234z M7.729,3.893C7.64,3.937,7.542,3.964,7.442,3.98
	C7.339,3.995,7.243,4.002,7.153,4.002c-0.133,0-0.26-0.017-0.385-0.049c-0.121-0.032-0.229-0.08-0.32-0.146
	C6.355,3.742,6.281,3.654,6.228,3.549C6.171,3.44,6.144,3.311,6.144,3.157H5.172C5.167,3.44,5.218,3.683,5.325,3.888
	c0.107,0.204,0.25,0.373,0.433,0.503c0.18,0.134,0.388,0.23,0.625,0.294c0.236,0.06,0.479,0.091,0.731,0.091
	c0.312,0,0.586-0.035,0.822-0.106C8.174,4.595,8.373,4.495,8.53,4.363C8.69,4.233,8.812,4.077,8.894,3.9
	c0.08-0.18,0.119-0.374,0.119-0.582c0-0.256-0.055-0.466-0.163-0.632C8.742,2.524,8.613,2.393,8.464,2.296
	c-0.15-0.099-0.299-0.17-0.45-0.215C7.862,2.035,7.745,2.006,7.658,1.988C7.372,1.916,7.14,1.856,6.964,1.81
	C6.789,1.762,6.649,1.716,6.55,1.668c-0.1-0.046-0.169-0.099-0.202-0.152C6.313,1.459,6.296,1.387,6.296,1.297
	c0-0.097,0.021-0.18,0.063-0.242c0.043-0.063,0.098-0.116,0.164-0.159c0.064-0.043,0.14-0.074,0.22-0.091
	C6.825,0.787,6.907,0.78,6.986,0.78c0.123,0,0.239,0.011,0.341,0.03c0.105,0.021,0.197,0.058,0.28,0.109
	c0.08,0.052,0.145,0.122,0.194,0.212C7.85,1.222,7.88,1.334,7.888,1.471h0.971c0-0.266-0.049-0.489-0.148-0.673
	C8.609,0.61,8.478,0.458,8.304,0.339C8.132,0.219,7.94,0.133,7.719,0.081C7.498,0.027,7.271,0,7.031,0
	C6.828,0,6.622,0.027,6.418,0.082c-0.205,0.056-0.39,0.141-0.55,0.257C5.706,0.454,5.575,0.598,5.476,0.771s-0.15,0.376-0.15,0.611
	c0,0.21,0.039,0.387,0.117,0.533c0.079,0.146,0.184,0.269,0.312,0.366s0.272,0.178,0.435,0.241C6.35,2.583,6.516,2.636,6.687,2.678
	c0.166,0.047,0.33,0.091,0.492,0.13C7.341,2.845,7.485,2.89,7.614,2.94c0.129,0.052,0.23,0.114,0.309,0.191
	c0.08,0.078,0.119,0.179,0.119,0.302c0,0.115-0.029,0.21-0.09,0.284C7.893,3.792,7.818,3.85,7.729,3.893z M11.897,4.673h1.004v-3.72
	h1.367V0.109h-3.74v0.844h1.369V4.673z M14.051,13.838c0.206-0.1,0.36-0.225,0.464-0.379c0.105-0.152,0.156-0.344,0.156-0.574
	c0-0.213-0.033-0.393-0.105-0.539c-0.068-0.143-0.169-0.26-0.296-0.346c-0.128-0.09-0.282-0.152-0.461-0.191
	c-0.178-0.035-0.377-0.057-0.594-0.057h-2.149v4.564h2.212c0.206,0,0.403-0.025,0.597-0.076c0.194-0.053,0.367-0.131,0.52-0.236
	c0.149-0.107,0.271-0.244,0.359-0.412c0.092-0.168,0.135-0.367,0.135-0.6c0-0.283-0.068-0.529-0.207-0.73
	S14.332,13.917,14.051,13.838z M12.069,12.532h0.94c0.089,0,0.175,0.01,0.259,0.023c0.082,0.014,0.156,0.041,0.221,0.08
	c0.062,0.039,0.115,0.09,0.152,0.16c0.037,0.068,0.057,0.156,0.057,0.262c0,0.191-0.057,0.33-0.172,0.418
	c-0.116,0.084-0.262,0.127-0.441,0.127h-1.017L12.069,12.532L12.069,12.532z M13.825,15.233c-0.043,0.074-0.096,0.135-0.163,0.18
	c-0.069,0.045-0.147,0.076-0.237,0.096s-0.184,0.029-0.282,0.029h-1.074v-1.254h1.093c0.219,0,0.394,0.051,0.523,0.152
	c0.133,0.1,0.199,0.266,0.199,0.5C13.885,15.055,13.864,15.155,13.825,15.233z"/>
</svg>
