<?xml version="1.0" encoding="utf-8"?>
<!-- Generator: Adobe Illustrator 15.1.0, SVG Export Plug-In  -->
<!DOCTYPE svg PUBLIC "-//W3C//DTD SVG 1.1//EN" "http://www.w3.org/Graphics/SVG/1.1/DTD/svg11.dtd" [
	<!ENTITY ns_flows "http://ns.adobe.com/Flows/1.0/">
]>
<svg version="1.1"
	 xmlns="http://www.w3.org/2000/svg" xmlns:xlink="http://www.w3.org/1999/xlink" xmlns:a="http://ns.adobe.com/AdobeSVGViewerExtensions/3.0/"
	 x="0px" y="0px" width="100px" height="67px" viewBox="0 -5.525 100 67"
	 overflow="visible" enable-background="new 0 -5.525 100 67" xml:space="preserve">
<defs>
</defs>
<path fill="#010101" d="M12.457,38.806v-1.221H7.826v6.593h1.447v-2.726h2.76v-1.126h-2.76v-1.521H12.457z M13.273,54.495
	c-0.014-0.148-0.025-0.293-0.031-0.436c-0.006-0.142-0.012-0.266-0.02-0.369c-0.013-0.167-0.036-0.333-0.068-0.5
	c-0.034-0.165-0.088-0.319-0.16-0.458c-0.074-0.136-0.171-0.26-0.29-0.359c-0.116-0.102-0.264-0.176-0.441-0.227v-0.019
	c0.368-0.147,0.634-0.364,0.8-0.646c0.162-0.281,0.244-0.619,0.244-1.006c0-0.254-0.045-0.489-0.135-0.706
	c-0.089-0.219-0.217-0.412-0.387-0.575c-0.17-0.167-0.373-0.299-0.611-0.395c-0.236-0.093-0.501-0.142-0.796-0.142H7.826v6.587
	h1.447v-2.573h1.45c0.362,0,0.624,0.08,0.784,0.24c0.161,0.161,0.266,0.413,0.315,0.755c0.035,0.266,0.063,0.542,0.083,0.834
	c0.018,0.286,0.065,0.535,0.146,0.744h1.452c-0.071-0.092-0.12-0.205-0.154-0.335C13.314,54.782,13.289,54.643,13.273,54.495z
	 M11.608,51.419c-0.165,0.148-0.415,0.223-0.747,0.223H9.273v-1.856h1.588c0.332,0,0.58,0.073,0.746,0.218
	c0.166,0.146,0.25,0.377,0.25,0.696C11.857,51.032,11.773,51.273,11.608,51.419z M20.873,33.1v-6.588h-1.445v2.53h-2.667v-2.53
	h-1.45V33.1h1.447v-2.843h2.668V33.1H20.873z M34.682,44.178h1.449v-6.593h-1.449V44.178z M35.51,31.325h1.895V0H0v55.5h1.897V1.897
	H35.51V31.325L35.51,31.325z M9.283,33.1h1.449v-5.371h1.972v-1.218H7.309v1.218h1.975V33.1L9.283,33.1z M28.923,27.729v-1.218
	h-4.928V33.1h5.001v-1.219h-3.555v-1.614h3.194v-1.126h-3.194v-1.412H28.923z M37.985,53.192h-0.019l-1.541-4.53h-2.037v6.592h1.354
	v-4.626h0.019l1.617,4.626h1.116l1.616-4.673h0.018v4.673h1.359v-6.592h-2.041L37.985,53.192z M16.591,37.585h-1.448v6.593h1.448
	V37.585z M26.68,38.806h1.977v5.372h1.448v-5.372h1.976v-1.221h-5.399L26.68,38.806L26.68,38.806z M50.997,40.614v1.079h1.459
	c-0.044,0.459-0.195,0.812-0.456,1.057c-0.263,0.243-0.633,0.365-1.113,0.365c-0.324,0-0.602-0.064-0.829-0.188
	c-0.229-0.126-0.413-0.297-0.555-0.502c-0.141-0.208-0.244-0.447-0.31-0.706c-0.063-0.264-0.097-0.53-0.097-0.809
	c0-0.287,0.033-0.567,0.097-0.84c0.065-0.27,0.169-0.511,0.31-0.726c0.142-0.212,0.326-0.383,0.555-0.505
	c0.228-0.127,0.504-0.193,0.829-0.193c0.349,0,0.649,0.094,0.896,0.28s0.413,0.459,0.5,0.831h1.384
	c-0.036-0.377-0.138-0.71-0.306-0.996c-0.168-0.29-0.379-0.534-0.633-0.729c-0.254-0.199-0.541-0.348-0.856-0.447
	c-0.316-0.103-0.645-0.151-0.98-0.151c-0.503,0-0.961,0.085-1.362,0.268c-0.402,0.176-0.741,0.422-1.021,0.736
	c-0.275,0.314-0.49,0.682-0.637,1.103c-0.147,0.42-0.223,0.88-0.223,1.37c0,0.482,0.075,0.93,0.223,1.344
	c0.148,0.414,0.361,0.776,0.637,1.086c0.275,0.307,0.618,0.547,1.021,0.725c0.401,0.173,0.857,0.264,1.362,0.264
	c0.319,0,0.636-0.066,0.952-0.201c0.312-0.13,0.599-0.362,0.855-0.694l0.149,0.747h0.922v-3.562L50.997,40.614L50.997,40.614z
	 M43.459,42.006h-0.021l-2.75-4.421h-1.44v6.589h1.355v-4.411h0.022l2.741,4.411h1.445v-6.589h-1.354V42.006z M21.667,49.509
	c-0.274-0.313-0.614-0.561-1.015-0.736c-0.399-0.181-0.857-0.271-1.364-0.271s-0.961,0.091-1.361,0.271
	c-0.403,0.176-0.743,0.423-1.022,0.736c-0.275,0.314-0.489,0.682-0.635,1.103c-0.149,0.425-0.221,0.879-0.221,1.372
	c0,0.479,0.074,0.93,0.221,1.345c0.146,0.413,0.36,0.773,0.635,1.085c0.277,0.307,0.619,0.547,1.022,0.721
	c0.4,0.175,0.854,0.266,1.361,0.266s0.965-0.089,1.364-0.266c0.399-0.174,0.737-0.414,1.015-0.721
	c0.276-0.312,0.491-0.672,0.638-1.085c0.146-0.415,0.219-0.866,0.219-1.345c0-0.493-0.073-0.947-0.219-1.372
	C22.158,50.19,21.945,49.823,21.667,49.509z M20.979,52.791c-0.062,0.263-0.164,0.497-0.308,0.707
	c-0.142,0.207-0.324,0.377-0.554,0.501c-0.225,0.127-0.502,0.189-0.829,0.189c-0.328,0-0.604-0.062-0.832-0.189
	c-0.228-0.126-0.414-0.294-0.556-0.501c-0.14-0.21-0.243-0.444-0.308-0.707c-0.064-0.262-0.096-0.53-0.096-0.808
	c0-0.287,0.031-0.566,0.096-0.838c0.064-0.272,0.169-0.515,0.308-0.729c0.142-0.21,0.327-0.377,0.556-0.506
	c0.228-0.123,0.504-0.188,0.832-0.188c0.327,0,0.604,0.064,0.829,0.188c0.229,0.13,0.412,0.296,0.554,0.506
	c0.145,0.213,0.245,0.456,0.308,0.729c0.067,0.268,0.1,0.549,0.1,0.838C21.078,52.261,21.046,52.531,20.979,52.791z M19.194,38.806
	h1.977v5.372h1.448v-5.372h1.975v-1.221h-5.399V38.806z M30.694,49.509c-0.276-0.313-0.616-0.561-1.016-0.736
	c-0.399-0.181-0.857-0.271-1.365-0.271c-0.505,0-0.961,0.091-1.36,0.271c-0.404,0.176-0.743,0.423-1.022,0.736
	c-0.274,0.314-0.489,0.682-0.636,1.103c-0.147,0.425-0.22,0.879-0.22,1.372c0,0.479,0.072,0.93,0.22,1.345
	c0.147,0.413,0.361,0.773,0.636,1.085c0.277,0.307,0.618,0.547,1.022,0.721c0.402,0.175,0.855,0.266,1.36,0.266
	c0.508,0,0.966-0.089,1.365-0.266c0.399-0.174,0.735-0.414,1.016-0.721c0.279-0.312,0.49-0.672,0.639-1.085
	c0.147-0.415,0.219-0.866,0.219-1.345c0-0.493-0.071-0.947-0.219-1.372C31.185,50.19,30.974,49.823,30.694,49.509z M30.011,52.791
	c-0.068,0.263-0.171,0.497-0.312,0.707c-0.142,0.207-0.325,0.377-0.554,0.501c-0.228,0.127-0.505,0.189-0.831,0.189
	c-0.327,0-0.604-0.062-0.829-0.189c-0.229-0.126-0.412-0.294-0.558-0.501c-0.142-0.21-0.243-0.444-0.308-0.707
	c-0.065-0.262-0.097-0.53-0.097-0.808c0-0.287,0.031-0.566,0.097-0.838c0.064-0.272,0.166-0.515,0.308-0.729
	c0.146-0.21,0.328-0.377,0.558-0.506c0.225-0.123,0.503-0.188,0.829-0.188s0.604,0.064,0.831,0.188
	c0.229,0.13,0.412,0.296,0.554,0.506c0.142,0.213,0.244,0.456,0.312,0.729c0.061,0.268,0.094,0.549,0.094,0.838
	C30.104,52.261,30.071,52.531,30.011,52.791z"/>
<path fill="#010101" d="M12.457,38.806v-1.221H7.826v6.593h1.447v-2.726h2.76v-1.126h-2.76v-1.521H12.457z M13.273,54.495
	c-0.014-0.148-0.025-0.293-0.031-0.436c-0.006-0.142-0.012-0.266-0.02-0.369c-0.013-0.167-0.036-0.333-0.068-0.5
	c-0.034-0.165-0.088-0.319-0.16-0.458c-0.074-0.136-0.171-0.26-0.29-0.359c-0.116-0.102-0.264-0.176-0.441-0.227v-0.019
	c0.368-0.147,0.634-0.364,0.8-0.646c0.162-0.281,0.244-0.619,0.244-1.006c0-0.254-0.045-0.489-0.135-0.706
	c-0.089-0.219-0.217-0.412-0.387-0.575c-0.17-0.167-0.373-0.299-0.611-0.395c-0.236-0.093-0.501-0.142-0.796-0.142H7.826v6.587
	h1.447v-2.573h1.45c0.362,0,0.624,0.08,0.784,0.24c0.161,0.161,0.266,0.413,0.315,0.755c0.035,0.266,0.063,0.542,0.083,0.834
	c0.018,0.286,0.065,0.535,0.146,0.744h1.452c-0.071-0.092-0.12-0.205-0.154-0.335C13.314,54.782,13.289,54.643,13.273,54.495z
	 M11.608,51.419c-0.165,0.148-0.415,0.223-0.747,0.223H9.273v-1.856h1.588c0.332,0,0.58,0.073,0.746,0.218
	c0.166,0.146,0.25,0.377,0.25,0.696C11.857,51.032,11.773,51.273,11.608,51.419z M20.873,33.1v-6.588h-1.445v2.53h-2.667v-2.53
	h-1.45V33.1h1.447v-2.843h2.668V33.1H20.873z M34.682,44.178h1.449v-6.593h-1.449V44.178z M35.51,31.325h1.895V0H0v55.5h1.897V1.897
	H35.51V31.325L35.51,31.325z M9.283,33.1h1.449v-5.371h1.972v-1.218H7.309v1.218h1.975V33.1L9.283,33.1z M28.923,27.729v-1.218
	h-4.928V33.1h5.001v-1.219h-3.555v-1.614h3.194v-1.126h-3.194v-1.412H28.923z M37.985,53.192h-0.019l-1.541-4.53h-2.037v6.592h1.354
	v-4.626h0.019l1.617,4.626h1.116l1.616-4.673h0.018v4.673h1.359v-6.592h-2.041L37.985,53.192z M16.591,37.585h-1.448v6.593h1.448
	V37.585z M26.68,38.806h1.977v5.372h1.448v-5.372h1.976v-1.221h-5.399L26.68,38.806L26.68,38.806z M50.997,40.614v1.079h1.459
	c-0.044,0.459-0.195,0.812-0.456,1.057c-0.263,0.243-0.633,0.365-1.113,0.365c-0.324,0-0.602-0.064-0.829-0.188
	c-0.229-0.126-0.413-0.297-0.555-0.502c-0.141-0.208-0.244-0.447-0.31-0.706c-0.063-0.264-0.097-0.53-0.097-0.809
	c0-0.287,0.033-0.567,0.097-0.84c0.065-0.27,0.169-0.511,0.31-0.726c0.142-0.212,0.326-0.383,0.555-0.505
	c0.228-0.127,0.504-0.193,0.829-0.193c0.349,0,0.649,0.094,0.896,0.28s0.413,0.459,0.5,0.831h1.384
	c-0.036-0.377-0.138-0.71-0.306-0.996c-0.168-0.29-0.379-0.534-0.633-0.729c-0.254-0.199-0.541-0.348-0.856-0.447
	c-0.316-0.103-0.645-0.151-0.98-0.151c-0.503,0-0.961,0.085-1.362,0.268c-0.402,0.176-0.741,0.422-1.021,0.736
	c-0.275,0.314-0.49,0.682-0.637,1.103c-0.147,0.42-0.223,0.88-0.223,1.37c0,0.482,0.075,0.93,0.223,1.344
	c0.148,0.414,0.361,0.776,0.637,1.086c0.275,0.307,0.618,0.547,1.021,0.725c0.401,0.173,0.857,0.264,1.362,0.264
	c0.319,0,0.636-0.066,0.952-0.201c0.312-0.13,0.599-0.362,0.855-0.694l0.149,0.747h0.922v-3.562L50.997,40.614L50.997,40.614z
	 M43.459,42.006h-0.021l-2.75-4.421h-1.44v6.589h1.355v-4.411h0.022l2.741,4.411h1.445v-6.589h-1.354V42.006z M21.667,49.509
	c-0.274-0.313-0.614-0.561-1.015-0.736c-0.399-0.181-0.857-0.271-1.364-0.271s-0.961,0.091-1.361,0.271
	c-0.403,0.176-0.743,0.423-1.022,0.736c-0.275,0.314-0.489,0.682-0.635,1.103c-0.149,0.425-0.221,0.879-0.221,1.372
	c0,0.479,0.074,0.93,0.221,1.345c0.146,0.413,0.36,0.773,0.635,1.085c0.277,0.307,0.619,0.547,1.022,0.721
	c0.4,0.175,0.854,0.266,1.361,0.266s0.965-0.089,1.364-0.266c0.399-0.174,0.737-0.414,1.015-0.721
	c0.276-0.312,0.491-0.672,0.638-1.085c0.146-0.415,0.219-0.866,0.219-1.345c0-0.493-0.073-0.947-0.219-1.372
	C22.158,50.19,21.945,49.823,21.667,49.509z M20.979,52.791c-0.062,0.263-0.164,0.497-0.308,0.707
	c-0.142,0.207-0.324,0.377-0.554,0.501c-0.225,0.127-0.502,0.189-0.829,0.189c-0.328,0-0.604-0.062-0.832-0.189
	c-0.228-0.126-0.414-0.294-0.556-0.501c-0.14-0.21-0.243-0.444-0.308-0.707c-0.064-0.262-0.096-0.53-0.096-0.808
	c0-0.287,0.031-0.566,0.096-0.838c0.064-0.272,0.169-0.515,0.308-0.729c0.142-0.21,0.327-0.377,0.556-0.506
	c0.228-0.123,0.504-0.188,0.832-0.188c0.327,0,0.604,0.064,0.829,0.188c0.229,0.13,0.412,0.296,0.554,0.506
	c0.145,0.213,0.245,0.456,0.308,0.729c0.067,0.268,0.1,0.549,0.1,0.838C21.078,52.261,21.046,52.531,20.979,52.791z M19.194,38.806
	h1.977v5.372h1.448v-5.372h1.975v-1.221h-5.399V38.806z M30.694,49.509c-0.276-0.313-0.616-0.561-1.016-0.736
	c-0.399-0.181-0.857-0.271-1.365-0.271c-0.505,0-0.961,0.091-1.36,0.271c-0.404,0.176-0.743,0.423-1.022,0.736
	c-0.274,0.314-0.489,0.682-0.636,1.103c-0.147,0.425-0.22,0.879-0.22,1.372c0,0.479,0.072,0.93,0.22,1.345
	c0.147,0.413,0.361,0.773,0.636,1.085c0.277,0.307,0.618,0.547,1.022,0.721c0.402,0.175,0.855,0.266,1.36,0.266
	c0.508,0,0.966-0.089,1.365-0.266c0.399-0.174,0.735-0.414,1.016-0.721c0.279-0.312,0.49-0.672,0.639-1.085
	c0.147-0.415,0.219-0.866,0.219-1.345c0-0.493-0.071-0.947-0.219-1.372C31.185,50.19,30.974,49.823,30.694,49.509z M30.011,52.791
	c-0.068,0.263-0.171,0.497-0.312,0.707c-0.142,0.207-0.325,0.377-0.554,0.501c-0.228,0.127-0.505,0.189-0.831,0.189
	c-0.327,0-0.604-0.062-0.829-0.189c-0.229-0.126-0.412-0.294-0.558-0.501c-0.142-0.21-0.243-0.444-0.308-0.707
	c-0.065-0.262-0.097-0.53-0.097-0.808c0-0.287,0.031-0.566,0.097-0.838c0.064-0.272,0.166-0.515,0.308-0.729
	c0.146-0.21,0.328-0.377,0.558-0.506c0.225-0.123,0.503-0.188,0.829-0.188s0.604,0.064,0.831,0.188
	c0.229,0.13,0.412,0.296,0.554,0.506c0.142,0.213,0.244,0.456,0.312,0.729c0.061,0.268,0.094,0.549,0.094,0.838
	C30.104,52.261,30.071,52.531,30.011,52.791z"/>
</svg>
