<?xml version="1.0" encoding="utf-8"?>
<!-- Generator: Adobe Illustrator 15.1.0, SVG Export Plug-In . SVG Version: 6.00 Build 0)  -->
<!DOCTYPE svg PUBLIC "-//W3C//DTD SVG 1.1//EN" "http://www.w3.org/Graphics/SVG/1.1/DTD/svg11.dtd">
<svg version="1.1" id="Layer_1" xmlns="http://www.w3.org/2000/svg" xmlns:xlink="http://www.w3.org/1999/xlink" x="0px" y="0px"
	 width="80px" height="53px" viewBox="0 0 80 53" enable-background="new 0 0 80 53" xml:space="preserve">
<path d="M20.612,23.688c-0.111,0.318-0.168,0.664-0.168,1.036c0,0.362,0.057,0.701,0.168,1.016c0.111,0.313,0.271,0.587,0.48,0.819
	c0.209,0.232,0.466,0.415,0.771,0.548c0.305,0.131,0.646,0.199,1.029,0.199c0.308,0,0.589-0.047,0.845-0.142
	c0.255-0.093,0.479-0.228,0.669-0.404c0.191-0.177,0.345-0.392,0.461-0.642c0.116-0.251,0.188-0.532,0.216-0.845h-1.061
	c-0.041,0.335-0.156,0.605-0.345,0.81c-0.188,0.205-0.45,0.308-0.785,0.308c-0.247,0-0.456-0.049-0.628-0.144
	c-0.172-0.095-0.312-0.223-0.419-0.38c-0.105-0.158-0.185-0.337-0.232-0.534c-0.049-0.198-0.073-0.401-0.073-0.61
	c0-0.219,0.024-0.431,0.073-0.635c0.049-0.205,0.127-0.388,0.232-0.548c0.106-0.16,0.247-0.288,0.419-0.384
	c0.172-0.096,0.381-0.144,0.628-0.144c0.135,0,0.264,0.022,0.388,0.067c0.123,0.043,0.233,0.105,0.331,0.184
	c0.098,0.08,0.179,0.172,0.244,0.276s0.106,0.22,0.126,0.345h1.061c-0.033-0.288-0.112-0.543-0.237-0.769
	c-0.126-0.223-0.285-0.41-0.479-0.562c-0.193-0.15-0.412-0.266-0.655-0.345c-0.244-0.079-0.504-0.119-0.778-0.119
	c-0.382,0-0.725,0.067-1.029,0.203c-0.305,0.134-0.562,0.32-0.771,0.558C20.884,23.093,20.724,23.37,20.612,23.688z M23.138,34.316
	c-0.098,0.047-0.202,0.078-0.312,0.095c-0.112,0.017-0.217,0.024-0.314,0.024c-0.145,0-0.284-0.019-0.418-0.054
	c-0.136-0.034-0.253-0.088-0.354-0.159c-0.1-0.072-0.18-0.168-0.24-0.283c-0.061-0.115-0.091-0.258-0.091-0.426h-1.061
	c-0.004,0.309,0.051,0.572,0.168,0.795c0.116,0.225,0.273,0.407,0.471,0.553c0.197,0.144,0.426,0.25,0.685,0.316
	c0.257,0.067,0.523,0.102,0.798,0.102c0.34,0,0.639-0.039,0.897-0.118c0.258-0.079,0.474-0.19,0.648-0.331
	c0.174-0.143,0.306-0.311,0.394-0.506c0.089-0.195,0.133-0.407,0.133-0.637c0-0.277-0.06-0.506-0.178-0.687
	c-0.118-0.181-0.259-0.321-0.422-0.429c-0.163-0.108-0.327-0.186-0.492-0.234c-0.165-0.048-0.294-0.083-0.387-0.102
	c-0.312-0.078-0.564-0.145-0.757-0.194c-0.194-0.052-0.345-0.104-0.454-0.153c-0.109-0.051-0.183-0.107-0.22-0.168
	c-0.037-0.06-0.056-0.14-0.056-0.236c0-0.107,0.022-0.196,0.069-0.266c0.046-0.07,0.105-0.128,0.178-0.175
	c0.073-0.047,0.152-0.08,0.241-0.099c0.088-0.02,0.177-0.026,0.266-0.026c0.135,0,0.259,0.011,0.373,0.034
	c0.114,0.021,0.215,0.062,0.303,0.117c0.089,0.058,0.16,0.134,0.214,0.23c0.053,0.098,0.084,0.221,0.094,0.369h1.061
	c0-0.287-0.055-0.533-0.164-0.734c-0.109-0.203-0.257-0.369-0.443-0.5s-0.398-0.225-0.639-0.283
	c-0.239-0.057-0.489-0.086-0.75-0.086c-0.224,0-0.446,0.029-0.67,0.09c-0.223,0.062-0.423,0.154-0.6,0.279
	c-0.177,0.125-0.319,0.283-0.429,0.471c-0.109,0.189-0.164,0.412-0.164,0.668c0,0.229,0.043,0.421,0.129,0.582
	c0.086,0.16,0.198,0.295,0.338,0.4c0.14,0.106,0.298,0.194,0.475,0.262c0.177,0.068,0.358,0.125,0.544,0.172
	c0.182,0.051,0.36,0.098,0.538,0.14c0.177,0.042,0.335,0.091,0.475,0.146c0.139,0.057,0.252,0.125,0.338,0.209
	s0.129,0.193,0.129,0.328c0,0.127-0.032,0.229-0.098,0.312C23.317,34.206,23.235,34.271,23.138,34.316z M32.676,34.533
	c0.209,0.23,0.467,0.416,0.771,0.548c0.305,0.132,0.646,0.198,1.029,0.198c0.386,0,0.73-0.066,1.032-0.198
	c0.303-0.132,0.559-0.315,0.768-0.548s0.37-0.506,0.481-0.82c0.112-0.314,0.167-0.652,0.167-1.014c0-0.373-0.055-0.719-0.167-1.037
	c-0.111-0.318-0.272-0.598-0.481-0.834c-0.209-0.237-0.465-0.422-0.768-0.559c-0.302-0.135-0.646-0.201-1.032-0.201
	c-0.382,0-0.725,0.066-1.029,0.201c-0.304,0.137-0.562,0.32-0.771,0.559c-0.21,0.236-0.37,0.516-0.481,0.834
	c-0.112,0.318-0.167,0.664-0.167,1.037c0,0.361,0.055,0.699,0.167,1.014C32.306,34.027,32.466,34.301,32.676,34.533z M33.195,32.062
	c0.049-0.203,0.127-0.387,0.233-0.547c0.107-0.16,0.247-0.289,0.419-0.385c0.172-0.096,0.382-0.145,0.628-0.145
	c0.246,0,0.456,0.049,0.628,0.145s0.312,0.225,0.419,0.385c0.106,0.16,0.185,0.344,0.233,0.547c0.049,0.205,0.074,0.416,0.074,0.637
	c0,0.207-0.025,0.41-0.074,0.609c-0.049,0.196-0.127,0.375-0.233,0.533c-0.107,0.157-0.247,0.284-0.419,0.381
	c-0.172,0.094-0.382,0.143-0.628,0.143c-0.246,0-0.456-0.049-0.628-0.143c-0.172-0.097-0.312-0.224-0.419-0.381
	c-0.105-0.158-0.185-0.337-0.233-0.533c-0.049-0.199-0.073-0.402-0.073-0.609C33.122,32.479,33.146,32.27,33.195,32.062z
	 M40.029,22.213h-1.095v4.98h1.095V22.213z M36.925,26.273h-2.428v-4.061h-1.096v4.981h3.523L36.925,26.273L36.925,26.273z
	 M27.688,35.168h1.095v-4.061h1.493v-0.922h-4.081v0.922h1.493V35.168z M41.039,42.497l0.974-1.649l-0.938-2.279h-1.441l0.896,2.172
	l-0.637,1.08l-0.159,0.27l-0.023,0.312l-0.077,1.107l-0.819,1.377l-0.282,0.477l0.137,0.535l0.335,1.312l0.082,0.32L31.278,48.9
	l-0.8-0.479l-0.075-0.044l-0.42-1.654l-0.1-0.394l-0.302-0.271l-2.428-2.18l-0.015-0.014l-0.016-0.014l-2.968-2.502l-0.298-0.25
	l-0.387-0.052l-2.003-0.265l-0.9-0.811l-0.341-0.307l-0.457-0.033l-1.111-0.078l-0.28-0.166l-0.235-0.139l-0.27-0.036l-1.78-0.233
	l0.05-0.229l0.065-0.305l-0.076-0.305l-0.334-1.314l-0.1-0.391l-0.3-0.271l-0.092-0.082l1.626-1.42l-2.595-0.561l-0.551-0.119
	l-1.029-1.19l-2.439-2.812l-0.009-0.037l0.369-0.621l0.283-0.477l-0.139-0.537L10.484,27l-0.137-0.534l-0.475-0.28l-1.337-0.794
	l0.637-0.554l0.62-0.538L9.59,23.503l-0.335-1.312L9.202,21.98l-0.118-0.183L8.31,20.596l-1.168-1.815L6.219,20.34l-0.004-0.771
	l-0.003-0.494l-0.323-0.372L4.6,17.219l-1.164-1.597l-0.097-1.823l0.093-1.34l0.035-0.503l-0.308-0.4l-1.82-2.374L1.335,8.063
	l1.071-2.368L2.6,5.269L2.483,4.814L2.338,4.246l0.361-1.667l0.118-0.541l-0.3-0.465L2.395,1.384l13.118,0.574l0.176,14.072
	l0.008,0.585l0.434,0.391l2.989,2.688h1.994l-4.092-3.68L16.83,0.681L1.272,0L0.623,1.098l0.774,1.198l-0.43,1.976l0.224,0.874
	L0,7.78l0.012,1.862l2.094,2.729l-0.099,1.42l0.123,2.301l1.431,1.961l1.325,1.527l0.01,1.865l1.648,0.974l0.649-1.098l0.773,1.202
	l0.335,1.312l-0.76,0.66L6.44,23.844l-0.212,0.987l1.318,1.527l1.649,0.978l0.337,1.311L8.88,29.744l0.227,0.878l2.644,3.051
	l1.32,1.524l0.985,0.214l-0.758,0.661l1.208,1.089l0.333,1.315l-0.212,0.985l0.663,0.763l2.409,0.316l0.551,0.324l1.426,0.102
	l1.209,1.088l2.411,0.316l2.968,2.502l2.427,2.18l0.556,2.188l0.548,0.326l-0.212,0.984l11.594-2.033l0.216-0.986l-1.1-0.65
	l-0.335-1.312l0.979-1.649L41.039,42.497z M28.196,26.085h1.863l0.377,1.108h1.137l-1.863-4.98h-1.123l-1.884,4.98h1.103
	L28.196,26.085z M29.131,23.44h0.015l0.628,1.828h-1.291L29.131,23.44z M45.568,24.285h-2.086v-1.151h2.408v-0.921h-3.504v4.98
	h1.096v-2.058h2.086V24.285z M67.742,27.193h1.096v-4.98h-1.096V27.193z M58.864,26.622c-0.013-0.111-0.021-0.22-0.024-0.328
	c-0.004-0.106-0.01-0.199-0.015-0.279c-0.009-0.125-0.026-0.25-0.052-0.376c-0.026-0.126-0.066-0.241-0.123-0.346
	c-0.056-0.105-0.127-0.195-0.217-0.271c-0.088-0.077-0.199-0.134-0.334-0.171v-0.015c0.278-0.111,0.479-0.274,0.604-0.488
	c0.123-0.214,0.185-0.468,0.185-0.761c0-0.19-0.033-0.368-0.102-0.533s-0.165-0.311-0.293-0.438
	c-0.128-0.125-0.281-0.225-0.461-0.296c-0.18-0.072-0.381-0.108-0.604-0.108h-2.686v4.98h1.096v-1.946h1.095
	c0.274,0,0.473,0.062,0.594,0.182c0.121,0.122,0.199,0.312,0.238,0.572c0.026,0.2,0.049,0.409,0.062,0.628
	c0.013,0.219,0.051,0.406,0.11,0.564h1.097c-0.052-0.068-0.091-0.154-0.115-0.254S58.876,26.733,58.864,26.622z M57.604,24.3
	c-0.125,0.11-0.312,0.167-0.563,0.167h-1.2v-1.403h1.2c0.251,0,0.438,0.055,0.563,0.165c0.127,0.108,0.188,0.284,0.188,0.525
	C57.793,24.006,57.73,24.188,57.604,24.3z M43.188,34.596c-0.013-0.111-0.021-0.221-0.024-0.328
	c-0.005-0.105-0.011-0.199-0.015-0.279c-0.01-0.125-0.026-0.25-0.053-0.375c-0.024-0.127-0.065-0.24-0.121-0.346
	c-0.057-0.104-0.129-0.195-0.217-0.272c-0.089-0.076-0.199-0.134-0.335-0.171v-0.014c0.279-0.111,0.479-0.274,0.603-0.488
	c0.125-0.215,0.187-0.469,0.187-0.762c0-0.19-0.033-0.369-0.103-0.533c-0.066-0.164-0.163-0.311-0.293-0.436
	c-0.127-0.127-0.28-0.225-0.459-0.297c-0.18-0.072-0.381-0.107-0.604-0.107h-2.687v4.98h1.096v-1.947h1.095
	c0.275,0,0.474,0.062,0.595,0.182c0.121,0.123,0.199,0.312,0.236,0.574c0.027,0.199,0.049,0.408,0.062,0.627
	c0.015,0.219,0.052,0.406,0.11,0.564h1.097c-0.053-0.07-0.09-0.154-0.114-0.255C43.217,34.812,43.198,34.708,43.188,34.596z
	 M41.927,32.273c-0.125,0.111-0.312,0.166-0.563,0.166h-1.2v-1.402h1.2c0.251,0,0.438,0.055,0.563,0.165
	c0.126,0.108,0.188,0.284,0.188,0.524C42.115,31.979,42.053,32.16,41.927,32.273z M73.68,22.213h-1.123l-1.884,4.98h1.103
	l0.392-1.108h1.863l0.377,1.108h1.138L73.68,22.213z M72.452,25.269l0.649-1.828h0.014l0.628,1.828H72.452z M64.357,25.555h-0.014
	l-2.078-3.342h-1.09v4.98h1.025v-3.334h0.015l2.072,3.334h1.096v-4.98h-1.026V25.555z M50.152,27.307
	c0.387,0,0.729-0.066,1.033-0.199c0.303-0.132,0.559-0.314,0.768-0.547c0.21-0.232,0.37-0.506,0.48-0.819
	c0.112-0.313,0.168-0.653,0.168-1.016c0-0.372-0.056-0.718-0.168-1.036c-0.11-0.318-0.271-0.596-0.48-0.834
	c-0.209-0.237-0.465-0.423-0.768-0.558c-0.304-0.136-0.646-0.202-1.033-0.202c-0.381,0-0.725,0.066-1.028,0.202
	c-0.306,0.135-0.562,0.32-0.771,0.558s-0.371,0.516-0.48,0.834c-0.112,0.318-0.168,0.664-0.168,1.036
	c0,0.362,0.056,0.701,0.168,1.016c0.109,0.313,0.271,0.587,0.48,0.819s0.467,0.415,0.771,0.547
	C49.429,27.238,49.771,27.307,50.152,27.307z M48.872,25.335c-0.049-0.198-0.072-0.401-0.072-0.61c0-0.219,0.023-0.431,0.072-0.635
	c0.05-0.205,0.127-0.388,0.233-0.548c0.107-0.16,0.248-0.288,0.42-0.384c0.172-0.096,0.381-0.144,0.627-0.144
	s0.455,0.048,0.628,0.144c0.173,0.096,0.312,0.224,0.42,0.384c0.106,0.16,0.184,0.343,0.233,0.548
	c0.047,0.204,0.072,0.416,0.072,0.635c0,0.209-0.025,0.412-0.072,0.61c-0.051,0.197-0.127,0.376-0.233,0.534
	c-0.107,0.157-0.247,0.285-0.42,0.38c-0.173,0.096-0.382,0.144-0.628,0.144s-0.455-0.048-0.627-0.144
	c-0.172-0.095-0.312-0.223-0.42-0.38C48.999,25.711,48.922,25.532,48.872,25.335z M58.148,32.572
	c-0.164-0.107-0.327-0.186-0.491-0.233c-0.165-0.049-0.294-0.083-0.388-0.103c-0.312-0.077-0.563-0.143-0.758-0.193
	c-0.193-0.053-0.344-0.104-0.453-0.154c-0.108-0.051-0.183-0.105-0.22-0.168c-0.037-0.059-0.056-0.139-0.056-0.236
	c0-0.106,0.021-0.195,0.068-0.266s0.106-0.127,0.179-0.174c0.071-0.047,0.151-0.08,0.239-0.1c0.09-0.018,0.179-0.025,0.267-0.025
	c0.135,0,0.259,0.01,0.373,0.034c0.114,0.022,0.216,0.062,0.304,0.118c0.089,0.057,0.159,0.133,0.213,0.23
	c0.055,0.096,0.085,0.221,0.096,0.368h1.061c0-0.286-0.057-0.532-0.164-0.735c-0.109-0.201-0.257-0.367-0.443-0.498
	c-0.186-0.131-0.398-0.226-0.639-0.283c-0.238-0.057-0.488-0.088-0.75-0.088c-0.224,0-0.445,0.031-0.67,0.092
	s-0.423,0.154-0.602,0.279c-0.176,0.125-0.318,0.283-0.428,0.471c-0.109,0.189-0.164,0.41-0.164,0.666
	c0,0.229,0.043,0.422,0.129,0.584c0.086,0.16,0.199,0.294,0.338,0.4c0.141,0.105,0.299,0.193,0.476,0.262s0.358,0.123,0.544,0.17
	c0.182,0.052,0.361,0.099,0.537,0.141c0.177,0.042,0.335,0.09,0.475,0.146c0.141,0.056,0.254,0.125,0.34,0.209
	s0.129,0.193,0.129,0.328c0,0.125-0.033,0.229-0.099,0.311s-0.146,0.146-0.243,0.191c-0.099,0.047-0.203,0.078-0.314,0.095
	c-0.11,0.017-0.217,0.024-0.314,0.024c-0.144,0-0.283-0.019-0.418-0.054c-0.134-0.034-0.253-0.088-0.352-0.159
	c-0.102-0.072-0.182-0.168-0.241-0.283c-0.062-0.115-0.091-0.258-0.091-0.426h-1.061c-0.006,0.309,0.051,0.572,0.168,0.795
	c0.114,0.225,0.271,0.407,0.471,0.553c0.197,0.144,0.425,0.25,0.683,0.316c0.259,0.067,0.524,0.102,0.8,0.102
	c0.34,0,0.639-0.039,0.896-0.118c0.257-0.079,0.475-0.19,0.648-0.331c0.174-0.143,0.307-0.311,0.395-0.506
	c0.089-0.195,0.133-0.407,0.133-0.637c0-0.277-0.061-0.506-0.178-0.687C58.454,32.82,58.312,32.68,58.148,32.572z M45.5,35.168
	h1.095v-4.98H45.5V35.168z M50.049,33.025h2.414v-0.852h-2.414v-1.066h2.63v-0.922h-3.726v4.981h3.781v-0.922h-2.687L50.049,33.025
	L50.049,33.025z"/>
</svg>
