<?xml version="1.0" encoding="utf-8"?>
<!-- Generator: Adobe Illustrator 15.1.0, SVG Export Plug-In  -->
<!DOCTYPE svg PUBLIC "-//W3C//DTD SVG 1.1//EN" "http://www.w3.org/Graphics/SVG/1.1/DTD/svg11.dtd" [
	<!ENTITY ns_flows "http://ns.adobe.com/Flows/1.0/">
]>
<svg version="1.1"
	 xmlns="http://www.w3.org/2000/svg" xmlns:xlink="http://www.w3.org/1999/xlink" xmlns:a="http://ns.adobe.com/AdobeSVGViewerExtensions/3.0/"
	 x="0px" y="0px" width="100px" height="67px" viewBox="0 0 100 67" overflow="visible" enable-background="new 0 0 100 67"
	 xml:space="preserve">
<defs>
</defs>
<path fill="#010101" d="M27.136,31.185c-0.146,0.419-0.222,0.875-0.222,1.366c0,0.476,0.076,0.923,0.222,1.337
	c0.146,0.411,0.356,0.772,0.633,1.077c0.275,0.306,0.613,0.548,1.016,0.723c0.401,0.172,0.852,0.262,1.354,0.262
	c0.406,0,0.776-0.062,1.113-0.186c0.335-0.123,0.63-0.3,0.88-0.531c0.251-0.234,0.454-0.518,0.607-0.846
	c0.152-0.331,0.248-0.701,0.284-1.114h-1.396c-0.054,0.442-0.206,0.798-0.455,1.067c-0.247,0.27-0.592,0.406-1.034,0.406
	c-0.324,0-0.599-0.064-0.826-0.19c-0.228-0.126-0.411-0.293-0.553-0.5c-0.139-0.208-0.243-0.443-0.306-0.703
	c-0.064-0.26-0.097-0.527-0.097-0.802c0-0.29,0.032-0.568,0.097-0.838c0.064-0.269,0.167-0.51,0.306-0.721
	c0.14-0.211,0.325-0.379,0.553-0.507c0.227-0.126,0.502-0.188,0.826-0.188c0.177,0,0.348,0.028,0.511,0.087
	c0.162,0.057,0.307,0.14,0.437,0.242c0.128,0.105,0.235,0.227,0.32,0.363c0.086,0.138,0.14,0.29,0.167,0.454h1.396
	c-0.043-0.378-0.146-0.715-0.311-1.011c-0.167-0.293-0.376-0.539-0.632-0.74c-0.254-0.197-0.542-0.35-0.862-0.453
	c-0.321-0.104-0.663-0.157-1.023-0.157c-0.504,0-0.955,0.089-1.355,0.268c-0.401,0.176-0.741,0.42-1.016,0.733
	C27.493,30.403,27.284,30.768,27.136,31.185z M30.461,45.178c-0.129,0.062-0.267,0.104-0.412,0.125
	c-0.148,0.021-0.287,0.032-0.414,0.032c-0.19,0-0.375-0.024-0.551-0.071c-0.179-0.045-0.333-0.115-0.465-0.209
	c-0.132-0.096-0.238-0.221-0.316-0.373c-0.081-0.151-0.12-0.34-0.12-0.561h-1.396c-0.006,0.406,0.067,0.754,0.221,1.047
	c0.151,0.295,0.358,0.536,0.62,0.728c0.26,0.188,0.561,0.329,0.901,0.417c0.338,0.088,0.688,0.133,1.05,0.133
	c0.447,0,0.841-0.051,1.182-0.155c0.339-0.104,0.624-0.251,0.853-0.436c0.229-0.188,0.403-0.409,0.52-0.666
	c0.117-0.257,0.175-0.536,0.175-0.839c0-0.365-0.08-0.666-0.234-0.903c-0.155-0.238-0.342-0.423-0.556-0.564
	c-0.216-0.143-0.431-0.244-0.647-0.309c-0.218-0.063-0.387-0.109-0.509-0.134c-0.412-0.103-0.743-0.19-0.998-0.256
	c-0.255-0.068-0.454-0.138-0.597-0.202c-0.144-0.066-0.242-0.141-0.291-0.221c-0.049-0.078-0.073-0.184-0.073-0.312
	c0-0.141,0.03-0.258,0.091-0.35c0.059-0.092,0.138-0.168,0.234-0.229c0.095-0.062,0.201-0.105,0.316-0.13
	c0.116-0.026,0.234-0.035,0.352-0.035c0.177,0,0.341,0.015,0.491,0.045c0.15,0.028,0.282,0.082,0.398,0.154
	c0.117,0.076,0.211,0.176,0.281,0.304c0.069,0.128,0.11,0.29,0.124,0.485h1.397c0-0.377-0.073-0.701-0.216-0.967
	c-0.143-0.267-0.338-0.485-0.583-0.658c-0.246-0.172-0.524-0.295-0.842-0.372c-0.315-0.075-0.645-0.113-0.988-0.113
	c-0.294,0-0.587,0.038-0.882,0.118c-0.294,0.082-0.557,0.203-0.791,0.367c-0.231,0.165-0.419,0.373-0.564,0.62
	c-0.143,0.249-0.215,0.543-0.215,0.88c0,0.301,0.057,0.554,0.17,0.766c0.113,0.211,0.26,0.389,0.444,0.527
	c0.184,0.14,0.393,0.256,0.625,0.345c0.233,0.09,0.471,0.164,0.716,0.226c0.24,0.067,0.474,0.129,0.708,0.185
	c0.232,0.055,0.441,0.119,0.625,0.191c0.182,0.074,0.331,0.164,0.444,0.275c0.113,0.11,0.17,0.254,0.17,0.432
	c0,0.167-0.041,0.302-0.129,0.41C30.696,45.033,30.588,45.119,30.461,45.178z M43.018,45.463c0.275,0.304,0.615,0.548,1.016,0.722
	c0.401,0.174,0.852,0.261,1.355,0.261c0.508,0,0.96-0.087,1.357-0.261c0.398-0.174,0.735-0.415,1.011-0.722
	c0.275-0.306,0.488-0.665,0.634-1.079c0.147-0.414,0.22-0.859,0.22-1.335c0-0.491-0.072-0.946-0.22-1.365
	c-0.146-0.419-0.358-0.787-0.634-1.098c-0.275-0.312-0.612-0.556-1.011-0.735c-0.397-0.178-0.85-0.265-1.357-0.265
	c-0.504,0-0.955,0.087-1.355,0.265c-0.4,0.18-0.74,0.421-1.016,0.735c-0.276,0.311-0.486,0.679-0.632,1.098
	c-0.148,0.419-0.221,0.874-0.221,1.365c0,0.476,0.073,0.921,0.221,1.335C42.531,44.798,42.741,45.157,43.018,45.463z M43.701,42.211
	c0.064-0.268,0.168-0.51,0.307-0.721c0.142-0.21,0.325-0.38,0.553-0.506c0.227-0.126,0.502-0.19,0.825-0.19
	c0.324,0,0.603,0.064,0.828,0.19c0.227,0.126,0.41,0.296,0.55,0.506c0.141,0.211,0.245,0.453,0.308,0.721
	c0.064,0.27,0.098,0.548,0.098,0.838c0,0.272-0.033,0.54-0.098,0.803c-0.064,0.258-0.167,0.493-0.308,0.701
	c-0.14,0.207-0.323,0.375-0.55,0.502c-0.226,0.123-0.504,0.188-0.828,0.188c-0.323,0-0.599-0.064-0.825-0.188
	c-0.228-0.127-0.411-0.295-0.553-0.502c-0.139-0.208-0.243-0.443-0.307-0.701c-0.063-0.263-0.096-0.53-0.096-0.803
	C43.605,42.759,43.638,42.483,43.701,42.211z M52.699,29.243h-1.443v6.558h1.443V29.243z M48.611,34.59h-3.195v-5.348h-1.444v6.559
	h4.639L48.611,34.59L48.611,34.59z M36.451,46.299h1.442v-5.346h1.964v-1.214h-5.371v1.214h1.964V46.299z M54.028,55.948
	l1.282-2.172l-1.234-3.001h-1.898l1.18,2.859l-0.839,1.422l-0.211,0.355l-0.029,0.411l-0.102,1.458L51.1,59.094l-0.372,0.628
	l0.181,0.704l0.44,1.729l0.108,0.421l-10.28,1.803l-1.052-0.631l-0.1-0.058l-0.553-2.179l-0.131-0.518l-0.397-0.356l-3.197-2.869
	l-0.02-0.019l-0.021-0.018l-3.907-3.294l-0.393-0.329l-0.509-0.068l-2.637-0.349l-1.184-1.066l-0.45-0.404l-0.602-0.044
	l-1.461-0.103l-0.369-0.219l-0.309-0.183l-0.356-0.047l-2.344-0.308l0.067-0.301l0.084-0.401l-0.1-0.401l-0.44-1.73l-0.131-0.514
	l-0.396-0.357l-0.121-0.108l2.142-1.869l-3.417-0.738l-0.725-0.156l-1.355-1.567l-3.211-3.701l-0.012-0.049l0.485-0.818l0.373-0.627
	l-0.183-0.707l-0.444-1.726l-0.18-0.702l-0.626-0.37l-1.76-1.044l0.838-0.73l0.816-0.707l-0.266-1.051l-0.441-1.727l-0.069-0.277
	l-0.155-0.241l-1.019-1.582l-1.538-2.389l-1.216,2.052l-0.005-1.016l-0.004-0.65l-0.425-0.488l-1.697-1.954l-1.532-2.103l-0.128-2.4
	l0.123-1.764l0.045-0.662l-0.405-0.525l-2.396-3.127l-0.006-1.474l1.411-3.116l0.255-0.561l-0.154-0.6L3.078,5.59l0.476-2.194
	l0.155-0.712L3.313,2.07L3.153,1.823l17.27,0.755l0.233,18.524l0.01,0.771l0.571,0.515l3.936,3.538h2.625l-5.388-4.845L22.157,0.897
	L1.674,0L0.82,1.445l1.019,1.577L1.272,5.623l0.295,1.152L0,10.242l0.015,2.452l2.757,3.593l-0.131,1.869l0.162,3.029l1.884,2.581
	l1.744,2.011l0.014,2.456l2.17,1.281l0.854-1.446l1.018,1.584l0.441,1.727l-1,0.869l-1.45-0.857l-0.279,1.3l1.735,2.01l2.17,1.288
	l0.444,1.726l-0.858,1.444l0.299,1.156l3.48,4.017l1.738,2.007l1.297,0.281l-0.999,0.87l1.59,1.434l0.438,1.732l-0.279,1.297
	l0.873,1.004l3.172,0.417l0.726,0.427l1.877,0.134l1.592,1.432l3.174,0.417l3.907,3.294l3.196,2.869l0.731,2.88l0.721,0.43
	l-0.279,1.296l15.263-2.677l0.285-1.299l-1.448-0.856l-0.44-1.728l1.289-2.171L54.028,55.948z M37.121,34.341h2.452l0.496,1.46
	h1.498l-2.453-6.558h-1.479l-2.48,6.558h1.453L37.121,34.341z M38.351,30.858h0.021l0.826,2.407h-1.7L38.351,30.858z M59.991,31.972
	h-2.746v-1.515h3.17v-1.214h-4.612v6.558h1.442V33.09h2.746V31.972z M89.184,35.801h1.442v-6.558h-1.442V35.801z M77.495,35.049
	c-0.017-0.146-0.026-0.29-0.032-0.433c-0.005-0.14-0.013-0.261-0.02-0.366c-0.011-0.165-0.034-0.329-0.067-0.496
	c-0.035-0.165-0.088-0.316-0.162-0.455c-0.073-0.139-0.167-0.258-0.286-0.357c-0.115-0.101-0.262-0.175-0.439-0.224v-0.021
	c0.367-0.146,0.632-0.36,0.796-0.644c0.162-0.28,0.243-0.615,0.243-1.001c0-0.251-0.044-0.485-0.134-0.701
	c-0.09-0.219-0.217-0.41-0.386-0.576c-0.168-0.164-0.37-0.295-0.606-0.391c-0.237-0.094-0.501-0.142-0.796-0.142H72.07v6.558h1.441
	v-2.562h1.441c0.361,0,0.623,0.081,0.782,0.24s0.263,0.409,0.313,0.752c0.035,0.264,0.064,0.539,0.081,0.827
	s0.067,0.534,0.146,0.743h1.443c-0.068-0.09-0.119-0.203-0.151-0.335S77.511,35.193,77.495,35.049z M75.836,31.992
	c-0.165,0.145-0.412,0.219-0.742,0.219h-1.58v-1.847h1.58c0.33,0,0.577,0.072,0.742,0.217c0.167,0.143,0.248,0.375,0.248,0.691
	C76.085,31.604,76.003,31.843,75.836,31.992z M56.856,45.546c-0.017-0.146-0.026-0.291-0.032-0.433
	c-0.006-0.139-0.014-0.262-0.02-0.367c-0.013-0.165-0.034-0.329-0.068-0.494c-0.033-0.167-0.087-0.316-0.16-0.455
	c-0.074-0.137-0.17-0.257-0.285-0.358c-0.117-0.101-0.263-0.176-0.441-0.225v-0.019c0.368-0.146,0.632-0.361,0.794-0.643
	c0.164-0.283,0.245-0.617,0.245-1.003c0-0.251-0.044-0.485-0.135-0.702c-0.088-0.216-0.215-0.408-0.386-0.573
	c-0.167-0.167-0.369-0.296-0.604-0.391c-0.236-0.095-0.501-0.142-0.796-0.142h-3.536v6.557h1.441v-2.563h1.441
	c0.363,0,0.624,0.082,0.783,0.239c0.16,0.162,0.263,0.411,0.312,0.756c0.036,0.263,0.063,0.537,0.082,0.825
	c0.02,0.288,0.068,0.535,0.146,0.743h1.443c-0.069-0.092-0.118-0.203-0.15-0.335C56.896,45.831,56.871,45.693,56.856,45.546z
	 M55.197,42.488c-0.165,0.146-0.412,0.219-0.742,0.219h-1.58V40.86h1.58c0.33,0,0.577,0.072,0.742,0.218
	c0.166,0.143,0.248,0.374,0.248,0.69C55.445,42.1,55.363,42.339,55.197,42.488z M97,29.243h-1.479l-2.48,6.558h1.452l0.516-1.46
	h2.453l0.496,1.46h1.497L97,29.243z M95.384,33.268l0.854-2.406h0.019l0.827,2.406H95.384z M84.727,33.643h-0.018l-2.736-4.399
	h-1.435v6.558h1.351v-4.39h0.02l2.728,4.39h1.442v-6.558h-1.352V33.643z M66.025,35.949c0.51,0,0.961-0.087,1.361-0.262
	c0.398-0.175,0.734-0.414,1.01-0.721c0.276-0.306,0.487-0.665,0.633-1.079c0.147-0.412,0.221-0.859,0.221-1.337
	c0-0.489-0.073-0.945-0.221-1.363c-0.146-0.419-0.356-0.784-0.633-1.098c-0.275-0.312-0.611-0.559-1.01-0.735
	c-0.4-0.179-0.852-0.266-1.361-0.266c-0.501,0-0.953,0.087-1.354,0.266c-0.402,0.177-0.739,0.421-1.014,0.735
	c-0.275,0.313-0.489,0.679-0.633,1.098c-0.148,0.418-0.222,0.874-0.222,1.363c0,0.477,0.073,0.923,0.222,1.337
	c0.144,0.414,0.357,0.773,0.633,1.079c0.274,0.305,0.614,0.546,1.014,0.721C65.073,35.859,65.524,35.949,66.025,35.949z
	 M64.34,33.354c-0.063-0.261-0.095-0.528-0.095-0.803c0-0.288,0.031-0.567,0.095-0.836c0.066-0.271,0.168-0.511,0.308-0.722
	c0.142-0.211,0.327-0.379,0.553-0.505c0.227-0.126,0.502-0.19,0.825-0.19c0.324,0,0.6,0.064,0.827,0.19s0.41,0.294,0.553,0.505
	c0.141,0.211,0.242,0.451,0.308,0.722c0.062,0.269,0.095,0.548,0.095,0.836c0,0.274-0.033,0.542-0.095,0.803
	c-0.067,0.259-0.167,0.495-0.308,0.703c-0.142,0.206-0.325,0.376-0.553,0.501c-0.228,0.127-0.503,0.188-0.827,0.188
	c-0.323,0-0.599-0.062-0.825-0.188c-0.226-0.125-0.411-0.295-0.553-0.501C64.508,33.849,64.406,33.612,64.34,33.354z M76.553,42.882
	c-0.216-0.142-0.431-0.244-0.646-0.308c-0.217-0.064-0.387-0.109-0.511-0.135c-0.411-0.102-0.741-0.188-0.997-0.254
	c-0.255-0.07-0.453-0.137-0.597-0.204c-0.143-0.066-0.24-0.139-0.29-0.221c-0.049-0.077-0.072-0.183-0.072-0.312
	c0-0.14,0.027-0.257,0.09-0.35c0.062-0.092,0.14-0.167,0.235-0.229c0.094-0.062,0.199-0.105,0.314-0.131
	c0.118-0.023,0.235-0.033,0.351-0.033c0.178,0,0.342,0.013,0.492,0.045c0.15,0.029,0.283,0.08,0.399,0.155
	c0.117,0.074,0.21,0.175,0.28,0.304c0.072,0.125,0.111,0.29,0.126,0.484h1.396c0-0.377-0.075-0.701-0.216-0.969
	c-0.145-0.265-0.339-0.482-0.584-0.655c-0.244-0.172-0.524-0.297-0.841-0.373c-0.313-0.074-0.644-0.115-0.987-0.115
	c-0.295,0-0.586,0.041-0.883,0.121c-0.295,0.079-0.557,0.203-0.791,0.367c-0.231,0.165-0.42,0.373-0.563,0.62
	c-0.144,0.249-0.216,0.54-0.216,0.877c0,0.301,0.057,0.555,0.17,0.769c0.113,0.211,0.262,0.387,0.444,0.526
	c0.186,0.14,0.394,0.255,0.626,0.345c0.232,0.091,0.473,0.162,0.717,0.224c0.238,0.068,0.476,0.13,0.707,0.186
	c0.232,0.056,0.44,0.118,0.625,0.193c0.185,0.072,0.334,0.164,0.447,0.274s0.17,0.255,0.17,0.433c0,0.164-0.044,0.301-0.131,0.408
	c-0.086,0.108-0.191,0.193-0.319,0.252c-0.13,0.062-0.268,0.104-0.414,0.125c-0.146,0.021-0.286,0.032-0.414,0.032
	c-0.189,0-0.373-0.024-0.551-0.071c-0.176-0.045-0.333-0.115-0.462-0.209c-0.135-0.096-0.24-0.221-0.318-0.373
	c-0.081-0.151-0.119-0.34-0.119-0.561h-1.396c-0.008,0.406,0.066,0.754,0.221,1.047c0.15,0.295,0.357,0.536,0.62,0.728
	c0.26,0.188,0.56,0.329,0.898,0.417c0.341,0.088,0.69,0.133,1.054,0.133c0.447,0,0.84-0.051,1.18-0.155
	c0.338-0.104,0.625-0.251,0.854-0.436c0.229-0.188,0.404-0.409,0.52-0.666c0.117-0.257,0.175-0.536,0.175-0.839
	c0-0.365-0.079-0.666-0.233-0.903C76.955,43.208,76.769,43.023,76.553,42.882z M59.901,46.299h1.44v-6.557h-1.44V46.299z
	 M65.89,43.479h3.179v-1.121H65.89v-1.404h3.462v-1.214h-4.904v6.559h4.979v-1.214h-3.537L65.89,43.479L65.89,43.479z"/>
</svg>
