<?xml version="1.0" encoding="utf-8"?>
<!-- Generator: Adobe Illustrator 15.1.0, SVG Export Plug-In  -->
<!DOCTYPE svg PUBLIC "-//W3C//DTD SVG 1.1//EN" "http://www.w3.org/Graphics/SVG/1.1/DTD/svg11.dtd" [
	<!ENTITY ns_flows "http://ns.adobe.com/Flows/1.0/">
]>
<svg version="1.1"
	 xmlns="http://www.w3.org/2000/svg" xmlns:xlink="http://www.w3.org/1999/xlink" xmlns:a="http://ns.adobe.com/AdobeSVGViewerExtensions/3.0/"
	 x="0px" y="0px" width="80px" height="53px" viewBox="-2.395 -1.225 80 53"
	 overflow="visible" enable-background="new -2.395 -1.225 80 53" xml:space="preserve">
<defs>
</defs>
<path d="M20.612,23.688c-0.111,0.318-0.168,0.664-0.168,1.036c0,0.362,0.057,0.701,0.168,1.016c0.111,0.313,0.271,0.587,0.481,0.819
	c0.209,0.232,0.466,0.415,0.771,0.548c0.305,0.132,0.647,0.199,1.029,0.199c0.308,0,0.589-0.047,0.845-0.141
	c0.255-0.093,0.479-0.228,0.669-0.404c0.191-0.177,0.345-0.392,0.461-0.642c0.116-0.251,0.188-0.532,0.216-0.845h-1.061
	c-0.041,0.335-0.156,0.605-0.345,0.81c-0.188,0.205-0.45,0.308-0.785,0.308c-0.247,0-0.456-0.049-0.628-0.144
	s-0.312-0.223-0.419-0.38c-0.106-0.158-0.185-0.337-0.233-0.534c-0.049-0.198-0.073-0.401-0.073-0.61
	c0-0.219,0.024-0.431,0.073-0.635c0.049-0.205,0.127-0.388,0.233-0.548s0.247-0.288,0.419-0.384s0.381-0.144,0.628-0.144
	c0.135,0,0.264,0.022,0.388,0.067c0.123,0.043,0.233,0.105,0.331,0.184c0.098,0.08,0.179,0.172,0.244,0.276s0.106,0.22,0.126,0.345
	h1.061c-0.033-0.288-0.112-0.543-0.237-0.768c-0.126-0.223-0.285-0.41-0.479-0.562c-0.193-0.15-0.412-0.266-0.655-0.345
	c-0.244-0.079-0.504-0.119-0.778-0.119c-0.382,0-0.725,0.067-1.029,0.203c-0.305,0.134-0.562,0.32-0.771,0.558
	C20.884,23.093,20.724,23.37,20.612,23.688z M23.138,34.316c-0.098,0.047-0.202,0.078-0.313,0.095
	c-0.112,0.017-0.217,0.024-0.314,0.024c-0.145,0-0.284-0.018-0.418-0.053c-0.136-0.035-0.253-0.088-0.354-0.16
	c-0.1-0.072-0.18-0.167-0.24-0.282c-0.061-0.116-0.091-0.259-0.091-0.426h-1.061c-0.004,0.308,0.051,0.572,0.168,0.795
	c0.116,0.224,0.273,0.407,0.471,0.552c0.197,0.144,0.426,0.25,0.685,0.317c0.257,0.067,0.523,0.101,0.798,0.101
	c0.34,0,0.639-0.039,0.897-0.118c0.258-0.079,0.474-0.19,0.648-0.331c0.174-0.143,0.306-0.311,0.394-0.506
	c0.089-0.195,0.133-0.407,0.133-0.636c0-0.278-0.06-0.507-0.178-0.687s-0.259-0.322-0.422-0.429
	c-0.163-0.108-0.327-0.186-0.492-0.234s-0.294-0.083-0.387-0.102c-0.312-0.078-0.564-0.144-0.757-0.194
	c-0.194-0.052-0.345-0.104-0.454-0.154s-0.183-0.106-0.22-0.168c-0.037-0.059-0.056-0.139-0.056-0.236
	c0-0.107,0.022-0.196,0.069-0.266c0.046-0.069,0.105-0.127,0.178-0.174s0.152-0.08,0.241-0.099c0.088-0.019,0.177-0.026,0.266-0.026
	c0.135,0,0.259,0.01,0.373,0.034c0.114,0.022,0.215,0.062,0.303,0.118c0.089,0.057,0.16,0.133,0.214,0.23
	c0.053,0.098,0.084,0.221,0.094,0.369h1.061c0-0.287-0.055-0.533-0.164-0.735s-0.257-0.368-0.443-0.499
	c-0.186-0.131-0.398-0.225-0.639-0.283c-0.239-0.057-0.489-0.087-0.75-0.087c-0.224,0-0.446,0.03-0.67,0.091
	c-0.223,0.061-0.423,0.154-0.6,0.279s-0.319,0.283-0.429,0.471c-0.109,0.189-0.164,0.411-0.164,0.667
	c0,0.228,0.043,0.421,0.129,0.583c0.086,0.16,0.198,0.294,0.338,0.4s0.298,0.194,0.475,0.262s0.358,0.124,0.544,0.171
	c0.182,0.051,0.36,0.098,0.538,0.14c0.177,0.042,0.335,0.09,0.475,0.146c0.139,0.056,0.252,0.125,0.338,0.209
	s0.129,0.193,0.129,0.328c0,0.126-0.032,0.229-0.098,0.311C23.317,34.206,23.235,34.271,23.138,34.316z M32.676,34.533
	c0.209,0.231,0.467,0.416,0.771,0.548c0.305,0.132,0.647,0.198,1.029,0.198c0.386,0,0.73-0.066,1.032-0.198
	c0.303-0.132,0.559-0.316,0.768-0.548c0.209-0.232,0.37-0.506,0.481-0.82c0.112-0.314,0.167-0.652,0.167-1.014
	c0-0.373-0.055-0.719-0.167-1.037c-0.111-0.318-0.272-0.597-0.481-0.834s-0.465-0.422-0.768-0.558
	c-0.302-0.136-0.646-0.202-1.032-0.202c-0.382,0-0.725,0.066-1.029,0.202c-0.304,0.136-0.562,0.32-0.771,0.558
	c-0.21,0.237-0.37,0.516-0.481,0.834c-0.112,0.318-0.167,0.664-0.167,1.037c0,0.361,0.055,0.699,0.167,1.014
	C32.306,34.027,32.466,34.301,32.676,34.533z M33.195,32.063c0.049-0.204,0.127-0.388,0.233-0.548
	c0.107-0.16,0.247-0.289,0.419-0.384c0.172-0.096,0.382-0.144,0.628-0.144s0.456,0.048,0.628,0.144
	c0.172,0.095,0.312,0.224,0.419,0.384c0.106,0.16,0.185,0.344,0.233,0.548c0.049,0.205,0.074,0.416,0.074,0.636
	c0,0.208-0.025,0.411-0.074,0.609c-0.049,0.197-0.127,0.375-0.233,0.534c-0.107,0.157-0.247,0.284-0.419,0.38
	c-0.172,0.095-0.382,0.143-0.628,0.143s-0.456-0.048-0.628-0.143c-0.172-0.096-0.312-0.223-0.419-0.38
	c-0.106-0.159-0.185-0.337-0.233-0.534c-0.049-0.198-0.073-0.401-0.073-0.609C33.122,32.479,33.146,32.269,33.195,32.063z
	 M40.029,22.213h-1.095v4.981h1.095V22.213z M36.925,26.273h-2.428v-4.061h-1.096v4.981h3.523V26.273z M27.688,35.168h1.095v-4.061
	h1.493v-0.921h-4.081v0.921h1.493V35.168z M41.039,42.497l0.974-1.65l-0.938-2.278h-1.441l0.895,2.172l-0.637,1.079l-0.159,0.27
	l-0.023,0.313l-0.077,1.107l-0.819,1.377l-0.282,0.476l0.137,0.536l0.335,1.312l0.082,0.321L31.278,48.9l-0.8-0.479l-0.075-0.044
	l-0.42-1.654l-0.1-0.394l-0.302-0.271l-2.428-2.179l-0.015-0.014l-0.016-0.014l-2.968-2.501l-0.298-0.251l-0.387-0.051l-2.003-0.265
	l-0.9-0.811l-0.341-0.306l-0.457-0.033l-1.111-0.078l-0.28-0.166l-0.235-0.139l-0.27-0.036l-1.78-0.233l0.05-0.229l0.065-0.305
	l-0.076-0.305l-0.334-1.314l-0.1-0.391l-0.3-0.271l-0.092-0.082l1.626-1.42l-2.595-0.561l-0.551-0.119l-1.029-1.19l-2.439-2.812
	l-0.009-0.037l0.369-0.62l0.283-0.477l-0.139-0.537l-0.337-1.311l-0.137-0.534l-0.475-0.28l-1.337-0.794l0.637-0.554l0.62-0.538
	l-0.202-0.797l-0.335-1.312l-0.053-0.211l-0.118-0.183l-0.774-1.201l-1.168-1.815l-0.923,1.559l-0.004-0.771l-0.003-0.494
	l-0.323-0.372l-1.289-1.484l-1.164-1.597l-0.097-1.823l0.093-1.34l0.035-0.503l-0.308-0.4l-1.82-2.374L1.335,8.063l1.071-2.368
	L2.6,5.269L2.483,4.814L2.338,4.246l0.361-1.667l0.118-0.541L2.517,1.573L2.395,1.384l13.118,0.574l0.176,14.072l0.008,0.585
	l0.434,0.391l2.989,2.688h1.994l-4.092-3.68L16.83,0.681L1.272,0L0.623,1.098l0.774,1.198l-0.43,1.976l0.224,0.874L0,7.78
	l0.012,1.862l2.094,2.729l-0.099,1.42l0.123,2.301l1.431,1.961l1.325,1.527l0.01,1.865l1.648,0.974l0.649-1.098l0.773,1.202
	l0.335,1.312l-0.76,0.66L6.44,23.844l-0.212,0.987l1.318,1.527l1.649,0.978l0.337,1.311l-0.652,1.097l0.227,0.878l2.644,3.051
	l1.32,1.524l0.985,0.214l-0.758,0.661l1.208,1.089l0.333,1.315l-0.212,0.986l0.663,0.762l2.409,0.317l0.551,0.325l1.426,0.101
	l1.209,1.088l2.411,0.316l2.968,2.502l2.427,2.179l0.556,2.188l0.548,0.327l-0.212,0.983l11.594-2.033l0.215-0.986l-1.099-0.65
	l-0.335-1.312l0.979-1.65L41.039,42.497z M28.196,26.085h1.863l0.377,1.109h1.137l-1.863-4.981h-1.123l-1.884,4.981h1.103
	L28.196,26.085z M29.131,23.44h0.015l0.628,1.828h-1.291L29.131,23.44z M45.569,24.285h-2.086v-1.151h2.407v-0.921h-3.503v4.981
	h1.096v-2.059h2.086V24.285z M67.742,27.194h1.096v-4.981h-1.096V27.194z M58.864,26.622c-0.012-0.111-0.02-0.22-0.024-0.328
	c-0.004-0.106-0.01-0.199-0.015-0.279c-0.009-0.125-0.026-0.25-0.052-0.376c-0.026-0.126-0.066-0.241-0.122-0.346
	s-0.128-0.195-0.217-0.271c-0.088-0.077-0.199-0.134-0.334-0.171v-0.015c0.278-0.111,0.479-0.274,0.604-0.488
	c0.123-0.214,0.185-0.468,0.185-0.761c0-0.19-0.034-0.368-0.102-0.533s-0.165-0.311-0.293-0.437
	c-0.128-0.125-0.281-0.225-0.461-0.296c-0.179-0.072-0.38-0.108-0.604-0.108h-2.686v4.981h1.096v-1.947h1.095
	c0.274,0,0.472,0.062,0.593,0.182c0.121,0.122,0.2,0.312,0.238,0.572c0.027,0.2,0.049,0.409,0.062,0.628s0.051,0.406,0.111,0.565
	h1.096c-0.052-0.069-0.09-0.155-0.115-0.255S58.876,26.733,58.864,26.622z M57.604,24.3c-0.125,0.11-0.313,0.167-0.564,0.167h-1.2
	v-1.403h1.2c0.251,0,0.439,0.055,0.564,0.165c0.126,0.108,0.188,0.284,0.188,0.525C57.793,24.006,57.73,24.188,57.604,24.3z
	 M43.187,34.596c-0.012-0.111-0.02-0.221-0.024-0.328c-0.005-0.106-0.01-0.199-0.014-0.279c-0.01-0.125-0.027-0.25-0.053-0.375
	c-0.025-0.127-0.066-0.241-0.121-0.347c-0.057-0.104-0.129-0.195-0.217-0.272c-0.089-0.076-0.2-0.133-0.335-0.17V32.81
	c0.279-0.111,0.48-0.274,0.603-0.487c0.124-0.215,0.186-0.469,0.186-0.762c0-0.191-0.033-0.369-0.102-0.533
	c-0.067-0.165-0.164-0.311-0.293-0.437c-0.128-0.126-0.281-0.224-0.46-0.296s-0.381-0.108-0.604-0.108h-2.687v4.981h1.096v-1.947
	h1.095c0.275,0,0.473,0.062,0.594,0.182c0.121,0.122,0.2,0.312,0.237,0.573c0.027,0.199,0.049,0.408,0.062,0.627
	c0.015,0.22,0.052,0.407,0.111,0.565h1.096c-0.052-0.07-0.09-0.154-0.114-0.255C43.217,34.813,43.198,34.708,43.187,34.596z
	 M41.927,32.273c-0.125,0.111-0.313,0.166-0.564,0.166h-1.2v-1.402h1.2c0.251,0,0.439,0.055,0.564,0.165
	c0.126,0.109,0.188,0.284,0.188,0.525C42.115,31.979,42.053,32.16,41.927,32.273z M73.68,22.213h-1.123l-1.884,4.981h1.103
	l0.391-1.109h1.863l0.377,1.109h1.138L73.68,22.213z M72.452,25.269l0.649-1.828h0.014l0.628,1.828H72.452z M64.358,25.555h-0.014
	l-2.079-3.342h-1.089v4.981h1.025v-3.335h0.015l2.072,3.335h1.096v-4.981h-1.026V25.555z M50.153,27.307
	c0.386,0,0.729-0.067,1.032-0.199c0.303-0.133,0.559-0.315,0.768-0.548c0.21-0.232,0.37-0.506,0.481-0.819
	c0.112-0.314,0.168-0.653,0.168-1.016c0-0.372-0.056-0.718-0.168-1.036c-0.111-0.318-0.271-0.596-0.481-0.834
	c-0.209-0.237-0.465-0.423-0.768-0.558c-0.303-0.136-0.646-0.202-1.032-0.202c-0.382,0-0.725,0.066-1.029,0.202
	c-0.305,0.135-0.562,0.32-0.771,0.558c-0.209,0.238-0.37,0.516-0.48,0.834c-0.112,0.318-0.168,0.664-0.168,1.036
	c0,0.362,0.056,0.701,0.168,1.016c0.11,0.313,0.271,0.587,0.48,0.819s0.467,0.415,0.771,0.548
	C49.429,27.239,49.771,27.307,50.153,27.307z M48.872,25.335c-0.049-0.198-0.072-0.401-0.072-0.61c0-0.219,0.023-0.431,0.072-0.635
	c0.05-0.205,0.127-0.388,0.234-0.548s0.247-0.288,0.419-0.384s0.381-0.144,0.628-0.144c0.246,0,0.455,0.048,0.627,0.144
	c0.173,0.096,0.312,0.224,0.42,0.384c0.106,0.16,0.184,0.343,0.233,0.548c0.048,0.204,0.073,0.416,0.073,0.635
	c0,0.209-0.025,0.412-0.073,0.61c-0.05,0.197-0.127,0.376-0.233,0.534c-0.107,0.157-0.247,0.285-0.42,0.38
	c-0.172,0.096-0.381,0.144-0.627,0.144c-0.247,0-0.456-0.048-0.628-0.144c-0.172-0.095-0.312-0.223-0.419-0.38
	C48.999,25.711,48.922,25.532,48.872,25.335z M58.149,32.573c-0.164-0.108-0.328-0.186-0.492-0.234
	c-0.165-0.049-0.294-0.083-0.388-0.102c-0.312-0.078-0.563-0.144-0.757-0.194c-0.193-0.052-0.344-0.104-0.454-0.154
	c-0.108-0.051-0.182-0.106-0.219-0.168c-0.037-0.059-0.056-0.139-0.056-0.236c0-0.107,0.022-0.196,0.069-0.266
	s0.106-0.127,0.178-0.174c0.072-0.047,0.152-0.08,0.24-0.099c0.089-0.019,0.178-0.026,0.266-0.026c0.135,0,0.259,0.01,0.373,0.034
	c0.114,0.022,0.216,0.062,0.304,0.118c0.089,0.057,0.159,0.133,0.213,0.23s0.085,0.221,0.095,0.369h1.061
	c0-0.287-0.056-0.533-0.164-0.735c-0.109-0.202-0.257-0.368-0.443-0.499c-0.186-0.131-0.399-0.225-0.639-0.283
	c-0.239-0.057-0.489-0.087-0.75-0.087c-0.224,0-0.446,0.03-0.67,0.091s-0.423,0.154-0.601,0.279
	c-0.176,0.125-0.319,0.283-0.428,0.471c-0.11,0.189-0.164,0.411-0.164,0.667c0,0.228,0.042,0.421,0.128,0.583
	c0.087,0.16,0.2,0.294,0.339,0.4c0.14,0.106,0.298,0.194,0.475,0.262s0.358,0.124,0.544,0.171c0.182,0.051,0.361,0.098,0.537,0.14
	c0.177,0.042,0.335,0.09,0.475,0.146c0.141,0.056,0.253,0.125,0.339,0.209s0.129,0.193,0.129,0.328c0,0.126-0.033,0.229-0.098,0.311
	s-0.146,0.146-0.244,0.191c-0.098,0.047-0.203,0.078-0.314,0.095c-0.11,0.017-0.216,0.024-0.314,0.024
	c-0.144,0-0.283-0.018-0.418-0.053c-0.134-0.035-0.253-0.088-0.352-0.16c-0.101-0.072-0.182-0.167-0.241-0.282
	c-0.061-0.116-0.091-0.259-0.091-0.426h-1.061c-0.005,0.308,0.052,0.572,0.168,0.795c0.115,0.224,0.272,0.407,0.471,0.552
	c0.198,0.144,0.425,0.25,0.683,0.317c0.259,0.067,0.525,0.101,0.8,0.101c0.339,0,0.639-0.039,0.896-0.118s0.475-0.19,0.648-0.331
	c0.175-0.143,0.307-0.311,0.395-0.506c0.089-0.195,0.133-0.407,0.133-0.636c0-0.278-0.06-0.507-0.178-0.687
	S58.312,32.68,58.149,32.573z M45.5,35.168h1.095v-4.981H45.5V35.168z M50.049,33.025h2.414v-0.851h-2.414v-1.067h2.63v-0.921
	h-3.726v4.981h3.781v-0.922h-2.686V33.025z"/>
</svg>
