<?xml version="1.0" encoding="utf-8"?>
<!-- Generator: Adobe Illustrator 15.1.0, SVG Export Plug-In  -->
<!DOCTYPE svg PUBLIC "-//W3C//DTD SVG 1.1//EN" "http://www.w3.org/Graphics/SVG/1.1/DTD/svg11.dtd" [
	<!ENTITY ns_flows "http://ns.adobe.com/Flows/1.0/">
]>
<svg version="1.1"
	 xmlns="http://www.w3.org/2000/svg" xmlns:xlink="http://www.w3.org/1999/xlink" xmlns:a="http://ns.adobe.com/AdobeSVGViewerExtensions/3.0/"
	 x="0px" y="0px" width="57px" height="57px" viewBox="-3.419 -4.831 57 57"
	 overflow="visible" enable-background="new -3.419 -4.831 57 57" xml:space="preserve">
<defs>
</defs>
<path d="M39.995,0H9.581C4.298,0,0,4.297,0,9.58V19.7v20.295c0,5.283,4.298,9.58,9.581,9.58h30.415c5.283,0,9.58-4.297,9.58-9.58
	V19.699V9.579C49.575,4.296,45.278,0,39.995,0z M42.743,5.713l1.096-0.004V6.8v7.312l-8.375,0.027l-0.028-8.402L42.743,5.713z
	 M17.712,19.699c1.588-2.197,4.164-3.638,7.076-3.638s5.488,1.44,7.074,3.638c1.033,1.434,1.652,3.188,1.652,5.088
	c0,4.812-3.918,8.726-8.728,8.726c-4.812,0-8.726-3.914-8.726-8.726C16.062,22.888,16.68,21.133,17.712,19.699z M44.745,39.994
	c0,2.621-2.131,4.75-4.75,4.75H9.581c-2.62,0-4.751-2.129-4.751-4.75V19.699h7.4c-0.64,1.572-0.998,3.289-0.998,5.088
	c0,7.473,6.08,13.558,13.556,13.558s13.555-6.085,13.555-13.558c0-1.799-0.36-3.516-1-5.088h7.402V39.994z"/>
</svg>
