<?xml version="1.0" encoding="utf-8"?>
<!-- Generator: Adobe Illustrator 17.1.0, SVG Export Plug-In . SVG Version: 6.00 Build 0)  -->
<!DOCTYPE svg PUBLIC "-//W3C//DTD SVG 1.1//EN" "http://www.w3.org/Graphics/SVG/1.1/DTD/svg11.dtd">
<svg version="1.1" id="Layer_1" xmlns="http://www.w3.org/2000/svg" xmlns:xlink="http://www.w3.org/1999/xlink" x="0px" y="0px"
	 viewBox="0 0 190.3 33" enable-background="new 0 0 190.3 33" xml:space="preserve">
<g>
	<path d="M47.8,6.3H27.2c-0.2,0-0.4,0.2-0.4,0.4v18.5c0,0.2,0.2,0.4,0.4,0.4h20.7c0.2,0,0.4-0.2,0.4-0.4V21c0-0.2-0.2-0.4-0.4-0.4
		H33.3v-2.8H47c0.2,0,0.4-0.2,0.4-0.4v-3.5c0-0.2-0.2-0.4-0.4-0.4H33.3v-2.6h14.5c0.2,0,0.4-0.2,0.4-0.4V6.7
		C48.2,6.5,48,6.3,47.8,6.3z"/>
	<path d="M138.3,6.3h-20.6c-0.2,0-0.4,0.2-0.4,0.4v18.5c0,0.2,0.2,0.4,0.4,0.4h20.7c0.2,0,0.4-0.2,0.4-0.4V21c0-0.2-0.2-0.4-0.4-0.4
		h-14.6v-2.8h13.7c0.2,0,0.4-0.2,0.4-0.4v-3.5c0-0.2-0.2-0.4-0.4-0.4h-13.7v-2.6h14.5c0.2,0,0.4-0.2,0.4-0.4V6.7
		C138.7,6.5,138.5,6.3,138.3,6.3z"/>
	<path d="M163.3,6.3h-20.6c-0.2,0-0.4,0.2-0.4,0.4v18.5c0,0.2,0.2,0.4,0.4,0.4h20.7c0.2,0,0.4-0.2,0.4-0.4V21c0-0.2-0.2-0.4-0.4-0.4
		h-14.6v-2.8h13.7c0.2,0,0.4-0.2,0.4-0.4v-3.5c0-0.2-0.2-0.4-0.4-0.4h-13.7v-2.6h14.5c0.2,0,0.4-0.2,0.4-0.4V6.7
		C163.6,6.5,163.5,6.3,163.3,6.3z"/>
	<path d="M13,13.4c-6.4,0-6.8,0-6.8-1.7c0-1,0.6-1.3,2-1.3h6.1c2.4,0,2.8,0.3,2.9,1.3c0,0,0,0.2,0,0.3c0,0.2,0.2,0.3,0.3,0.3h5.8
		c0.2,0,0.4-0.2,0.4-0.4v-0.5c0,0,0,0,0,0c0-3.3-0.8-5.5-7.5-5.5H7.7C0.2,5.8,0,8.5,0,12.1c0,4.8,0.8,5.9,9.7,5.9c2.8,0,4.7,0,6,0
		c1.6,0,2.2,0.4,2.2,1.7c0,1.4-0.7,1.5-2.3,1.5H9.1c-1.6,0-2.4-0.1-2.6-1.7c0,0,0-0.2,0-0.3c0-0.1-0.2-0.2-0.3-0.2H0.5
		c-0.2,0-0.3,0.1-0.3,0.3c0,0.1,0,1.2,0,1.2c0,4.2,2.2,5.2,7.6,5.2h6.6c7.5,0,10-0.9,10-6.1C24.4,13.9,22.2,13.4,13,13.4z"/>
	<path d="M178.9,13.4c-6.4,0-6.8,0-6.8-1.7c0-1,0.6-1.3,2-1.3h6.1c2.4,0,2.8,0.3,2.9,1.3c0,0,0,0.2,0,0.3c0,0.2,0.2,0.3,0.3,0.3h5.8
		c0.2,0,0.4-0.2,0.4-0.4v-0.5c0,0,0,0,0,0c0-3.3-0.8-5.5-7.5-5.5h-8.3c-7.5,0-7.7,2.7-7.7,6.2c0,4.8,0.8,5.9,9.7,5.9
		c2.8,0,4.7,0,6,0c1.6,0,2.2,0.4,2.2,1.7c0,1.4-0.7,1.5-2.3,1.5H175c-1.6,0-2.4-0.1-2.6-1.7c0,0,0-0.2,0-0.3c0-0.1-0.2-0.2-0.3-0.2
		h-5.6c-0.2,0-0.3,0.1-0.3,0.3c0,0.1,0,1.2,0,1.2c0,4.2,2.2,5.2,7.6,5.2h6.6c7.5,0,10-0.9,10-6.1C190.3,13.9,188.1,13.4,178.9,13.4z
		"/>
	<path d="M79.5,25.2c0-0.1-0.2-0.3-0.2-0.3L69,6.6l0-0.1c-0.1-0.1-0.2-0.2-0.4-0.2h-0.9H62h-0.9c-0.1,0-0.3,0.1-0.4,0.2l0,0.1
		L50.4,24.9c0,0-0.1,0.2-0.2,0.3c-0.1,0.1,0,0.3,0.2,0.3h5.4h0.9c0.2,0,0.4-0.1,0.4-0.3l1.5-2.9c0.1-0.1,0.2-0.2,0.4-0.2h11.8
		c0.2,0,0.3,0.1,0.4,0.2l1.5,2.9c0.1,0.1,0.2,0.3,0.4,0.3H74h5.4C79.5,25.5,79.6,25.3,79.5,25.2z M68.5,17.7
		C68.5,17.7,68.5,17.7,68.5,17.7l-0.2,0.1h0h-7h0h-0.1c0,0-0.1,0-0.1-0.1c0,0,0-0.1,0-0.1c0,0,2.9-5.3,3.5-6.5c0,0,0.1-0.1,0.1-0.1
		c0,0,0,0,0,0c0,0,0,0,0,0C65,10.9,65,11,65,11c0.7,1.2,3.5,6.5,3.5,6.5C68.6,17.6,68.6,17.6,68.5,17.7z"/>
	<path d="M116.7,0L116.7,0h-8.3c-0.1,0-0.3,0.1-0.4,0.2c0,0-12,23.9-13.3,26.5c-0.1,0.1-0.2,0.1-0.2,0C93.3,24.2,81.3,0.2,81.3,0.2
		C81.2,0.1,81,0,80.9,0h-8.2h-0.1c-0.1,0-0.2,0.1-0.2,0.3c0,0,0,0,0,0c0,0,0,0.1,0.1,0.1l16.2,32.4C88.8,33,89,33,89.1,33h11.1
		c0.2,0,0.3-0.1,0.4-0.2l16.2-32.4c0,0,0-0.1,0.1-0.1c0,0,0,0,0,0C117,0.1,116.9,0,116.7,0z"/>
</g>
</svg>
