<?xml version="1.0" encoding="utf-8"?>
<!-- Generator: Adobe Illustrator 15.1.0, SVG Export Plug-In  -->
<!DOCTYPE svg PUBLIC "-//W3C//DTD SVG 1.1//EN" "http://www.w3.org/Graphics/SVG/1.1/DTD/svg11.dtd" [
	<!ENTITY ns_flows "http://ns.adobe.com/Flows/1.0/">
]>
<svg version="1.1"
	 xmlns="http://www.w3.org/2000/svg" xmlns:xlink="http://www.w3.org/1999/xlink" xmlns:a="http://ns.adobe.com/AdobeSVGViewerExtensions/3.0/"
	 x="0px" y="0px" width="138px" height="24px" viewBox="0 -0.637 138 24"
	 overflow="visible" enable-background="new 0 -0.637 138 24" xml:space="preserve">
<defs>
</defs>
<path fill="#E2E2DF" d="M9.531,9.467C4.883,9.488,4.355,9.449,4.355,8.219c0-0.764,0.664-1.094,1.641-1.094h4.805
	c1.992,0,2.109,0.428,2.109,1.465h4.335V8.141c0-2.48-0.468-4.18-5.469-4.18H5.723c-5.47,0-5.705,1.971-5.705,4.531
	c0,3.477,0.743,4.258,7.267,4.258c5.585,0,6.093,0.078,6.093,1.309c0,1.094-0.938,1.191-1.855,1.191H6.21
	c-1.25,0-1.855-0.119-1.875-1.621H0v0.977c0,3.068,1.582,3.809,5.527,3.809h5.254c5.761,0,7.051-0.625,7.051-4.434
	C17.833,9.859,16.27,9.449,9.531,9.467z M24.845,12.594h10.546v-2.93H24.845V7.398h11.133V4.117h-15.47v14.141h15.724v-3.398H24.845
	V12.594z M45.12,4.117l-7.657,14.141h4.844l1.27-2.5h8.79l1.348,2.5h4.824L50.764,4.117H45.12z M45.197,12.711l2.734-5.312
	l2.813,5.312H45.197z M129.699,9.467c-4.65,0.021-5.177-0.018-5.177-1.248c0-0.764,0.664-1.094,1.64-1.094h4.806
	c1.993,0,2.11,0.428,2.11,1.465h4.336V8.141c0-2.48-0.469-4.18-5.47-4.18h-6.055c-5.469,0-5.704,1.971-5.704,4.531
	c0,3.477,0.742,4.258,7.266,4.258c5.588,0,6.095,0.078,6.095,1.309c0,1.094-0.937,1.191-1.855,1.191h-5.313
	c-1.25,0-1.854-0.119-1.875-1.621h-4.335v0.977c0,3.068,1.581,3.809,5.526,3.809h5.255c5.761,0,7.052-0.625,7.052-4.434
	C138,9.859,136.436,9.449,129.699,9.467z M76.686,0l-8.502,16.885L59.681,0H52.38l11.688,22.727h8.231L83.986,0H76.686z
	 M106.415,12.594h10.548v-2.93h-10.548V7.398h11.135V4.117h-15.47v14.141h15.724v-3.398h-11.389V12.594z M88.075,12.594h10.547
	v-2.93H88.075V7.398h11.134V4.117H83.738v14.141h15.725v-3.398H88.075V12.594z"/>
</svg>
