<?xml version="1.0" encoding="utf-8"?>
<!-- Generator: Adobe Illustrator 15.1.0, SVG Export Plug-In  -->
<!DOCTYPE svg PUBLIC "-//W3C//DTD SVG 1.1//EN" "http://www.w3.org/Graphics/SVG/1.1/DTD/svg11.dtd" [
	<!ENTITY ns_flows "http://ns.adobe.com/Flows/1.0/">
]>
<svg version="1.1"
	 xmlns="http://www.w3.org/2000/svg" xmlns:xlink="http://www.w3.org/1999/xlink" xmlns:a="http://ns.adobe.com/AdobeSVGViewerExtensions/3.0/"
	 x="0px" y="0px" width="23px" height="22px" viewBox="-0.926 0 23 22" overflow="visible" enable-background="new -0.926 0 23 22"
	 xml:space="preserve">
<defs>
</defs>
<path fill="#FFFFFF" d="M21.149,19.027L14.722,12.6c2.143-3.139,1.827-7.454-0.959-10.239c-3.148-3.148-8.253-3.148-11.402,0
	s-3.148,8.254,0,11.402c2.786,2.786,7.101,3.102,10.24,0.958l6.426,6.427c0.568,0.567,1.502,0.552,2.088-0.034
	S21.716,19.595,21.149,19.027z M11.863,11.863c-2.099,2.099-5.502,2.099-7.602,0c-2.099-2.099-2.099-5.502,0-7.602
	c2.099-2.099,5.502-2.099,7.601,0C13.962,6.361,13.962,9.764,11.863,11.863z"/>
</svg>
