<?xml version="1.0" encoding="utf-8"?>
<!-- Generator: Adobe Illustrator 18.1.1, SVG Export Plug-In . SVG Version: 6.00 Build 0)  -->
<svg version="1.1" id="Layer_1" xmlns="http://www.w3.org/2000/svg" xmlns:xlink="http://www.w3.org/1999/xlink" x="0px" y="0px"
	 width="190.3px" height="31.3px" viewBox="0 0 190.3 31.3" enable-background="new 0 0 190.3 31.3" xml:space="preserve">
<path d="M121.5,17.4H136v-4h-14.5v-3.1h15.4V5.7h-21.3v19.5h21.7v-4.7h-15.7V17.4z M146.7,17.4h14.5v-4h-14.5v-3.1h15.4V5.7h-21.3
	v19.5h21.7v-4.7h-15.7V17.4z M178.9,13.1c-6.4,0-7.1,0-7.1-1.7c0-1.1,0.9-1.5,2.3-1.5h6.6c2.7,0,2.9,0.6,2.9,2h6v-0.6
	c0-3.4-0.6-5.8-7.5-5.8h-8.3c-7.5,0-7.9,2.7-7.9,6.2c0,4.8,1,5.9,10,5.9c7.7,0,8.4,0.1,8.4,1.8c0,1.5-1.3,1.6-2.6,1.6h-7.3
	c-1.7,0-2.6-0.2-2.6-2.2h-6v1.3c0,4.2,2.2,5.3,7.6,5.3h7.2c7.9,0,9.7-0.9,9.7-6.1C190.3,13.6,188.1,13,178.9,13.1z M13.1,13.1
	c-6.4,0-7.1,0-7.1-1.7c0-1.1,0.9-1.5,2.3-1.5h6.6c2.7,0,2.9,0.6,2.9,2h6v-0.6c0-3.4-0.6-5.8-7.5-5.8H7.9C0.3,5.5,0,8.2,0,11.7
	c0,4.8,1,5.9,10,5.9c7.7,0,8.4,0.1,8.4,1.8c0,1.5-1.3,1.6-2.6,1.6H8.6C6.8,21,6,20.9,6,18.8H0v1.3c0,4.2,2.2,5.3,7.6,5.3h7.2
	c7.9,0,9.7-0.9,9.7-6.1C24.6,13.6,22.4,13,13.1,13.1z M105.8,0L94,23.3L82.3,0H72.2l16.1,31.3h11.4L115.8,0H105.8z M34.3,17.4h14.5
	v-4H34.3v-3.1h15.4V5.7H28.3v19.5H50v-4.7H34.3V17.4z M62.2,5.7L51.7,25.2h6.7l1.8-3.4h12.1l1.9,3.4h6.7L70,5.7H62.2z M62.3,17.5
	l3.8-7.3l3.9,7.3H62.3z"/>
</svg>
