<?xml version="1.0" encoding="utf-8"?>
<!-- Generator: Adobe Illustrator 17.1.0, SVG Export Plug-In . SVG Version: 6.00 Build 0)  -->
<!DOCTYPE svg PUBLIC "-//W3C//DTD SVG 1.1//EN" "http://www.w3.org/Graphics/SVG/1.1/DTD/svg11.dtd">
<svg version="1.1" xmlns="http://www.w3.org/2000/svg" xmlns:xlink="http://www.w3.org/1999/xlink" x="0px" y="0px"
	 viewBox="0 0 124 20" enable-background="new 0 0 124 20" xml:space="preserve">
<g id="Layer_1">
</g>
<g id="Layer_2">
	<g>
		<path fill="#FFFFFF" d="M34,4H21.7c-0.1,0-0.2,0.1-0.2,0.2v11.1c0,0.1,0.1,0.2,0.2,0.2h12.4c0.1,0,0.2-0.1,0.2-0.2v-2.5
			c0-0.1-0.1-0.2-0.2-0.2h-8.7v-1.7h8.2c0.1,0,0.2-0.1,0.2-0.2V8.6c0-0.1-0.1-0.2-0.2-0.2h-8.2V6.9H34c0.1,0,0.2-0.1,0.2-0.2V4.2
			C34.2,4.1,34.1,4,34,4z"/>
		<path fill="#FFFFFF" d="M88.2,4H75.9c-0.1,0-0.2,0.1-0.2,0.2v11.1c0,0.1,0.1,0.2,0.2,0.2h12.4c0.1,0,0.2-0.1,0.2-0.2v-2.5
			c0-0.1-0.1-0.2-0.2-0.2h-8.7v-1.7h8.2c0.1,0,0.2-0.1,0.2-0.2V8.6c0-0.1-0.1-0.2-0.2-0.2h-8.2V6.9h8.7c0.1,0,0.2-0.1,0.2-0.2V4.2
			C88.4,4.1,88.3,4,88.2,4z"/>
		<path fill="#FFFFFF" d="M103.2,4H90.8c-0.1,0-0.2,0.1-0.2,0.2v11.1c0,0.1,0.1,0.2,0.2,0.2h12.4c0.1,0,0.2-0.1,0.2-0.2v-2.5
			c0-0.1-0.1-0.2-0.2-0.2h-8.7v-1.7h8.2c0.1,0,0.2-0.1,0.2-0.2V8.6c0-0.1-0.1-0.2-0.2-0.2h-8.2V6.9h8.7c0.1,0,0.2-0.1,0.2-0.2V4.2
			C103.4,4.1,103.3,4,103.2,4z"/>
		<path fill="#FFFFFF" d="M13.2,8.2c-3.8,0-4.1,0-4.1-1c0-0.6,0.4-0.8,1.2-0.8h3.7c1.4,0,1.7,0.2,1.7,0.8c0,0,0,0.1,0,0.2
			c0,0.1,0.1,0.2,0.2,0.2h3.4c0.1,0,0.2-0.1,0.2-0.2V7c0,0,0,0,0,0c0-2-0.5-3.3-4.5-3.3h-5c-4.5,0-4.6,1.6-4.6,3.7
			c0,2.9,0.5,3.5,5.8,3.5c1.7,0,2.8,0,3.6,0c1,0,1.3,0.2,1.3,1c0,0.8-0.4,0.9-1.4,0.9h-3.9c-0.9,0-1.4-0.1-1.5-1c0,0,0-0.1,0-0.2
			c0-0.1-0.1-0.1-0.2-0.1H5.7c-0.1,0-0.2,0.1-0.2,0.2c0,0.1,0,0.7,0,0.7c0,2.5,1.3,3.1,4.5,3.1H14c4.5,0,6-0.5,6-3.6
			C20,8.6,18.7,8.2,13.2,8.2z"/>
		<path fill="#FFFFFF" d="M112.5,8.2c-3.8,0-4.1,0-4.1-1c0-0.6,0.4-0.8,1.2-0.8h3.7c1.4,0,1.7,0.2,1.7,0.8c0,0,0,0.1,0,0.2
			c0,0.1,0.1,0.2,0.2,0.2h3.4c0.1,0,0.2-0.1,0.2-0.2V7c0,0,0,0,0,0c0-2-0.5-3.3-4.5-3.3h-5c-4.5,0-4.6,1.6-4.6,3.7
			c0,2.9,0.5,3.5,5.8,3.5c1.7,0,2.8,0,3.6,0c1,0,1.3,0.2,1.3,1c0,0.8-0.4,0.9-1.4,0.9h-3.9c-0.9,0-1.4-0.1-1.5-1c0,0,0-0.1,0-0.2
			c0-0.1-0.1-0.1-0.2-0.1h-3.4c-0.1,0-0.2,0.1-0.2,0.2c0,0.1,0,0.7,0,0.7c0,2.5,1.3,3.1,4.5,3.1h3.9c4.5,0,6-0.5,6-3.6
			C119.4,8.6,118.1,8.2,112.5,8.2z"/>
		<path fill="#FFFFFF" d="M53,15.3c0,0-0.1-0.2-0.1-0.2l-6.2-11l0,0c0-0.1-0.1-0.1-0.2-0.1h-0.5h-3.4H42c-0.1,0-0.2,0.1-0.2,0.1l0,0
			l-6.2,11c0,0-0.1,0.1-0.1,0.2c0,0.1,0,0.2,0.1,0.2h3.2h0.5c0.1,0,0.2-0.1,0.2-0.2l0.9-1.7c0-0.1,0.1-0.1,0.2-0.1h7.1
			c0.1,0,0.2,0.1,0.2,0.1l0.9,1.7c0,0.1,0.1,0.2,0.2,0.2h0.5h3.2C53,15.5,53.1,15.4,53,15.3z M46.4,10.8
			C46.4,10.8,46.4,10.8,46.4,10.8L46.4,10.8L46.4,10.8l-4.3,0h0h0c0,0,0,0-0.1,0c0,0,0-0.1,0-0.1c0,0,1.7-3.2,2.1-3.9
			c0,0,0-0.1,0.1-0.1c0,0,0,0,0,0c0,0,0,0,0,0c0.1,0,0.1,0.1,0.1,0.1C44.7,7.5,46.4,10.7,46.4,10.8C46.4,10.8,46.4,10.8,46.4,10.8z"
			/>
		<path fill="#FFFFFF" d="M75.3,0.2L75.3,0.2h-4.9c-0.1,0-0.2,0-0.2,0.1c0,0-7.2,14.3-8,15.9c0,0.1-0.1,0.1-0.1,0
			c-0.8-1.5-8-15.9-8-15.9c-0.1-0.1-0.1-0.1-0.2-0.1h-4.9h0c-0.1,0-0.1,0.1-0.1,0.2c0,0,0,0,0,0c0,0,0,0,0,0.1l9.7,19.4
			c0.1,0.1,0.1,0.1,0.2,0.1h6.6c0.1,0,0.2,0,0.2-0.1l9.7-19.4c0,0,0-0.1,0-0.1c0,0,0,0,0,0C75.4,0.3,75.4,0.2,75.3,0.2z"/>
	</g>
</g>
</svg>
