<?xml version="1.0" encoding="utf-8"?>
<!-- Generator: Adobe Illustrator 15.1.0, SVG Export Plug-In  -->
<!DOCTYPE svg PUBLIC "-//W3C//DTD SVG 1.1//EN" "http://www.w3.org/Graphics/SVG/1.1/DTD/svg11.dtd" [
	<!ENTITY ns_flows "http://ns.adobe.com/Flows/1.0/">
]>
<svg version="1.1"
	 xmlns="http://www.w3.org/2000/svg" xmlns:xlink="http://www.w3.org/1999/xlink" xmlns:a="http://ns.adobe.com/AdobeSVGViewerExtensions/3.0/"
	 x="0px" y="0px" width="124px" height="20px" viewBox="-0.375 0 124 20"
	 overflow="visible" enable-background="new -0.375 0 124 20" xml:space="preserve">
<defs>
</defs>
<path fill="#FFFFFF" d="M0,12.147h3.865c0.017,1.34,0.557,1.446,1.671,1.446h4.735c0.818,0,1.654-0.088,1.654-1.063
	c0-1.097-0.453-1.166-5.431-1.166c-5.815,0-6.477-0.697-6.477-3.795c0-2.282,0.209-4.04,5.084-4.04h5.396
	c4.458,0,4.875,1.514,4.875,3.726v0.401h-3.865c0-0.924-0.104-1.306-1.88-1.306H5.345c-0.871,0-1.463,0.295-1.463,0.974
	c0,1.098,0.47,1.131,4.613,1.114c6.006-0.016,7.399,0.349,7.399,4.022c0,3.395-1.149,3.952-6.285,3.952H4.927
	C1.41,16.412,0,15.752,0,13.017V12.147z"/>
<path fill="#FFFFFF" d="M18.279,3.669h13.788v2.924h-9.923v2.019h9.4v2.611h-9.4v2.02h10.15v3.029H18.279V3.669z"/>
<path fill="#FFFFFF" d="M40.215,3.669h5.032l6.928,12.604h-4.299l-1.201-2.229h-7.835l-1.132,2.229H33.39L40.215,3.669z
	 M40.285,11.328h4.944l-2.507-4.734L40.285,11.328z"/>
<path fill="#FFFFFF" d="M46.687,0h6.508l7.578,15.05L68.351,0h6.507L64.44,20.255h-7.336L46.687,0z"/>
<path fill="#FFFFFF" d="M74.637,3.669h13.789v2.924h-9.924v2.019h9.4v2.611h-9.4v2.02h10.149v3.029H74.637V3.669z"/>
<path fill="#FFFFFF" d="M90.984,3.669h13.788v2.924h-9.924v2.019h9.401v2.611h-9.401v2.02h10.15v3.029H90.984V3.669z"/>
<path fill="#FFFFFF" d="M107.105,12.147h3.864c0.018,1.34,0.557,1.446,1.671,1.446h4.735c0.819,0,1.654-0.088,1.654-1.063
	c0-1.097-0.452-1.166-5.433-1.166c-5.814,0-6.476-0.697-6.476-3.795c0-2.282,0.21-4.04,5.084-4.04h5.396
	c4.457,0,4.875,1.514,4.875,3.726v0.401h-3.864c0-0.924-0.104-1.306-1.881-1.306h-4.283c-0.87,0-1.462,0.295-1.462,0.974
	c0,1.098,0.47,1.131,4.614,1.114C121.606,8.422,123,8.787,123,12.46c0,3.395-1.15,3.952-6.285,3.952h-4.684
	c-3.517,0-4.926-0.66-4.926-3.395V12.147z"/>
</svg>
