<?xml version="1.0" encoding="utf-8"?>
<!-- Generator: Adobe Illustrator 15.1.0, SVG Export Plug-In  -->
<!DOCTYPE svg PUBLIC "-//W3C//DTD SVG 1.1//EN" "http://www.w3.org/Graphics/SVG/1.1/DTD/svg11.dtd" [
	<!ENTITY ns_flows "http://ns.adobe.com/Flows/1.0/">
]>
<svg version="1.1"
	 xmlns="http://www.w3.org/2000/svg" xmlns:xlink="http://www.w3.org/1999/xlink" xmlns:a="http://ns.adobe.com/AdobeSVGViewerExtensions/3.0/"
	 x="0px" y="0px" width="34px" height="34px" viewBox="-2 -2 34 34" overflow="visible" enable-background="new -2 -2 34 34"
	 xml:space="preserve">
<defs>
</defs>
<path id="WTF_1_" d="M17,0C7.611,0,0,7.611,0,17s7.611,17,17,17c9.388,0,17-7.611,17-17S26.388,0,17,0z M23.897,25.021
	c-0.276,0-0.463-0.095-0.72-0.252c-2.466-1.49-5.536-2.273-8.797-2.273c-1.819,0-3.649,0.232-5.362,0.589
	c-0.279,0.061-0.629,0.168-0.838,0.168c-0.645,0-1.075-0.513-1.075-1.069c0-0.715,0.411-1.067,0.925-1.166
	c2.1-0.479,4.191-0.752,6.363-0.752c3.72,0,7.034,0.854,9.888,2.564c0.425,0.248,0.674,0.5,0.674,1.129
	C24.953,24.572,24.455,25.021,23.897,25.021z M25.748,20.521c-0.367,0-0.6-0.148-0.851-0.294c-2.767-1.641-6.599-2.731-10.794-2.731
	c-2.152,0-4.01,0.301-5.549,0.709c-0.331,0.091-0.517,0.19-0.826,0.19c-0.732,0-1.328-0.597-1.328-1.334
	c0-0.722,0.35-1.22,1.058-1.419c1.911-0.525,3.862-0.93,6.703-0.93c4.45,0,8.756,1.108,12.138,3.134
	c0.569,0.326,0.778,0.737,0.778,1.344C27.074,19.928,26.487,20.521,25.748,20.521z M27.857,15.289c-0.346,0-0.551-0.083-0.874-0.26
	c-3.077-1.846-7.854-2.861-12.471-2.861c-2.306,0-4.647,0.234-6.792,0.816c-0.247,0.062-0.559,0.186-0.872,0.186
	c-0.906,0-1.603-0.718-1.603-1.624c0-0.924,0.572-1.443,1.19-1.625c2.423-0.714,5.128-1.047,8.068-1.047
	c4.992,0,10.245,1.026,14.081,3.281c0.518,0.292,0.876,0.733,0.876,1.542C29.462,14.623,28.716,15.289,27.857,15.289z"/>
</svg>
