<?xml version="1.0" encoding="utf-8"?>
<!-- Generator: Adobe Illustrator 15.1.0, SVG Export Plug-In  -->
<!DOCTYPE svg PUBLIC "-//W3C//DTD SVG 1.1//EN" "http://www.w3.org/Graphics/SVG/1.1/DTD/svg11.dtd" [
	<!ENTITY ns_flows "http://ns.adobe.com/Flows/1.0/">
]>
<svg version="1.1"
	 xmlns="http://www.w3.org/2000/svg" xmlns:xlink="http://www.w3.org/1999/xlink" xmlns:a="http://ns.adobe.com/AdobeSVGViewerExtensions/3.0/"
	 x="0px" y="0px" width="34px" height="34px" viewBox="-2 -4.833 34 34"
	 overflow="visible" enable-background="new -2 -4.833 34 34" xml:space="preserve">
<defs>
</defs>
<path id="Brid_1_" d="M34,4.202c-1.253,0.557-3.123,1.296-4.533,1.465c1.443-0.864,2.878-2.902,3.399-4.533
	c-1.1,0.653-2.364,1.535-3.656,2.009l-0.877-0.876C27.062,0.91,25.806,0,23.8,0C19.948,0,17,2.949,17,6.8
	c0,0.452,0.053,0.793,0.125,1.084L17,7.934c-6.8,0-11.294-1.446-14.733-5.667c-0.602,1.029-1.133,2.122-1.133,3.4
	c0,2.421,1.528,4.413,3.4,5.666c-1.143-0.037-2.46-0.614-3.4-1.133c0,3.377,4.744,7.289,7.934,7.934
	c-1.134,1.133-5.24,0.084-5.667,0c0.889,2.773,3.75,4.476,6.8,4.533c-2.386,1.868-5.267,2.845-8.536,2.845
	c-0.564,0-1.118-0.033-1.665-0.096c3.086,1.977,7.393,2.918,11.333,2.918c12.832,0,19.266-10.05,19.266-19.268
	c0-0.304,0.009-0.834,0-1.133C31.961,6.949,33.062,5.601,34,4.202z"/>
</svg>
